<svg width="581" height="374" viewBox="0 0 581 374" fill="none" xmlns="http://www.w3.org/2000/svg">
<path d="M59.5 359.5C43.1667 368.833 23.1667 373.5 -0.499999 373.5C-24.1667 373.5 -44.1667 368.833 -60.5 359.5C-76.8333 349.833 -89.5 336.167 -98.5 318.5C-107.167 300.833 -113.333 281.5 -117 260.5C-120.667 239.167 -122.5 214.667 -122.5 187C-122.5 119.333 -112.5 72.1667 -92.5 45.5C-70.5 15.1667 -39.8333 -1.83582e-05 -0.499999 -1.83582e-05C42.5 -1.83582e-05 74.8333 17.5 96.5 52.5C113.167 79.5 121.5 125 121.5 189C121.5 215.667 119.667 239.5 116 260.5C112.333 281.167 106.167 300.5 97.5 318.5C88.8333 336.167 76.1667 349.833 59.5 359.5ZM51.5 187.5C51.5 151.833 49.1667 124.167 44.5 104.5C40.1667 84.8333 34.5 72 27.5 66C20.5 59.6667 11.1667 56.5 -0.499999 56.5C-19.1667 56.5 -32.5 66 -40.5 85C-48.5 103.667 -52.5 137.5 -52.5 186.5C-52.5 220.5 -50.3333 247.167 -46 266.5C-41.6667 285.5 -36 298.167 -29 304.5C-21.6667 310.5 -12.1667 313.5 -0.499999 313.5C19.8333 313.5 34.1667 302.667 42.5 281C48.5 264.333 51.5 233.167 51.5 187.5ZM337.332 359.5C320.999 368.833 300.999 373.5 277.332 373.5C253.665 373.5 233.665 368.833 217.332 359.5C200.999 349.833 188.332 336.167 179.332 318.5C170.665 300.833 164.499 281.5 160.832 260.5C157.165 239.167 155.332 214.667 155.332 187C155.332 119.333 165.332 72.1667 185.332 45.5C207.332 15.1667 237.999 -1.83582e-05 277.332 -1.83582e-05C320.332 -1.83582e-05 352.665 17.5 374.332 52.5C390.999 79.5 399.332 125 399.332 189C399.332 215.667 397.499 239.5 393.832 260.5C390.165 281.167 383.999 300.5 375.332 318.5C366.665 336.167 353.999 349.833 337.332 359.5ZM329.332 187.5C329.332 151.833 326.999 124.167 322.332 104.5C317.999 84.8333 312.332 72 305.332 66C298.332 59.6667 288.999 56.5 277.332 56.5C258.665 56.5 245.332 66 237.332 85C229.332 103.667 225.332 137.5 225.332 186.5C225.332 220.5 227.499 247.167 231.832 266.5C236.165 285.5 241.832 298.167 248.832 304.5C256.165 310.5 265.665 313.5 277.332 313.5C297.665 313.5 311.999 302.667 320.332 281C326.332 264.333 329.332 233.167 329.332 187.5ZM510.164 117.5H425.164V71C486.497 71 522.664 49.8333 533.664 7.49997H580.164V362H510.164V117.5Z" fill="url(#paint0_linear)"/>
<defs>
<linearGradient id="paint0_linear" x1="-105" y1="142.24" x2="1494" y2="142.24" gradientUnits="userSpaceOnUse">
<stop stop-color="#FF007A"/>
<stop offset="1" stop-color="#FF0000"/>
</linearGradient>
</defs>
</svg>
