<svg width="199" height="16" viewBox="0 0 199 16" fill="none" xmlns="http://www.w3.org/2000/svg">
<path d="M10.02 12.06H4.56L3.58 15H0.52L5.7 0.419999H9.02L14.06 15H10.98L10.02 12.06ZM9.2 9.56L7.3 3.86L5.4 9.56H9.2ZM23.2736 15.32C22.7803 15.4133 22.2669 15.46 21.7336 15.46C21.2003 15.46 20.6803 15.4133 20.1736 15.32C19.6803 15.2267 19.1669 15.06 18.6336 14.82C18.1136 14.58 17.6603 14.2733 17.2736 13.9C16.8869 13.5267 16.5669 13.0333 16.3136 12.42C16.0736 11.7933 15.9536 11.0867 15.9536 10.3V0.419999H18.9536V10.3C18.9536 12.0333 19.8803 12.9 21.7336 12.9C23.5869 12.9 24.5136 12.0333 24.5136 10.3V0.419999H27.5136V10.3C27.5136 11.0867 27.3869 11.7933 27.1336 12.42C26.8936 13.0333 26.5803 13.5267 26.1936 13.9C25.8069 14.2733 25.3469 14.58 24.8136 14.82C24.2936 15.06 23.7803 15.2267 23.2736 15.32ZM30.4072 15V0.419999H36.1072C37.2272 0.419999 38.1472 0.553333 38.8672 0.819999C39.6005 1.08667 40.2139 1.51333 40.7072 2.1C41.8939 3.51333 42.4872 5.38 42.4872 7.7C42.4872 10.0467 41.8939 11.9133 40.7072 13.3C39.7605 14.4333 38.2272 15 36.1072 15H30.4072ZM33.4072 12.5H36.1072C38.3605 12.5 39.4872 10.9067 39.4872 7.72C39.4872 4.52 38.3605 2.92 36.1072 2.92H33.4072V12.5ZM46.9553 0.419999V15H43.9553V0.419999H46.9553ZM50.0833 13.32C48.8033 11.8933 48.1633 10.06 48.1633 7.82C48.1633 5.58 48.8033 3.74667 50.0833 2.32C51.3766 0.893333 53.0699 0.179999 55.1633 0.179999C57.2699 0.179999 58.9699 0.893333 60.2633 2.32C61.5566 3.73333 62.2033 5.6 62.2033 7.92C62.2033 10.08 61.5633 11.88 60.2833 13.32C59.0166 14.7467 57.3166 15.46 55.1833 15.46C53.0633 15.46 51.3633 14.7467 50.0833 13.32ZM55.1833 2.74C53.9699 2.74 52.9966 3.20667 52.2633 4.14C51.5299 5.06 51.1633 6.28667 51.1633 7.82C51.1633 9.35333 51.5299 10.5867 52.2633 11.52C52.9966 12.44 53.9699 12.9 55.1833 12.9C56.3833 12.9 57.3499 12.44 58.0833 11.52C58.8299 10.6 59.2033 9.39333 59.2033 7.9C59.2033 6.32667 58.8366 5.07333 58.1033 4.14C57.3833 3.20667 56.4099 2.74 55.1833 2.74ZM73.0161 9.8V15H70.0161V0.419999H76.4561C77.9761 0.419999 79.1361 0.806666 79.9361 1.58C80.7494 2.35333 81.1561 3.47333 81.1561 4.94C81.1561 6.42 80.7561 7.6 79.9561 8.48C79.1561 9.36 78.0894 9.8 76.7561 9.8H73.0161ZM73.0161 7.3H75.8161C77.3761 7.3 78.1561 6.57333 78.1561 5.12C78.1561 4.37333 77.9628 3.82 77.5761 3.46C77.2028 3.1 76.6161 2.92 75.8161 2.92H73.0161V7.3ZM91.6959 12.5C91.6959 12.1 91.7026 11.7867 91.7159 11.56C91.7293 11.3333 91.7359 11.1333 91.7359 10.96C91.7359 10.3467 91.5893 9.90667 91.2959 9.64C91.0026 9.36 90.5293 9.22 89.8759 9.22H86.4359V15H83.4359V0.419999H91.2559C92.0026 0.419999 92.6426 0.546666 93.1759 0.799999C93.7226 1.05333 94.1293 1.38667 94.3959 1.8C94.6759 2.21333 94.8759 2.63333 94.9959 3.06C95.1159 3.47333 95.1759 3.90667 95.1759 4.36C95.1759 6.12 94.3559 7.32 92.7159 7.96C93.0759 8.10667 93.3426 8.22667 93.5159 8.32C93.6893 8.4 93.8626 8.54 94.0359 8.74C94.2226 8.94 94.3426 9.12 94.3959 9.28C94.4626 9.44 94.5226 9.73333 94.5759 10.16C94.6426 10.5867 94.6826 11.0067 94.6959 11.42C94.7093 11.8333 94.7226 12.4467 94.7359 13.26C94.7359 13.82 94.9493 14.22 95.3759 14.46V15H92.1559C91.9693 14.6533 91.8426 14.32 91.7759 14C91.7226 13.68 91.6959 13.18 91.6959 12.5ZM92.1759 4.78C92.1759 4.03333 92.0026 3.54 91.6559 3.3C91.3093 3.04667 90.7759 2.92 90.0559 2.92H86.4359V6.72H90.0559C90.7626 6.72 91.2893 6.59333 91.6359 6.34C91.9959 6.08667 92.1759 5.56667 92.1759 4.78ZM98.7942 13.32C97.5142 11.8933 96.8742 10.06 96.8742 7.82C96.8742 5.58 97.5142 3.74667 98.7942 2.32C100.088 0.893333 101.781 0.179999 103.874 0.179999C105.981 0.179999 107.681 0.893333 108.974 2.32C110.268 3.73333 110.914 5.6 110.914 7.92C110.914 10.08 110.274 11.88 108.994 13.32C107.728 14.7467 106.028 15.46 103.894 15.46C101.774 15.46 100.074 14.7467 98.7942 13.32ZM103.894 2.74C102.681 2.74 101.708 3.20667 100.974 4.14C100.241 5.06 99.8742 6.28667 99.8742 7.82C99.8742 9.35333 100.241 10.5867 100.974 11.52C101.708 12.44 102.681 12.9 103.894 12.9C105.094 12.9 106.061 12.44 106.794 11.52C107.541 10.6 107.914 9.39333 107.914 7.9C107.914 6.32667 107.548 5.07333 106.814 4.14C106.094 3.20667 105.121 2.74 103.894 2.74ZM113.181 15V0.419999H118.881C120.001 0.419999 120.921 0.553333 121.641 0.819999C122.374 1.08667 122.987 1.51333 123.481 2.1C124.667 3.51333 125.261 5.38 125.261 7.7C125.261 10.0467 124.667 11.9133 123.481 13.3C122.534 14.4333 121.001 15 118.881 15H113.181ZM116.181 12.5H118.881C121.134 12.5 122.261 10.9067 122.261 7.72C122.261 4.52 121.134 2.92 118.881 2.92H116.181V12.5ZM134.914 15.32C134.421 15.4133 133.908 15.46 133.374 15.46C132.841 15.46 132.321 15.4133 131.814 15.32C131.321 15.2267 130.808 15.06 130.274 14.82C129.754 14.58 129.301 14.2733 128.914 13.9C128.528 13.5267 128.208 13.0333 127.954 12.42C127.714 11.7933 127.594 11.0867 127.594 10.3V0.419999H130.594V10.3C130.594 12.0333 131.521 12.9 133.374 12.9C135.228 12.9 136.154 12.0333 136.154 10.3V0.419999H139.154V10.3C139.154 11.0867 139.028 11.7933 138.774 12.42C138.534 13.0333 138.221 13.5267 137.834 13.9C137.448 14.2733 136.988 14.58 136.454 14.82C135.934 15.06 135.421 15.2267 134.914 15.32ZM151.288 5.36C150.914 3.61333 149.874 2.74 148.168 2.74C146.981 2.74 146.054 3.19333 145.388 4.1C144.721 5.00667 144.388 6.26667 144.388 7.88C144.388 9.46667 144.708 10.7067 145.348 11.6C146.001 12.4933 146.908 12.94 148.068 12.94C149.001 12.94 149.748 12.6867 150.308 12.18C150.868 11.6733 151.194 10.9533 151.288 10.02H154.208C154.114 11.6867 153.508 13.0133 152.388 14C151.268 14.9733 149.801 15.46 147.988 15.46C145.961 15.46 144.354 14.78 143.168 13.42C141.981 12.0467 141.388 10.1867 141.388 7.84C141.388 5.48 141.988 3.61333 143.188 2.24C144.388 0.866666 146.014 0.179999 148.068 0.179999C149.788 0.179999 151.194 0.639999 152.288 1.56C153.394 2.48 154.014 3.74667 154.148 5.36H151.288ZM161.841 2.92V15H158.841V2.92H154.421V0.419999H166.101V2.92H161.841ZM170.237 0.419999V15H167.237V0.419999H170.237ZM173.365 13.32C172.085 11.8933 171.445 10.06 171.445 7.82C171.445 5.58 172.085 3.74667 173.365 2.32C174.658 0.893333 176.351 0.179999 178.445 0.179999C180.551 0.179999 182.251 0.893333 183.545 2.32C184.838 3.73333 185.485 5.6 185.485 7.92C185.485 10.08 184.845 11.88 183.565 13.32C182.298 14.7467 180.598 15.46 178.465 15.46C176.345 15.46 174.645 14.7467 173.365 13.32ZM178.465 2.74C177.251 2.74 176.278 3.20667 175.545 4.14C174.811 5.06 174.445 6.28667 174.445 7.82C174.445 9.35333 174.811 10.5867 175.545 11.52C176.278 12.44 177.251 12.9 178.465 12.9C179.665 12.9 180.631 12.44 181.365 11.52C182.111 10.6 182.485 9.39333 182.485 7.9C182.485 6.32667 182.118 5.07333 181.385 4.14C180.665 3.20667 179.691 2.74 178.465 2.74ZM195.825 15L189.965 4.92V15H186.965V0.419999H190.045L195.825 10.34V0.419999H198.825V15H195.825Z" fill="white"/>
</svg>
