<svg width="596" height="169" viewBox="0 0 596 169" fill="none" xmlns="http://www.w3.org/2000/svg">
<path d="M43.12 22.44C41.6267 15.4533 37.4667 11.96 30.64 11.96C25.8933 11.96 22.1867 13.7733 19.52 17.4C16.8533 21.0267 15.52 26.0667 15.52 32.52C15.52 38.8667 16.8 43.8267 19.36 47.4C21.9733 50.9733 25.6 52.76 30.24 52.76C33.9733 52.76 36.96 51.7467 39.2 49.72C41.44 47.6933 42.7467 44.8133 43.12 41.08H54.8C54.4267 47.7467 52 53.0533 47.52 57C43.04 60.8933 37.1733 62.84 29.92 62.84C21.8133 62.84 15.3867 60.12 10.64 54.68C5.89333 49.1867 3.52 41.7467 3.52 32.36C3.52 22.92 5.92 15.4533 10.72 9.96C15.52 4.46666 22.0267 1.72 30.24 1.72C37.12 1.72 42.7467 3.56 47.12 7.24C51.5467 10.92 54.0267 15.9867 54.56 22.44H43.12ZM90.2144 49.24H68.3744L64.4544 61H52.2144L72.9344 2.68H86.2144L106.374 61H94.0544L90.2144 49.24ZM86.9344 39.24L79.3344 16.44L71.7344 39.24H86.9344ZM150.807 20.44H139.607C139.18 14.36 135.1 11.32 127.367 11.32C124.274 11.32 121.82 11.9867 120.007 13.32C118.194 14.6 117.287 16.3333 117.287 18.52C117.287 20.6533 118.06 22.2533 119.607 23.32C121.154 24.3333 124.06 25.2667 128.327 26.12L137.447 27.88C142.834 28.9467 146.754 30.76 149.207 33.32C151.66 35.8267 152.887 39.3733 152.887 43.96C152.887 49.88 150.78 54.52 146.567 57.88C142.354 61.1867 136.487 62.84 128.967 62.84C121.5 62.84 115.687 61.1867 111.527 57.88C107.42 54.5733 105.18 49.8 104.807 43.56H116.487C116.7 46.7067 117.927 49.1067 120.167 50.76C122.407 52.4133 125.554 53.24 129.607 53.24C133.234 53.24 136.087 52.5467 138.167 51.16C140.3 49.7733 141.367 47.8533 141.367 45.4C141.367 43.0533 140.54 41.24 138.887 39.96C137.234 38.68 134.407 37.6667 130.407 36.92L122.247 35.32C116.327 34.2 112.114 32.44 109.607 30.04C107.1 27.64 105.847 24.1733 105.847 19.64C105.847 13.9333 107.767 9.53333 111.607 6.44C115.5 3.29333 120.94 1.72 127.927 1.72C129.954 1.72 131.9 1.85333 133.767 2.12C135.687 2.38666 137.714 2.94667 139.847 3.8C141.98 4.6 143.82 5.66666 145.367 7C146.914 8.28 148.194 10.0933 149.207 12.44C150.274 14.7333 150.807 17.4 150.807 20.44ZM167.914 35.88V51H199.514V61H155.914V2.68H198.074V12.68H167.914V25.88H195.834V35.88H167.914ZM267.379 20.44H256.179C255.752 14.36 251.672 11.32 243.939 11.32C240.845 11.32 238.392 11.9867 236.579 13.32C234.765 14.6 233.859 16.3333 233.859 18.52C233.859 20.6533 234.632 22.2533 236.179 23.32C237.725 24.3333 240.632 25.2667 244.899 26.12L254.019 27.88C259.405 28.9467 263.325 30.76 265.779 33.32C268.232 35.8267 269.459 39.3733 269.459 43.96C269.459 49.88 267.352 54.52 263.139 57.88C258.925 61.1867 253.059 62.84 245.539 62.84C238.072 62.84 232.259 61.1867 228.099 57.88C223.992 54.5733 221.752 49.8 221.379 43.56H233.059C233.272 46.7067 234.499 49.1067 236.739 50.76C238.979 52.4133 242.125 53.24 246.179 53.24C249.805 53.24 252.659 52.5467 254.739 51.16C256.872 49.7733 257.939 47.8533 257.939 45.4C257.939 43.0533 257.112 41.24 255.459 39.96C253.805 38.68 250.979 37.6667 246.979 36.92L238.819 35.32C232.899 34.2 228.685 32.44 226.179 30.04C223.672 27.64 222.419 24.1733 222.419 19.64C222.419 13.9333 224.339 9.53333 228.179 6.44C232.072 3.29333 237.512 1.72 244.499 1.72C246.525 1.72 248.472 1.85333 250.339 2.12C252.259 2.38666 254.285 2.94667 256.419 3.8C258.552 4.6 260.392 5.66666 261.939 7C263.485 8.28 264.765 10.0933 265.779 12.44C266.845 14.7333 267.379 17.4 267.379 20.44ZM298.978 12.68V61H286.978V12.68H269.298V2.68H316.018V12.68H298.978ZM348.844 62.28C346.871 62.6533 344.818 62.84 342.684 62.84C340.551 62.84 338.471 62.6533 336.444 62.28C334.471 61.9067 332.418 61.24 330.284 60.28C328.204 59.32 326.391 58.0933 324.844 56.6C323.298 55.1067 322.018 53.1333 321.004 50.68C320.044 48.1733 319.564 45.3467 319.564 42.2V2.68H331.564V42.2C331.564 49.1333 335.271 52.6 342.684 52.6C350.098 52.6 353.804 49.1333 353.804 42.2V2.68H365.804V42.2C365.804 45.3467 365.298 48.1733 364.284 50.68C363.324 53.1333 362.071 55.1067 360.524 56.6C358.978 58.0933 357.138 59.32 355.004 60.28C352.924 61.24 350.871 61.9067 348.844 62.28ZM370.579 61V2.68H393.379C397.859 2.68 401.539 3.21333 404.419 4.28C407.352 5.34666 409.805 7.05333 411.779 9.4C416.525 15.0533 418.899 22.52 418.899 31.8C418.899 41.1867 416.525 48.6533 411.779 54.2C407.992 58.7333 401.859 61 393.379 61H370.579ZM382.579 51H393.379C402.392 51 406.899 44.6267 406.899 31.88C406.899 19.08 402.392 12.68 393.379 12.68H382.579V51ZM446.473 39.4V61H434.473V39.4L415.113 2.68H428.473L440.393 28.44L451.513 2.68H464.953L446.473 39.4Z" fill="url(#paint0_linear)"/>
<path d="M16.78 112.36C16.4067 110.613 15.3667 109.74 13.66 109.74C12.4733 109.74 11.5467 110.193 10.88 111.1C10.2133 112.007 9.88 113.267 9.88 114.88C9.88 116.467 10.2 117.707 10.84 118.6C11.4933 119.493 12.4 119.94 13.56 119.94C14.4933 119.94 15.24 119.687 15.8 119.18C16.36 118.673 16.6867 117.953 16.78 117.02H19.7C19.6067 118.687 19 120.013 17.88 121C16.76 121.973 15.2933 122.46 13.48 122.46C11.4533 122.46 9.84667 121.78 8.66 120.42C7.47333 119.047 6.88 117.187 6.88 114.84C6.88 112.48 7.48 110.613 8.68 109.24C9.88 107.867 11.5067 107.18 13.56 107.18C15.28 107.18 16.6867 107.64 17.78 108.56C18.8867 109.48 19.5067 110.747 19.64 112.36H16.78ZM30.2936 119.5C30.2936 119.1 30.3003 118.787 30.3136 118.56C30.3269 118.333 30.3336 118.133 30.3336 117.96C30.3336 117.347 30.1869 116.907 29.8936 116.64C29.6003 116.36 29.1269 116.22 28.4736 116.22H25.0336V122H22.0336V107.42H29.8536C30.6003 107.42 31.2403 107.547 31.7736 107.8C32.3203 108.053 32.7269 108.387 32.9936 108.8C33.2736 109.213 33.4736 109.633 33.5936 110.06C33.7136 110.473 33.7736 110.907 33.7736 111.36C33.7736 113.12 32.9536 114.32 31.3136 114.96C31.6736 115.107 31.9403 115.227 32.1136 115.32C32.2869 115.4 32.4603 115.54 32.6336 115.74C32.8203 115.94 32.9403 116.12 32.9936 116.28C33.0603 116.44 33.1203 116.733 33.1736 117.16C33.2403 117.587 33.2803 118.007 33.2936 118.42C33.3069 118.833 33.3203 119.447 33.3336 120.26C33.3336 120.82 33.5469 121.22 33.9736 121.46V122H30.7536C30.5669 121.653 30.4403 121.32 30.3736 121C30.3203 120.68 30.2936 120.18 30.2936 119.5ZM30.7736 111.78C30.7736 111.033 30.6003 110.54 30.2536 110.3C29.9069 110.047 29.3736 109.92 28.6536 109.92H25.0336V113.72H28.6536C29.3603 113.72 29.8869 113.593 30.2336 113.34C30.5936 113.087 30.7736 112.567 30.7736 111.78ZM44.6919 119.06H39.2319L38.2519 122H35.1919L40.3719 107.42H43.6919L48.7319 122H45.6519L44.6919 119.06ZM43.8719 116.56L41.9719 110.86L40.0719 116.56H43.8719ZM52.76 107.42V122H49.76V107.42H52.76ZM64.568 112.04C64.0346 110.48 62.8746 109.7 61.088 109.7C59.8213 109.7 58.8213 110.147 58.088 111.04C57.368 111.933 57.008 113.167 57.008 114.74C57.008 116.233 57.3946 117.46 58.168 118.42C58.9546 119.38 59.9546 119.86 61.168 119.86C61.3546 119.86 61.568 119.84 61.808 119.8C62.0613 119.747 62.3613 119.653 62.708 119.52C63.0546 119.373 63.3746 119.187 63.668 118.96C63.9613 118.733 64.2213 118.42 64.448 118.02C64.6746 117.607 64.8146 117.14 64.868 116.62H61.548V114.12H67.388V122H65.588L65.228 120.08C64.668 120.893 64.0413 121.487 63.348 121.86C62.6546 122.233 61.8146 122.42 60.828 122.42C58.8546 122.42 57.2213 121.7 55.928 120.26C54.648 118.82 54.008 116.993 54.008 114.78C54.008 112.513 54.6613 110.673 55.968 109.26C57.2746 107.847 58.9746 107.14 61.068 107.14C62.828 107.14 64.2746 107.58 65.408 108.46C66.5413 109.34 67.2013 110.533 67.388 112.04H64.568ZM80.6791 111.86H77.8791C77.7724 110.34 76.7524 109.58 74.8191 109.58C74.0457 109.58 73.4324 109.747 72.9791 110.08C72.5257 110.4 72.2991 110.833 72.2991 111.38C72.2991 111.913 72.4924 112.313 72.8791 112.58C73.2657 112.833 73.9924 113.067 75.0591 113.28L77.3391 113.72C78.6857 113.987 79.6657 114.44 80.2791 115.08C80.8924 115.707 81.1991 116.593 81.1991 117.74C81.1991 119.22 80.6724 120.38 79.6191 121.22C78.5657 122.047 77.0991 122.46 75.2191 122.46C73.3524 122.46 71.8991 122.047 70.8591 121.22C69.8324 120.393 69.2724 119.2 69.1791 117.64H72.0991C72.1524 118.427 72.4591 119.027 73.0191 119.44C73.5791 119.853 74.3657 120.06 75.3791 120.06C76.2857 120.06 76.9991 119.887 77.5191 119.54C78.0524 119.193 78.3191 118.713 78.3191 118.1C78.3191 117.513 78.1124 117.06 77.6991 116.74C77.2857 116.42 76.5791 116.167 75.5791 115.98L73.5391 115.58C72.0591 115.3 71.0057 114.86 70.3791 114.26C69.7524 113.66 69.4391 112.793 69.4391 111.66C69.4391 110.233 69.9191 109.133 70.8791 108.36C71.8524 107.573 73.2124 107.18 74.9591 107.18C75.4657 107.18 75.9524 107.213 76.4191 107.28C76.8991 107.347 77.4057 107.487 77.9391 107.7C78.4724 107.9 78.9324 108.167 79.3191 108.5C79.7057 108.82 80.0257 109.273 80.2791 109.86C80.5457 110.433 80.6791 111.1 80.6791 111.86ZM85.7758 107.42V119.5H92.7558V122H82.7758V107.42H85.7758ZM97.0569 107.42V122H94.0569V107.42H97.0569ZM109.8 111.86H107C106.893 110.34 105.873 109.58 103.94 109.58C103.167 109.58 102.553 109.747 102.1 110.08C101.647 110.4 101.42 110.833 101.42 111.38C101.42 111.913 101.613 112.313 102 112.58C102.387 112.833 103.113 113.067 104.18 113.28L106.46 113.72C107.807 113.987 108.787 114.44 109.4 115.08C110.013 115.707 110.32 116.593 110.32 117.74C110.32 119.22 109.793 120.38 108.74 121.22C107.687 122.047 106.22 122.46 104.34 122.46C102.473 122.46 101.02 122.047 99.9802 121.22C98.9535 120.393 98.3935 119.2 98.3002 117.64H101.22C101.273 118.427 101.58 119.027 102.14 119.44C102.7 119.853 103.487 120.06 104.5 120.06C105.407 120.06 106.12 119.887 106.64 119.54C107.173 119.193 107.44 118.713 107.44 118.1C107.44 117.513 107.233 117.06 106.82 116.74C106.407 116.42 105.7 116.167 104.7 115.98L102.66 115.58C101.18 115.3 100.127 114.86 99.5002 114.26C98.8735 113.66 98.5602 112.793 98.5602 111.66C98.5602 110.233 99.0402 109.133 100 108.36C100.973 107.573 102.333 107.18 104.08 107.18C104.587 107.18 105.073 107.213 105.54 107.28C106.02 107.347 106.527 107.487 107.06 107.7C107.593 107.9 108.053 108.167 108.44 108.5C108.827 108.82 109.147 109.273 109.4 109.86C109.667 110.433 109.8 111.1 109.8 111.86ZM117.899 109.92V122H114.899V109.92H110.479V107.42H122.159V109.92H117.899ZM137.852 119.5C137.852 119.1 137.859 118.787 137.872 118.56C137.886 118.333 137.892 118.133 137.892 117.96C137.892 117.347 137.746 116.907 137.452 116.64C137.159 116.36 136.686 116.22 136.032 116.22H132.592V122H129.592V107.42H137.412C138.159 107.42 138.799 107.547 139.332 107.8C139.879 108.053 140.286 108.387 140.552 108.8C140.832 109.213 141.032 109.633 141.152 110.06C141.272 110.473 141.332 110.907 141.332 111.36C141.332 113.12 140.512 114.32 138.872 114.96C139.232 115.107 139.499 115.227 139.672 115.32C139.846 115.4 140.019 115.54 140.192 115.74C140.379 115.94 140.499 116.12 140.552 116.28C140.619 116.44 140.679 116.733 140.732 117.16C140.799 117.587 140.839 118.007 140.852 118.42C140.866 118.833 140.879 119.447 140.892 120.26C140.892 120.82 141.106 121.22 141.532 121.46V122H138.312C138.126 121.653 137.999 121.32 137.932 121C137.879 120.68 137.852 120.18 137.852 119.5ZM138.332 111.78C138.332 111.033 138.159 110.54 137.812 110.3C137.466 110.047 136.932 109.92 136.212 109.92H132.592V113.72H136.212C136.919 113.72 137.446 113.593 137.792 113.34C138.152 113.087 138.332 112.567 138.332 111.78ZM146.205 115.72V119.5H154.105V122H143.205V107.42H153.745V109.92H146.205V113.22H153.185V115.72H146.205ZM156.505 122V107.42H162.205C163.325 107.42 164.245 107.553 164.965 107.82C165.698 108.087 166.312 108.513 166.805 109.1C167.992 110.513 168.585 112.38 168.585 114.7C168.585 117.047 167.992 118.913 166.805 120.3C165.858 121.433 164.325 122 162.205 122H156.505ZM159.505 119.5H162.205C164.458 119.5 165.585 117.907 165.585 114.72C165.585 111.52 164.458 109.92 162.205 109.92H159.505V119.5ZM173.08 115.72V119.5H180.98V122H170.08V107.42H180.62V109.92H173.08V113.22H180.06V115.72H173.08ZM192.984 111.86H190.184C190.077 110.34 189.057 109.58 187.124 109.58C186.35 109.58 185.737 109.747 185.284 110.08C184.83 110.4 184.604 110.833 184.604 111.38C184.604 111.913 184.797 112.313 185.184 112.58C185.57 112.833 186.297 113.067 187.364 113.28L189.644 113.72C190.99 113.987 191.97 114.44 192.584 115.08C193.197 115.707 193.504 116.593 193.504 117.74C193.504 119.22 192.977 120.38 191.924 121.22C190.87 122.047 189.404 122.46 187.524 122.46C185.657 122.46 184.204 122.047 183.164 121.22C182.137 120.393 181.577 119.2 181.484 117.64H184.404C184.457 118.427 184.764 119.027 185.324 119.44C185.884 119.853 186.67 120.06 187.684 120.06C188.59 120.06 189.304 119.887 189.824 119.54C190.357 119.193 190.624 118.713 190.624 118.1C190.624 117.513 190.417 117.06 190.004 116.74C189.59 116.42 188.884 116.167 187.884 115.98L185.844 115.58C184.364 115.3 183.31 114.86 182.684 114.26C182.057 113.66 181.744 112.793 181.744 111.66C181.744 110.233 182.224 109.133 183.184 108.36C184.157 107.573 185.517 107.18 187.264 107.18C187.77 107.18 188.257 107.213 188.724 107.28C189.204 107.347 189.71 107.487 190.244 107.7C190.777 107.9 191.237 108.167 191.624 108.5C192.01 108.82 192.33 109.273 192.584 109.86C192.85 110.433 192.984 111.1 192.984 111.86ZM198.053 107.42V122H195.053V107.42H198.053ZM209.861 112.04C209.328 110.48 208.168 109.7 206.381 109.7C205.114 109.7 204.114 110.147 203.381 111.04C202.661 111.933 202.301 113.167 202.301 114.74C202.301 116.233 202.688 117.46 203.461 118.42C204.248 119.38 205.248 119.86 206.461 119.86C206.648 119.86 206.861 119.84 207.101 119.8C207.354 119.747 207.654 119.653 208.001 119.52C208.348 119.373 208.668 119.187 208.961 118.96C209.254 118.733 209.514 118.42 209.741 118.02C209.968 117.607 210.108 117.14 210.161 116.62H206.841V114.12H212.681V122H210.881L210.521 120.08C209.961 120.893 209.334 121.487 208.641 121.86C207.948 122.233 207.108 122.42 206.121 122.42C204.148 122.42 202.514 121.7 201.221 120.26C199.941 118.82 199.301 116.993 199.301 114.78C199.301 112.513 199.954 110.673 201.261 109.26C202.568 107.847 204.268 107.14 206.361 107.14C208.121 107.14 209.568 107.58 210.701 108.46C211.834 109.34 212.494 110.533 212.681 112.04H209.861ZM223.447 122L217.587 111.92V122H214.587V107.42H217.667L223.447 117.34V107.42H226.447V122H223.447ZM244.007 112.36C243.633 110.613 242.593 109.74 240.887 109.74C239.7 109.74 238.773 110.193 238.107 111.1C237.44 112.007 237.107 113.267 237.107 114.88C237.107 116.467 237.427 117.707 238.067 118.6C238.72 119.493 239.627 119.94 240.787 119.94C241.72 119.94 242.467 119.687 243.027 119.18C243.587 118.673 243.913 117.953 244.007 117.02H246.927C246.833 118.687 246.227 120.013 245.107 121C243.987 121.973 242.52 122.46 240.707 122.46C238.68 122.46 237.073 121.78 235.887 120.42C234.7 119.047 234.107 117.187 234.107 114.84C234.107 112.48 234.707 110.613 235.907 109.24C237.107 107.867 238.733 107.18 240.787 107.18C242.507 107.18 243.913 107.64 245.007 108.56C246.113 109.48 246.733 110.747 246.867 112.36H244.007ZM249.99 120.32C248.71 118.893 248.07 117.06 248.07 114.82C248.07 112.58 248.71 110.747 249.99 109.32C251.283 107.893 252.976 107.18 255.07 107.18C257.176 107.18 258.876 107.893 260.17 109.32C261.463 110.733 262.11 112.6 262.11 114.92C262.11 117.08 261.47 118.88 260.19 120.32C258.923 121.747 257.223 122.46 255.09 122.46C252.97 122.46 251.27 121.747 249.99 120.32ZM255.09 109.74C253.876 109.74 252.903 110.207 252.17 111.14C251.436 112.06 251.07 113.287 251.07 114.82C251.07 116.353 251.436 117.587 252.17 118.52C252.903 119.44 253.876 119.9 255.09 119.9C256.29 119.9 257.256 119.44 257.99 118.52C258.736 117.6 259.11 116.393 259.11 114.9C259.11 113.327 258.743 112.073 258.01 111.14C257.29 110.207 256.316 109.74 255.09 109.74ZM272.45 122L266.59 111.92V122H263.59V107.42H266.67L272.45 117.34V107.42H275.45V122H272.45ZM287.053 112.36C286.68 110.613 285.64 109.74 283.933 109.74C282.747 109.74 281.82 110.193 281.153 111.1C280.487 112.007 280.153 113.267 280.153 114.88C280.153 116.467 280.473 117.707 281.113 118.6C281.767 119.493 282.673 119.94 283.833 119.94C284.767 119.94 285.513 119.687 286.073 119.18C286.633 118.673 286.96 117.953 287.053 117.02H289.973C289.88 118.687 289.273 120.013 288.153 121C287.033 121.973 285.567 122.46 283.753 122.46C281.727 122.46 280.12 121.78 278.933 120.42C277.747 119.047 277.153 117.187 277.153 114.84C277.153 112.48 277.753 110.613 278.953 109.24C280.153 107.867 281.78 107.18 283.833 107.18C285.553 107.18 286.96 107.64 288.053 108.56C289.16 109.48 289.78 110.747 289.913 112.36H287.053ZM294.389 115.72V119.5H302.289V122H291.389V107.42H301.929V109.92H294.389V113.22H301.369V115.72H294.389ZM307.668 116.8V122H304.668V107.42H311.108C312.628 107.42 313.788 107.807 314.588 108.58C315.402 109.353 315.808 110.473 315.808 111.94C315.808 113.42 315.408 114.6 314.608 115.48C313.808 116.36 312.742 116.8 311.408 116.8H307.668ZM307.668 114.3H310.468C312.028 114.3 312.808 113.573 312.808 112.12C312.808 111.373 312.615 110.82 312.228 110.46C311.855 110.1 311.268 109.92 310.468 109.92H307.668V114.3ZM323.583 109.92V122H320.583V109.92H316.163V107.42H327.843V109.92H323.583Z" fill="white"/>
<path d="M16.416 148H14.988L12.636 139.614L10.354 148H8.926L6.308 137.794H7.764L9.682 146.082L11.95 137.794H13.35L15.674 146.082L17.55 137.794H19.006L16.416 148ZM24.8627 142.918C24.8627 142.405 24.704 142.036 24.3867 141.812C24.0787 141.588 23.7334 141.476 23.3507 141.476C22.7534 141.476 22.2727 141.705 21.9087 142.162C21.5447 142.61 21.3627 143.207 21.3627 143.954V148H20.2007V137.794H21.3627V141.672C21.708 141.224 22.0534 140.911 22.3987 140.734C22.7534 140.547 23.192 140.454 23.7147 140.454C24.424 140.454 24.984 140.636 25.3947 141C25.8147 141.355 26.0247 141.84 26.0247 142.456V148H24.8627V142.918ZM27.91 142.834C27.966 141.247 28.946 140.454 30.85 140.454C31.7553 140.454 32.4413 140.627 32.908 140.972C33.3747 141.308 33.608 141.803 33.608 142.456V146.768C33.608 147.151 33.818 147.342 34.238 147.342C34.322 147.342 34.406 147.333 34.49 147.314V148.196C34.1633 148.28 33.8973 148.322 33.692 148.322C33.3187 148.322 33.034 148.233 32.838 148.056C32.6513 147.888 32.5347 147.617 32.488 147.244C31.704 147.963 30.8733 148.322 29.996 148.322C29.2587 148.322 28.6707 148.126 28.232 147.734C27.8027 147.342 27.588 146.815 27.588 146.152C27.588 145.937 27.6067 145.741 27.644 145.564C27.6907 145.387 27.7373 145.233 27.784 145.102C27.84 144.962 27.9333 144.836 28.064 144.724C28.1947 144.603 28.302 144.505 28.386 144.43C28.4793 144.355 28.6287 144.285 28.834 144.22C29.0487 144.145 29.212 144.094 29.324 144.066C29.436 144.029 29.632 143.987 29.912 143.94C30.192 143.893 30.3973 143.861 30.528 143.842C30.6587 143.823 30.892 143.791 31.228 143.744C31.6853 143.688 32.0027 143.599 32.18 143.478C32.3573 143.357 32.446 143.175 32.446 142.932V142.624C32.446 142.269 32.3013 141.999 32.012 141.812C31.732 141.625 31.3307 141.532 30.808 141.532C30.2667 141.532 29.856 141.639 29.576 141.854C29.296 142.059 29.1327 142.386 29.086 142.834H27.91ZM30.248 147.3C30.892 147.3 31.4193 147.132 31.83 146.796C32.2407 146.451 32.446 146.082 32.446 145.69V144.374C32.2127 144.486 31.858 144.579 31.382 144.654C30.9153 144.729 30.5093 144.794 30.164 144.85C29.8187 144.906 29.506 145.041 29.226 145.256C28.946 145.461 28.806 145.751 28.806 146.124C28.806 146.497 28.932 146.787 29.184 146.992C29.436 147.197 29.7907 147.3 30.248 147.3ZM38.1986 140.664V141.616H36.9946V146.642C36.9946 146.903 37.0366 147.081 37.1206 147.174C37.2139 147.258 37.3866 147.3 37.6386 147.3C37.8719 147.3 38.0586 147.281 38.1986 147.244V148.224C37.8346 148.289 37.5172 148.322 37.2466 148.322C36.7892 148.322 36.4392 148.219 36.1966 148.014C35.9539 147.818 35.8326 147.533 35.8326 147.16V141.616H34.8386V140.664H35.8326V138.648H36.9946V140.664H38.1986ZM49.3655 137.794V148H48.3295V147.034C48.0122 147.491 47.6669 147.818 47.2935 148.014C46.9295 148.219 46.4955 148.322 45.9915 148.322C45.0022 148.322 44.2229 147.967 43.6535 147.258C43.0842 146.539 42.7995 145.559 42.7995 144.318C42.7995 143.151 43.0842 142.218 43.6535 141.518C44.2322 140.809 44.9975 140.454 45.9495 140.454C46.9575 140.454 47.7089 140.832 48.2035 141.588V137.794H49.3655ZM46.1455 141.546C45.5109 141.546 44.9975 141.807 44.6055 142.33C44.2135 142.853 44.0175 143.539 44.0175 144.388C44.0175 145.247 44.2135 145.937 44.6055 146.46C44.9975 146.973 45.5155 147.23 46.1595 147.23C46.7755 147.23 47.2702 146.973 47.6435 146.46C48.0169 145.947 48.2035 145.265 48.2035 144.416C48.2035 143.539 48.0169 142.843 47.6435 142.33C47.2702 141.807 46.7709 141.546 46.1455 141.546ZM54.0228 140.454C55.0775 140.454 55.8942 140.804 56.4728 141.504C57.0608 142.195 57.3548 143.175 57.3548 144.444C57.3548 145.648 57.0562 146.595 56.4588 147.286C55.8708 147.977 55.0635 148.322 54.0368 148.322C52.9915 148.322 52.1748 147.977 51.5868 147.286C51.0082 146.586 50.7188 145.62 50.7188 144.388C50.7188 143.156 51.0128 142.195 51.6008 141.504C52.1888 140.804 52.9962 140.454 54.0228 140.454ZM54.0368 141.532C53.3835 141.532 52.8702 141.789 52.4968 142.302C52.1235 142.806 51.9368 143.501 51.9368 144.388C51.9368 145.275 52.1235 145.975 52.4968 146.488C52.8702 146.992 53.3835 147.244 54.0368 147.244C54.6808 147.244 55.1895 146.992 55.5628 146.488C55.9455 145.975 56.1368 145.289 56.1368 144.43C56.1368 143.525 55.9502 142.815 55.5768 142.302C55.2128 141.789 54.6995 141.532 54.0368 141.532ZM65.1761 144.724H59.7721C59.7815 145.396 59.9121 145.919 60.1641 146.292C60.5655 146.927 61.1535 147.244 61.9281 147.244C62.8801 147.244 63.5195 146.754 63.8461 145.774H65.0221C64.8728 146.577 64.5228 147.202 63.9721 147.65C63.4215 148.098 62.7261 148.322 61.8861 148.322C60.8595 148.322 60.0475 147.977 59.4501 147.286C58.8528 146.586 58.5541 145.634 58.5541 144.43C58.5541 143.226 58.8575 142.265 59.4641 141.546C60.0801 140.818 60.8968 140.454 61.9141 140.454C62.6048 140.454 63.2115 140.627 63.7341 140.972C64.2661 141.317 64.6488 141.789 64.8821 142.386C65.0781 142.899 65.1761 143.679 65.1761 144.724ZM59.8001 143.772H63.9161C63.9255 143.753 63.9301 143.725 63.9301 143.688C63.9301 143.081 63.7341 142.573 63.3421 142.162C62.9501 141.742 62.4695 141.532 61.9001 141.532C61.3121 141.532 60.8268 141.737 60.4441 142.148C60.0615 142.549 59.8468 143.091 59.8001 143.772ZM67.3447 145.816C67.4007 146.255 67.5501 146.605 67.7927 146.866C68.0447 147.118 68.4927 147.244 69.1367 147.244C69.6501 147.244 70.0607 147.141 70.3687 146.936C70.6861 146.721 70.8447 146.441 70.8447 146.096C70.8447 145.825 70.7561 145.611 70.5787 145.452C70.4014 145.293 70.1121 145.167 69.7107 145.074L68.6187 144.808C67.7507 144.603 67.1441 144.346 66.7987 144.038C66.4627 143.721 66.2947 143.273 66.2947 142.694C66.2947 142.013 66.5514 141.471 67.0647 141.07C67.5781 140.659 68.2594 140.454 69.1087 140.454C69.9581 140.454 70.6114 140.65 71.0687 141.042C71.5261 141.434 71.7594 141.989 71.7687 142.708H70.5367C70.5087 141.924 70.0187 141.532 69.0667 141.532C68.5907 141.532 68.2127 141.635 67.9327 141.84C67.6527 142.036 67.5127 142.302 67.5127 142.638C67.5127 142.899 67.6201 143.114 67.8347 143.282C68.0494 143.441 68.3947 143.576 68.8707 143.688L69.9907 143.954C70.7187 144.131 71.2461 144.383 71.5727 144.71C71.8994 145.027 72.0627 145.457 72.0627 145.998C72.0627 146.707 71.7874 147.272 71.2367 147.692C70.6954 148.112 69.9627 148.322 69.0387 148.322C67.1441 148.322 66.1687 147.487 66.1127 145.816H67.3447ZM78.6332 140.664V148H77.4712V140.664H78.6332ZM78.6332 137.794V139.264H77.4572V137.794H78.6332ZM83.1927 140.664V141.616H81.9887V146.642C81.9887 146.903 82.0307 147.081 82.1147 147.174C82.2081 147.258 82.3807 147.3 82.6327 147.3C82.8661 147.3 83.0527 147.281 83.1927 147.244V148.224C82.8287 148.289 82.5114 148.322 82.2407 148.322C81.7834 148.322 81.4334 148.219 81.1907 148.014C80.9481 147.818 80.8267 147.533 80.8267 147.16V141.616H79.8327V140.664H80.8267V138.648H81.9887V140.664H83.1927ZM90.9857 140.664V141.616H89.7817V146.642C89.7817 146.903 89.8237 147.081 89.9077 147.174C90.001 147.258 90.1737 147.3 90.4257 147.3C90.659 147.3 90.8457 147.281 90.9857 147.244V148.224C90.6217 148.289 90.3044 148.322 90.0337 148.322C89.5764 148.322 89.2264 148.219 88.9837 148.014C88.741 147.818 88.6197 147.533 88.6197 147.16V141.616H87.6257V140.664H88.6197V138.648H89.7817V140.664H90.9857ZM92.0995 142.834C92.1555 141.247 93.1355 140.454 95.0395 140.454C95.9448 140.454 96.6308 140.627 97.0975 140.972C97.5641 141.308 97.7975 141.803 97.7975 142.456V146.768C97.7975 147.151 98.0075 147.342 98.4275 147.342C98.5115 147.342 98.5955 147.333 98.6795 147.314V148.196C98.3528 148.28 98.0868 148.322 97.8815 148.322C97.5081 148.322 97.2235 148.233 97.0275 148.056C96.8408 147.888 96.7241 147.617 96.6775 147.244C95.8935 147.963 95.0628 148.322 94.1855 148.322C93.4481 148.322 92.8601 148.126 92.4215 147.734C91.9921 147.342 91.7775 146.815 91.7775 146.152C91.7775 145.937 91.7961 145.741 91.8335 145.564C91.8801 145.387 91.9268 145.233 91.9735 145.102C92.0295 144.962 92.1228 144.836 92.2535 144.724C92.3841 144.603 92.4915 144.505 92.5755 144.43C92.6688 144.355 92.8181 144.285 93.0235 144.22C93.2381 144.145 93.4015 144.094 93.5135 144.066C93.6255 144.029 93.8215 143.987 94.1015 143.94C94.3815 143.893 94.5868 143.861 94.7175 143.842C94.8481 143.823 95.0815 143.791 95.4175 143.744C95.8748 143.688 96.1921 143.599 96.3695 143.478C96.5468 143.357 96.6355 143.175 96.6355 142.932V142.624C96.6355 142.269 96.4908 141.999 96.2015 141.812C95.9215 141.625 95.5201 141.532 94.9975 141.532C94.4561 141.532 94.0455 141.639 93.7655 141.854C93.4855 142.059 93.3221 142.386 93.2755 142.834H92.0995ZM94.4375 147.3C95.0815 147.3 95.6088 147.132 96.0195 146.796C96.4301 146.451 96.6355 146.082 96.6355 145.69V144.374C96.4021 144.486 96.0475 144.579 95.5715 144.654C95.1048 144.729 94.6988 144.794 94.3535 144.85C94.0081 144.906 93.6955 145.041 93.4155 145.256C93.1355 145.461 92.9955 145.751 92.9955 146.124C92.9955 146.497 93.1215 146.787 93.3735 146.992C93.6255 147.197 93.9801 147.3 94.4375 147.3ZM100.943 137.794V143.772L104.051 140.664H105.549L103.001 143.198L105.997 148H104.555L102.077 144.024L100.943 145.144V148H99.7808V137.794H100.943ZM112.877 144.724H107.473C107.483 145.396 107.613 145.919 107.865 146.292C108.267 146.927 108.855 147.244 109.629 147.244C110.581 147.244 111.221 146.754 111.547 145.774H112.723C112.574 146.577 112.224 147.202 111.673 147.65C111.123 148.098 110.427 148.322 109.587 148.322C108.561 148.322 107.749 147.977 107.151 147.286C106.554 146.586 106.255 145.634 106.255 144.43C106.255 143.226 106.559 142.265 107.165 141.546C107.781 140.818 108.598 140.454 109.615 140.454C110.306 140.454 110.913 140.627 111.435 140.972C111.967 141.317 112.35 141.789 112.583 142.386C112.779 142.899 112.877 143.679 112.877 144.724ZM107.501 143.772H111.617C111.627 143.753 111.631 143.725 111.631 143.688C111.631 143.081 111.435 142.573 111.043 142.162C110.651 141.742 110.171 141.532 109.601 141.532C109.013 141.532 108.528 141.737 108.145 142.148C107.763 142.549 107.548 143.091 107.501 143.772ZM120.927 140.664V141.616H119.723V146.642C119.723 146.903 119.765 147.081 119.849 147.174C119.942 147.258 120.115 147.3 120.367 147.3C120.6 147.3 120.787 147.281 120.927 147.244V148.224C120.563 148.289 120.246 148.322 119.975 148.322C119.518 148.322 119.168 148.219 118.925 148.014C118.682 147.818 118.561 147.533 118.561 147.16V141.616H117.567V140.664H118.561V138.648H119.723V140.664H120.927ZM124.871 140.454C125.925 140.454 126.742 140.804 127.321 141.504C127.909 142.195 128.203 143.175 128.203 144.444C128.203 145.648 127.904 146.595 127.307 147.286C126.719 147.977 125.911 148.322 124.885 148.322C123.839 148.322 123.023 147.977 122.435 147.286C121.856 146.586 121.567 145.62 121.567 144.388C121.567 143.156 121.861 142.195 122.449 141.504C123.037 140.804 123.844 140.454 124.871 140.454ZM124.885 141.532C124.231 141.532 123.718 141.789 123.345 142.302C122.971 142.806 122.785 143.501 122.785 144.388C122.785 145.275 122.971 145.975 123.345 146.488C123.718 146.992 124.231 147.244 124.885 147.244C125.529 147.244 126.037 146.992 126.411 146.488C126.793 145.975 126.985 145.289 126.985 144.43C126.985 143.525 126.798 142.815 126.425 142.302C126.061 141.789 125.547 141.532 124.885 141.532ZM133.718 140.664H134.796V141.7C135.114 141.261 135.445 140.944 135.79 140.748C136.145 140.552 136.565 140.454 137.05 140.454C137.956 140.454 138.614 140.827 139.024 141.574C139.37 141.163 139.71 140.874 140.046 140.706C140.382 140.538 140.793 140.454 141.278 140.454C141.96 140.454 142.482 140.631 142.846 140.986C143.22 141.331 143.406 141.835 143.406 142.498V148H142.23V142.946C142.23 142.479 142.109 142.12 141.866 141.868C141.633 141.607 141.302 141.476 140.872 141.476C140.396 141.476 139.99 141.663 139.654 142.036C139.318 142.409 139.15 142.862 139.15 143.394V148H137.974V142.946C137.974 142.479 137.853 142.12 137.61 141.868C137.377 141.607 137.046 141.476 136.616 141.476C136.14 141.476 135.734 141.663 135.398 142.036C135.062 142.409 134.894 142.862 134.894 143.394V148H133.718V140.664ZM145.31 142.834C145.366 141.247 146.346 140.454 148.25 140.454C149.156 140.454 149.842 140.627 150.308 140.972C150.775 141.308 151.008 141.803 151.008 142.456V146.768C151.008 147.151 151.218 147.342 151.638 147.342C151.722 147.342 151.806 147.333 151.89 147.314V148.196C151.564 148.28 151.298 148.322 151.092 148.322C150.719 148.322 150.434 148.233 150.238 148.056C150.052 147.888 149.935 147.617 149.888 147.244C149.104 147.963 148.274 148.322 147.396 148.322C146.659 148.322 146.071 148.126 145.632 147.734C145.203 147.342 144.988 146.815 144.988 146.152C144.988 145.937 145.007 145.741 145.044 145.564C145.091 145.387 145.138 145.233 145.184 145.102C145.24 144.962 145.334 144.836 145.464 144.724C145.595 144.603 145.702 144.505 145.786 144.43C145.88 144.355 146.029 144.285 146.234 144.22C146.449 144.145 146.612 144.094 146.724 144.066C146.836 144.029 147.032 143.987 147.312 143.94C147.592 143.893 147.798 143.861 147.928 143.842C148.059 143.823 148.292 143.791 148.628 143.744C149.086 143.688 149.403 143.599 149.58 143.478C149.758 143.357 149.846 143.175 149.846 142.932V142.624C149.846 142.269 149.702 141.999 149.412 141.812C149.132 141.625 148.731 141.532 148.208 141.532C147.667 141.532 147.256 141.639 146.976 141.854C146.696 142.059 146.533 142.386 146.486 142.834H145.31ZM147.648 147.3C148.292 147.3 148.82 147.132 149.23 146.796C149.641 146.451 149.846 146.082 149.846 145.69V144.374C149.613 144.486 149.258 144.579 148.782 144.654C148.316 144.729 147.91 144.794 147.564 144.85C147.219 144.906 146.906 145.041 146.626 145.256C146.346 145.461 146.206 145.751 146.206 146.124C146.206 146.497 146.332 146.787 146.584 146.992C146.836 147.197 147.191 147.3 147.648 147.3ZM154.154 137.794V143.772L157.262 140.664H158.76L156.212 143.198L159.208 148H157.766L155.288 144.024L154.154 145.144V148H152.992V137.794H154.154ZM166.088 144.724H160.684C160.694 145.396 160.824 145.919 161.076 146.292C161.478 146.927 162.066 147.244 162.84 147.244C163.792 147.244 164.432 146.754 164.758 145.774H165.934C165.785 146.577 165.435 147.202 164.884 147.65C164.334 148.098 163.638 148.322 162.798 148.322C161.772 148.322 160.96 147.977 160.362 147.286C159.765 146.586 159.466 145.634 159.466 144.43C159.466 143.226 159.77 142.265 160.376 141.546C160.992 140.818 161.809 140.454 162.826 140.454C163.517 140.454 164.124 140.627 164.646 140.972C165.178 141.317 165.561 141.789 165.794 142.386C165.99 142.899 166.088 143.679 166.088 144.724ZM160.712 143.772H164.828C164.838 143.753 164.842 143.725 164.842 143.688C164.842 143.081 164.646 142.573 164.254 142.162C163.862 141.742 163.382 141.532 162.812 141.532C162.224 141.532 161.739 141.737 161.356 142.148C160.974 142.549 160.759 143.091 160.712 143.772ZM174.138 140.664V141.616H172.934V146.642C172.934 146.903 172.976 147.081 173.06 147.174C173.153 147.258 173.326 147.3 173.578 147.3C173.811 147.3 173.998 147.281 174.138 147.244V148.224C173.774 148.289 173.457 148.322 173.186 148.322C172.729 148.322 172.379 148.219 172.136 148.014C171.893 147.818 171.772 147.533 171.772 147.16V141.616H170.778V140.664H171.772V138.648H172.934V140.664H174.138ZM180.121 142.918C180.121 142.405 179.962 142.036 179.645 141.812C179.337 141.588 178.991 141.476 178.609 141.476C178.011 141.476 177.531 141.705 177.167 142.162C176.803 142.61 176.621 143.207 176.621 143.954V148H175.459V137.794H176.621V141.672C176.966 141.224 177.311 140.911 177.657 140.734C178.011 140.547 178.45 140.454 178.973 140.454C179.682 140.454 180.242 140.636 180.653 141C181.073 141.355 181.283 141.84 181.283 142.456V148H180.121V142.918ZM189.235 144.724H183.831C183.84 145.396 183.971 145.919 184.223 146.292C184.624 146.927 185.212 147.244 185.987 147.244C186.939 147.244 187.578 146.754 187.905 145.774H189.081C188.931 146.577 188.581 147.202 188.031 147.65C187.48 148.098 186.785 148.322 185.945 148.322C184.918 148.322 184.106 147.977 183.509 147.286C182.911 146.586 182.613 145.634 182.613 144.43C182.613 143.226 182.916 142.265 183.523 141.546C184.139 140.818 184.955 140.454 185.973 140.454C186.663 140.454 187.27 140.627 187.793 140.972C188.325 141.317 188.707 141.789 188.941 142.386C189.137 142.899 189.235 143.679 189.235 144.724ZM183.859 143.772H187.975C187.984 143.753 187.989 143.725 187.989 143.688C187.989 143.081 187.793 142.573 187.401 142.162C187.009 141.742 186.528 141.532 185.959 141.532C185.371 141.532 184.885 141.737 184.503 142.148C184.12 142.549 183.905 143.091 183.859 143.772ZM201.485 148H200.155L198.671 142.246L197.257 148H195.941L193.813 140.664H195.101L196.599 146.376L197.999 140.664H199.427L200.869 146.376L202.325 140.664H203.641L201.485 148ZM207.285 140.454C208.339 140.454 209.156 140.804 209.735 141.504C210.323 142.195 210.617 143.175 210.617 144.444C210.617 145.648 210.318 146.595 209.721 147.286C209.133 147.977 208.325 148.322 207.299 148.322C206.253 148.322 205.437 147.977 204.849 147.286C204.27 146.586 203.981 145.62 203.981 144.388C203.981 143.156 204.275 142.195 204.863 141.504C205.451 140.804 206.258 140.454 207.285 140.454ZM207.299 141.532C206.645 141.532 206.132 141.789 205.759 142.302C205.385 142.806 205.199 143.501 205.199 144.388C205.199 145.275 205.385 145.975 205.759 146.488C206.132 146.992 206.645 147.244 207.299 147.244C207.943 147.244 208.451 146.992 208.825 146.488C209.207 145.975 209.399 145.289 209.399 144.43C209.399 143.525 209.212 142.815 208.839 142.302C208.475 141.789 207.961 141.532 207.299 141.532ZM215.613 141.686C214.829 141.705 214.241 141.887 213.849 142.232C213.457 142.577 213.261 143.231 213.261 144.192V148H212.085V140.664H213.163V141.994C213.499 141.443 213.821 141.051 214.129 140.818C214.446 140.575 214.792 140.454 215.165 140.454C215.268 140.454 215.417 140.468 215.613 140.496V141.686ZM217.909 137.794V148H216.733V137.794H217.909ZM225.815 137.794V148H224.779V147.034C224.461 147.491 224.116 147.818 223.743 148.014C223.379 148.219 222.945 148.322 222.441 148.322C221.451 148.322 220.672 147.967 220.103 147.258C219.533 146.539 219.249 145.559 219.249 144.318C219.249 143.151 219.533 142.218 220.103 141.518C220.681 140.809 221.447 140.454 222.399 140.454C223.407 140.454 224.158 140.832 224.653 141.588V137.794H225.815ZM222.595 141.546C221.96 141.546 221.447 141.807 221.055 142.33C220.663 142.853 220.467 143.539 220.467 144.388C220.467 145.247 220.663 145.937 221.055 146.46C221.447 146.973 221.965 147.23 222.609 147.23C223.225 147.23 223.719 146.973 224.093 146.46C224.466 145.947 224.653 145.265 224.653 144.416C224.653 143.539 224.466 142.843 224.093 142.33C223.719 141.807 223.22 141.546 222.595 141.546ZM227.56 137.794H228.862V139.208C228.862 140.356 228.428 140.967 227.56 141.042V140.51C228.008 140.435 228.232 140.015 228.232 139.25H227.56V137.794ZM230.765 145.816C230.821 146.255 230.97 146.605 231.213 146.866C231.465 147.118 231.913 147.244 232.557 147.244C233.07 147.244 233.481 147.141 233.789 146.936C234.106 146.721 234.265 146.441 234.265 146.096C234.265 145.825 234.176 145.611 233.999 145.452C233.821 145.293 233.532 145.167 233.131 145.074L232.039 144.808C231.171 144.603 230.564 144.346 230.219 144.038C229.883 143.721 229.715 143.273 229.715 142.694C229.715 142.013 229.971 141.471 230.485 141.07C230.998 140.659 231.679 140.454 232.529 140.454C233.378 140.454 234.031 140.65 234.489 141.042C234.946 141.434 235.179 141.989 235.189 142.708H233.957C233.929 141.924 233.439 141.532 232.487 141.532C232.011 141.532 231.633 141.635 231.353 141.84C231.073 142.036 230.933 142.302 230.933 142.638C230.933 142.899 231.04 143.114 231.255 143.282C231.469 143.441 231.815 143.576 232.291 143.688L233.411 143.954C234.139 144.131 234.666 144.383 234.993 144.71C235.319 145.027 235.483 145.457 235.483 145.998C235.483 146.707 235.207 147.272 234.657 147.692C234.115 148.112 233.383 148.322 232.459 148.322C230.564 148.322 229.589 147.487 229.533 145.816H230.765ZM242.081 137.794V148H240.905V137.794H242.081ZM243.967 142.834C244.023 141.247 245.003 140.454 246.907 140.454C247.812 140.454 248.498 140.627 248.965 140.972C249.431 141.308 249.665 141.803 249.665 142.456V146.768C249.665 147.151 249.875 147.342 250.295 147.342C250.379 147.342 250.463 147.333 250.547 147.314V148.196C250.22 148.28 249.954 148.322 249.749 148.322C249.375 148.322 249.091 148.233 248.895 148.056C248.708 147.888 248.591 147.617 248.545 147.244C247.761 147.963 246.93 148.322 246.053 148.322C245.315 148.322 244.727 148.126 244.289 147.734C243.859 147.342 243.645 146.815 243.645 146.152C243.645 145.937 243.663 145.741 243.701 145.564C243.747 145.387 243.794 145.233 243.841 145.102C243.897 144.962 243.99 144.836 244.121 144.724C244.251 144.603 244.359 144.505 244.443 144.43C244.536 144.355 244.685 144.285 244.891 144.22C245.105 144.145 245.269 144.094 245.381 144.066C245.493 144.029 245.689 143.987 245.969 143.94C246.249 143.893 246.454 143.861 246.585 143.842C246.715 143.823 246.949 143.791 247.285 143.744C247.742 143.688 248.059 143.599 248.237 143.478C248.414 143.357 248.503 143.175 248.503 142.932V142.624C248.503 142.269 248.358 141.999 248.069 141.812C247.789 141.625 247.387 141.532 246.865 141.532C246.323 141.532 245.913 141.639 245.633 141.854C245.353 142.059 245.189 142.386 245.143 142.834H243.967ZM246.305 147.3C246.949 147.3 247.476 147.132 247.887 146.796C248.297 146.451 248.503 146.082 248.503 145.69V144.374C248.269 144.486 247.915 144.579 247.439 144.654C246.972 144.729 246.566 144.794 246.221 144.85C245.875 144.906 245.563 145.041 245.283 145.256C245.003 145.461 244.863 145.751 244.863 146.124C244.863 146.497 244.989 146.787 245.241 146.992C245.493 147.197 245.847 147.3 246.305 147.3ZM255.193 141.686C254.409 141.705 253.821 141.887 253.429 142.232C253.037 142.577 252.841 143.231 252.841 144.192V148H251.665V140.664H252.743V141.994C253.079 141.443 253.401 141.051 253.709 140.818C254.027 140.575 254.372 140.454 254.745 140.454C254.848 140.454 254.997 140.468 255.193 140.496V141.686ZM258.518 148.322C257.659 148.322 256.941 147.972 256.362 147.272C255.783 146.563 255.494 145.625 255.494 144.458C255.494 143.263 255.779 142.297 256.348 141.56C256.927 140.823 257.683 140.454 258.616 140.454C259.531 140.454 260.277 140.879 260.856 141.728V140.664H261.934V146.796C261.934 147.496 261.892 148.079 261.808 148.546C261.724 149.022 261.57 149.461 261.346 149.862C261.122 150.263 260.786 150.562 260.338 150.758C259.899 150.954 259.339 151.052 258.658 151.052C257.799 151.052 257.113 150.856 256.6 150.464C256.087 150.072 255.797 149.531 255.732 148.84H256.922C257.053 149.661 257.645 150.072 258.7 150.072C259.484 150.072 260.021 149.848 260.31 149.4C260.599 148.961 260.744 148.289 260.744 147.384V147.006C260.417 147.473 260.077 147.809 259.722 148.014C259.377 148.219 258.975 148.322 258.518 148.322ZM258.742 141.532C258.117 141.532 257.622 141.789 257.258 142.302C256.894 142.815 256.712 143.511 256.712 144.388C256.712 145.275 256.894 145.975 257.258 146.488C257.622 146.992 258.121 147.244 258.756 147.244C259.372 147.244 259.857 146.997 260.212 146.502C260.567 145.998 260.744 145.307 260.744 144.43C260.744 143.515 260.567 142.806 260.212 142.302C259.867 141.789 259.377 141.532 258.742 141.532ZM269.912 144.724H264.508C264.518 145.396 264.648 145.919 264.9 146.292C265.302 146.927 265.89 147.244 266.664 147.244C267.616 147.244 268.256 146.754 268.582 145.774H269.758C269.609 146.577 269.259 147.202 268.708 147.65C268.158 148.098 267.462 148.322 266.622 148.322C265.596 148.322 264.784 147.977 264.186 147.286C263.589 146.586 263.29 145.634 263.29 144.43C263.29 143.226 263.594 142.265 264.2 141.546C264.816 140.818 265.633 140.454 266.65 140.454C267.341 140.454 267.948 140.627 268.47 140.972C269.002 141.317 269.385 141.789 269.618 142.386C269.814 142.899 269.912 143.679 269.912 144.724ZM264.536 143.772H268.652C268.662 143.753 268.666 143.725 268.666 143.688C268.666 143.081 268.47 142.573 268.078 142.162C267.686 141.742 267.206 141.532 266.636 141.532C266.048 141.532 265.563 141.737 265.18 142.148C264.798 142.549 264.583 143.091 264.536 143.772ZM272.081 145.816C272.137 146.255 272.286 146.605 272.529 146.866C272.781 147.118 273.229 147.244 273.873 147.244C274.386 147.244 274.797 147.141 275.105 146.936C275.422 146.721 275.581 146.441 275.581 146.096C275.581 145.825 275.492 145.611 275.315 145.452C275.138 145.293 274.848 145.167 274.447 145.074L273.355 144.808C272.487 144.603 271.88 144.346 271.535 144.038C271.199 143.721 271.031 143.273 271.031 142.694C271.031 142.013 271.288 141.471 271.801 141.07C272.314 140.659 272.996 140.454 273.845 140.454C274.694 140.454 275.348 140.65 275.805 141.042C276.262 141.434 276.496 141.989 276.505 142.708H275.273C275.245 141.924 274.755 141.532 273.803 141.532C273.327 141.532 272.949 141.635 272.669 141.84C272.389 142.036 272.249 142.302 272.249 142.638C272.249 142.899 272.356 143.114 272.571 143.282C272.786 143.441 273.131 143.576 273.607 143.688L274.727 143.954C275.455 144.131 275.982 144.383 276.309 144.71C276.636 145.027 276.799 145.457 276.799 145.998C276.799 146.707 276.524 147.272 275.973 147.692C275.432 148.112 274.699 148.322 273.775 148.322C271.88 148.322 270.905 147.487 270.849 145.816H272.081ZM280.656 140.664V141.616H279.452V146.642C279.452 146.903 279.494 147.081 279.578 147.174C279.671 147.258 279.844 147.3 280.096 147.3C280.329 147.3 280.516 147.281 280.656 147.244V148.224C280.292 148.289 279.974 148.322 279.704 148.322C279.246 148.322 278.896 148.219 278.654 148.014C278.411 147.818 278.29 147.533 278.29 147.16V141.616H277.296V140.664H278.29V138.648H279.452V140.664H280.656ZM288.701 140.454C289.755 140.454 290.572 140.804 291.151 141.504C291.739 142.195 292.033 143.175 292.033 144.444C292.033 145.648 291.734 146.595 291.137 147.286C290.549 147.977 289.741 148.322 288.715 148.322C287.669 148.322 286.853 147.977 286.265 147.286C285.686 146.586 285.397 145.62 285.397 144.388C285.397 143.156 285.691 142.195 286.279 141.504C286.867 140.804 287.674 140.454 288.701 140.454ZM288.715 141.532C288.061 141.532 287.548 141.789 287.175 142.302C286.801 142.806 286.615 143.501 286.615 144.388C286.615 145.275 286.801 145.975 287.175 146.488C287.548 146.992 288.061 147.244 288.715 147.244C289.359 147.244 289.867 146.992 290.241 146.488C290.623 145.975 290.815 145.289 290.815 144.43C290.815 143.525 290.628 142.815 290.255 142.302C289.891 141.789 289.377 141.532 288.715 141.532ZM293.378 140.664H294.456V141.896C294.783 141.383 295.133 141.014 295.506 140.79C295.889 140.566 296.351 140.454 296.892 140.454C297.602 140.454 298.166 140.636 298.586 141C299.006 141.364 299.216 141.849 299.216 142.456V148H298.054V142.918C298.054 142.479 297.919 142.129 297.648 141.868C297.378 141.607 297.009 141.476 296.542 141.476C295.945 141.476 295.464 141.705 295.1 142.162C294.736 142.61 294.554 143.207 294.554 143.954V148H293.378V140.664ZM302.306 137.794V148H301.13V137.794H302.306ZM305.381 140.664V148H304.219V140.664H305.381ZM305.381 137.794V139.264H304.205V137.794H305.381ZM307.365 140.664H308.443V141.896C308.769 141.383 309.119 141.014 309.493 140.79C309.875 140.566 310.337 140.454 310.879 140.454C311.588 140.454 312.153 140.636 312.573 141C312.993 141.364 313.203 141.849 313.203 142.456V148H312.041V142.918C312.041 142.479 311.905 142.129 311.635 141.868C311.364 141.607 310.995 141.476 310.529 141.476C309.931 141.476 309.451 141.705 309.087 142.162C308.723 142.61 308.541 143.207 308.541 143.954V148H307.365V140.664ZM321.141 144.724H315.737C315.746 145.396 315.877 145.919 316.129 146.292C316.53 146.927 317.118 147.244 317.893 147.244C318.845 147.244 319.484 146.754 319.811 145.774H320.987C320.838 146.577 320.488 147.202 319.937 147.65C319.386 148.098 318.691 148.322 317.851 148.322C316.824 148.322 316.012 147.977 315.415 147.286C314.818 146.586 314.519 145.634 314.519 144.43C314.519 143.226 314.822 142.265 315.429 141.546C316.045 140.818 316.862 140.454 317.879 140.454C318.57 140.454 319.176 140.627 319.699 140.972C320.231 141.317 320.614 141.789 320.847 142.386C321.043 142.899 321.141 143.679 321.141 144.724ZM315.765 143.772H319.881C319.89 143.753 319.895 143.725 319.895 143.688C319.895 143.081 319.699 142.573 319.307 142.162C318.915 141.742 318.434 141.532 317.865 141.532C317.277 141.532 316.792 141.737 316.409 142.148C316.026 142.549 315.812 143.091 315.765 143.772ZM6.98 157.664H8.058V158.7C8.37533 158.261 8.70667 157.944 9.052 157.748C9.40667 157.552 9.82667 157.454 10.312 157.454C11.2173 157.454 11.8753 157.827 12.286 158.574C12.6313 158.163 12.972 157.874 13.308 157.706C13.644 157.538 14.0547 157.454 14.54 157.454C15.2213 157.454 15.744 157.631 16.108 157.986C16.4813 158.331 16.668 158.835 16.668 159.498V165H15.492V159.946C15.492 159.479 15.3707 159.12 15.128 158.868C14.8947 158.607 14.5633 158.476 14.134 158.476C13.658 158.476 13.252 158.663 12.916 159.036C12.58 159.409 12.412 159.862 12.412 160.394V165H11.236V159.946C11.236 159.479 11.1147 159.12 10.872 158.868C10.6387 158.607 10.3073 158.476 9.878 158.476C9.402 158.476 8.996 158.663 8.66 159.036C8.324 159.409 8.156 159.862 8.156 160.394V165H6.98V157.664ZM18.5721 159.834C18.6281 158.247 19.6081 157.454 21.5121 157.454C22.4174 157.454 23.1034 157.627 23.5701 157.972C24.0368 158.308 24.2701 158.803 24.2701 159.456V163.768C24.2701 164.151 24.4801 164.342 24.9001 164.342C24.9841 164.342 25.0681 164.333 25.1521 164.314V165.196C24.8254 165.28 24.5594 165.322 24.3541 165.322C23.9808 165.322 23.6961 165.233 23.5001 165.056C23.3134 164.888 23.1968 164.617 23.1501 164.244C22.3661 164.963 21.5354 165.322 20.6581 165.322C19.9208 165.322 19.3328 165.126 18.8941 164.734C18.4648 164.342 18.2501 163.815 18.2501 163.152C18.2501 162.937 18.2688 162.741 18.3061 162.564C18.3528 162.387 18.3994 162.233 18.4461 162.102C18.5021 161.962 18.5954 161.836 18.7261 161.724C18.8568 161.603 18.9641 161.505 19.0481 161.43C19.1414 161.355 19.2908 161.285 19.4961 161.22C19.7108 161.145 19.8741 161.094 19.9861 161.066C20.0981 161.029 20.2941 160.987 20.5741 160.94C20.8541 160.893 21.0594 160.861 21.1901 160.842C21.3208 160.823 21.5541 160.791 21.8901 160.744C22.3474 160.688 22.6648 160.599 22.8421 160.478C23.0194 160.357 23.1081 160.175 23.1081 159.932V159.624C23.1081 159.269 22.9634 158.999 22.6741 158.812C22.3941 158.625 21.9928 158.532 21.4701 158.532C20.9288 158.532 20.5181 158.639 20.2381 158.854C19.9581 159.059 19.7948 159.386 19.7481 159.834H18.5721ZM20.9101 164.3C21.5541 164.3 22.0814 164.132 22.4921 163.796C22.9028 163.451 23.1081 163.082 23.1081 162.69V161.374C22.8748 161.486 22.5201 161.579 22.0441 161.654C21.5774 161.729 21.1714 161.794 20.8261 161.85C20.4808 161.906 20.1681 162.041 19.8881 162.256C19.6081 162.461 19.4681 162.751 19.4681 163.124C19.4681 163.497 19.5941 163.787 19.8461 163.992C20.0981 164.197 20.4528 164.3 20.9101 164.3ZM29.7987 158.686C29.0147 158.705 28.4267 158.887 28.0347 159.232C27.6427 159.577 27.4467 160.231 27.4467 161.192V165H26.2707V157.664H27.3487V158.994C27.6847 158.443 28.0067 158.051 28.3147 157.818C28.632 157.575 28.9774 157.454 29.3507 157.454C29.4534 157.454 29.6027 157.468 29.7987 157.496V158.686ZM31.9408 154.794V160.772L35.0488 157.664H36.5468L33.9988 160.198L36.9948 165H35.5528L33.0748 161.024L31.9408 162.144V165H30.7788V154.794H31.9408ZM43.8754 161.724H38.4714C38.4807 162.396 38.6114 162.919 38.8634 163.292C39.2647 163.927 39.8527 164.244 40.6274 164.244C41.5794 164.244 42.2187 163.754 42.5454 162.774H43.7214C43.572 163.577 43.222 164.202 42.6714 164.65C42.1207 165.098 41.4254 165.322 40.5854 165.322C39.5587 165.322 38.7467 164.977 38.1494 164.286C37.552 163.586 37.2534 162.634 37.2534 161.43C37.2534 160.226 37.5567 159.265 38.1634 158.546C38.7794 157.818 39.596 157.454 40.6134 157.454C41.304 157.454 41.9107 157.627 42.4334 157.972C42.9654 158.317 43.348 158.789 43.5814 159.386C43.7774 159.899 43.8754 160.679 43.8754 161.724ZM38.4994 160.772H42.6154C42.6247 160.753 42.6294 160.725 42.6294 160.688C42.6294 160.081 42.4334 159.573 42.0414 159.162C41.6494 158.742 41.1687 158.532 40.5994 158.532C40.0114 158.532 39.526 158.737 39.1434 159.148C38.7607 159.549 38.546 160.091 38.4994 160.772ZM47.8919 157.664V158.616H46.6879V163.642C46.6879 163.903 46.7299 164.081 46.8139 164.174C46.9073 164.258 47.0799 164.3 47.3319 164.3C47.5653 164.3 47.7519 164.281 47.8919 164.244V165.224C47.5279 165.289 47.2106 165.322 46.9399 165.322C46.4826 165.322 46.1326 165.219 45.8899 165.014C45.6473 164.818 45.5259 164.533 45.5259 164.16V158.616H44.5319V157.664H45.5259V155.648H46.6879V157.664H47.8919ZM48.9884 168.052V157.664H50.0664V158.77C50.6171 157.893 51.3964 157.454 52.4044 157.454C53.3751 157.454 54.1404 157.813 54.7004 158.532C55.2698 159.251 55.5544 160.226 55.5544 161.458C55.5544 162.625 55.2651 163.563 54.6864 164.272C54.1171 164.972 53.3611 165.322 52.4184 165.322C51.5131 165.322 50.7618 164.958 50.1644 164.23V168.052H48.9884ZM52.2084 158.546C51.5924 158.546 51.0978 158.807 50.7244 159.33C50.3511 159.843 50.1644 160.529 50.1644 161.388C50.1644 162.247 50.3511 162.937 50.7244 163.46C51.0978 163.973 51.5924 164.23 52.2084 164.23C52.8431 164.23 53.3564 163.973 53.7484 163.46C54.1404 162.937 54.3364 162.261 54.3364 161.43C54.3364 160.553 54.1404 159.853 53.7484 159.33C53.3658 158.807 52.8524 158.546 52.2084 158.546ZM58.1397 154.794V165H56.9637V154.794H58.1397ZM60.0252 159.834C60.0812 158.247 61.0612 157.454 62.9652 157.454C63.8706 157.454 64.5566 157.627 65.0232 157.972C65.4899 158.308 65.7232 158.803 65.7232 159.456V163.768C65.7232 164.151 65.9332 164.342 66.3532 164.342C66.4372 164.342 66.5212 164.333 66.6052 164.314V165.196C66.2786 165.28 66.0126 165.322 65.8072 165.322C65.4339 165.322 65.1492 165.233 64.9532 165.056C64.7666 164.888 64.6499 164.617 64.6032 164.244C63.8192 164.963 62.9886 165.322 62.1112 165.322C61.3739 165.322 60.7859 165.126 60.3472 164.734C59.9179 164.342 59.7032 163.815 59.7032 163.152C59.7032 162.937 59.7219 162.741 59.7592 162.564C59.8059 162.387 59.8526 162.233 59.8992 162.102C59.9552 161.962 60.0486 161.836 60.1792 161.724C60.3099 161.603 60.4172 161.505 60.5012 161.43C60.5946 161.355 60.7439 161.285 60.9492 161.22C61.1639 161.145 61.3272 161.094 61.4392 161.066C61.5512 161.029 61.7472 160.987 62.0272 160.94C62.3072 160.893 62.5126 160.861 62.6432 160.842C62.7739 160.823 63.0072 160.791 63.3432 160.744C63.8006 160.688 64.1179 160.599 64.2952 160.478C64.4726 160.357 64.5612 160.175 64.5612 159.932V159.624C64.5612 159.269 64.4166 158.999 64.1272 158.812C63.8472 158.625 63.4459 158.532 62.9232 158.532C62.3819 158.532 61.9712 158.639 61.6912 158.854C61.4112 159.059 61.2479 159.386 61.2012 159.834H60.0252ZM62.3632 164.3C63.0072 164.3 63.5346 164.132 63.9452 163.796C64.3559 163.451 64.5612 163.082 64.5612 162.69V161.374C64.3279 161.486 63.9732 161.579 63.4972 161.654C63.0306 161.729 62.6246 161.794 62.2792 161.85C61.9339 161.906 61.6212 162.041 61.3412 162.256C61.0612 162.461 60.9212 162.751 60.9212 163.124C60.9212 163.497 61.0472 163.787 61.2992 163.992C61.5512 164.197 61.9059 164.3 62.3632 164.3ZM73.2835 160.128H72.1075C72.0328 159.615 71.8461 159.223 71.5475 158.952C71.2488 158.672 70.8568 158.532 70.3715 158.532C69.7368 158.532 69.2375 158.793 68.8735 159.316C68.5188 159.829 68.3415 160.543 68.3415 161.458C68.3415 162.326 68.5235 163.007 68.8875 163.502C69.2515 163.997 69.7555 164.244 70.3995 164.244C71.3981 164.244 71.9955 163.656 72.1915 162.48H73.3675C73.2928 163.376 72.9941 164.076 72.4715 164.58C71.9488 165.075 71.2488 165.322 70.3715 165.322C69.3728 165.322 68.5795 164.977 67.9915 164.286C67.4128 163.586 67.1235 162.643 67.1235 161.458C67.1235 160.245 67.4175 159.274 68.0055 158.546C68.6028 157.818 69.3961 157.454 70.3855 157.454C71.2348 157.454 71.9115 157.683 72.4155 158.14C72.9288 158.597 73.2181 159.26 73.2835 160.128ZM80.8715 161.724H75.4675C75.4768 162.396 75.6075 162.919 75.8595 163.292C76.2608 163.927 76.8488 164.244 77.6235 164.244C78.5755 164.244 79.2148 163.754 79.5415 162.774H80.7175C80.5681 163.577 80.2181 164.202 79.6675 164.65C79.1168 165.098 78.4215 165.322 77.5815 165.322C76.5548 165.322 75.7428 164.977 75.1455 164.286C74.5481 163.586 74.2495 162.634 74.2495 161.43C74.2495 160.226 74.5528 159.265 75.1595 158.546C75.7755 157.818 76.5921 157.454 77.6095 157.454C78.3001 157.454 78.9068 157.627 79.4295 157.972C79.9615 158.317 80.3441 158.789 80.5775 159.386C80.7735 159.899 80.8715 160.679 80.8715 161.724ZM75.4955 160.772H79.6115C79.6208 160.753 79.6255 160.725 79.6255 160.688C79.6255 160.081 79.4295 159.573 79.0375 159.162C78.6455 158.742 78.1648 158.532 77.5955 158.532C77.0075 158.532 76.5221 158.737 76.1395 159.148C75.7568 159.549 75.5421 160.091 75.4955 160.772ZM86.3452 157.664H87.4232V158.7C87.7406 158.261 88.0719 157.944 88.4172 157.748C88.7719 157.552 89.1919 157.454 89.6772 157.454C90.5826 157.454 91.2406 157.827 91.6512 158.574C91.9966 158.163 92.3372 157.874 92.6732 157.706C93.0092 157.538 93.4199 157.454 93.9052 157.454C94.5866 157.454 95.1092 157.631 95.4732 157.986C95.8466 158.331 96.0332 158.835 96.0332 159.498V165H94.8572V159.946C94.8572 159.479 94.7359 159.12 94.4932 158.868C94.2599 158.607 93.9286 158.476 93.4992 158.476C93.0232 158.476 92.6172 158.663 92.2812 159.036C91.9452 159.409 91.7772 159.862 91.7772 160.394V165H90.6012V159.946C90.6012 159.479 90.4799 159.12 90.2372 158.868C90.0039 158.607 89.6726 158.476 89.2432 158.476C88.7672 158.476 88.3612 158.663 88.0252 159.036C87.6892 159.409 87.5212 159.862 87.5212 160.394V165H86.3452V157.664ZM100.48 157.454C101.535 157.454 102.351 157.804 102.93 158.504C103.518 159.195 103.812 160.175 103.812 161.444C103.812 162.648 103.513 163.595 102.916 164.286C102.328 164.977 101.521 165.322 100.494 165.322C99.4485 165.322 98.6319 164.977 98.0439 164.286C97.4652 163.586 97.1759 162.62 97.1759 161.388C97.1759 160.156 97.4699 159.195 98.0579 158.504C98.6459 157.804 99.4532 157.454 100.48 157.454ZM100.494 158.532C99.8405 158.532 99.3272 158.789 98.9539 159.302C98.5805 159.806 98.3939 160.501 98.3939 161.388C98.3939 162.275 98.5805 162.975 98.9539 163.488C99.3272 163.992 99.8405 164.244 100.494 164.244C101.138 164.244 101.647 163.992 102.02 163.488C102.403 162.975 102.594 162.289 102.594 161.43C102.594 160.525 102.407 159.815 102.034 159.302C101.67 158.789 101.157 158.532 100.494 158.532ZM108.808 158.686C108.024 158.705 107.436 158.887 107.044 159.232C106.652 159.577 106.456 160.231 106.456 161.192V165H105.28V157.664H106.358V158.994C106.694 158.443 107.016 158.051 107.324 157.818C107.642 157.575 107.987 157.454 108.36 157.454C108.463 157.454 108.612 157.468 108.808 157.496V158.686ZM115.885 161.724H110.481C110.49 162.396 110.621 162.919 110.873 163.292C111.274 163.927 111.862 164.244 112.637 164.244C113.589 164.244 114.228 163.754 114.555 162.774H115.731C115.582 163.577 115.232 164.202 114.681 164.65C114.13 165.098 113.435 165.322 112.595 165.322C111.568 165.322 110.756 164.977 110.159 164.286C109.562 163.586 109.263 162.634 109.263 161.43C109.263 160.226 109.566 159.265 110.173 158.546C110.789 157.818 111.606 157.454 112.623 157.454C113.314 157.454 113.92 157.627 114.443 157.972C114.975 158.317 115.358 158.789 115.591 159.386C115.787 159.899 115.885 160.679 115.885 161.724ZM110.509 160.772H114.625C114.634 160.753 114.639 160.725 114.639 160.688C114.639 160.081 114.443 159.573 114.051 159.162C113.659 158.742 113.178 158.532 112.609 158.532C112.021 158.532 111.536 158.737 111.153 159.148C110.77 159.549 110.556 160.091 110.509 160.772ZM121.135 168.052V157.664H122.213V158.77C122.764 157.893 123.543 157.454 124.551 157.454C125.522 157.454 126.287 157.813 126.847 158.532C127.416 159.251 127.701 160.226 127.701 161.458C127.701 162.625 127.412 163.563 126.833 164.272C126.264 164.972 125.508 165.322 124.565 165.322C123.66 165.322 122.908 164.958 122.311 164.23V168.052H121.135ZM124.355 158.546C123.739 158.546 123.244 158.807 122.871 159.33C122.498 159.843 122.311 160.529 122.311 161.388C122.311 162.247 122.498 162.937 122.871 163.46C123.244 163.973 123.739 164.23 124.355 164.23C124.99 164.23 125.503 163.973 125.895 163.46C126.287 162.937 126.483 162.261 126.483 161.43C126.483 160.553 126.287 159.853 125.895 159.33C125.512 158.807 124.999 158.546 124.355 158.546ZM132.515 158.686C131.731 158.705 131.143 158.887 130.751 159.232C130.359 159.577 130.163 160.231 130.163 161.192V165H128.987V157.664H130.065V158.994C130.401 158.443 130.723 158.051 131.031 157.818C131.349 157.575 131.694 157.454 132.067 157.454C132.17 157.454 132.319 157.468 132.515 157.496V158.686ZM136.287 157.454C137.341 157.454 138.158 157.804 138.737 158.504C139.325 159.195 139.619 160.175 139.619 161.444C139.619 162.648 139.32 163.595 138.723 164.286C138.135 164.977 137.327 165.322 136.301 165.322C135.255 165.322 134.439 164.977 133.851 164.286C133.272 163.586 132.983 162.62 132.983 161.388C132.983 160.156 133.277 159.195 133.865 158.504C134.453 157.804 135.26 157.454 136.287 157.454ZM136.301 158.532C135.647 158.532 135.134 158.789 134.761 159.302C134.387 159.806 134.201 160.501 134.201 161.388C134.201 162.275 134.387 162.975 134.761 163.488C135.134 163.992 135.647 164.244 136.301 164.244C136.945 164.244 137.453 163.992 137.827 163.488C138.209 162.975 138.401 162.289 138.401 161.43C138.401 160.525 138.214 159.815 137.841 159.302C137.477 158.789 136.963 158.532 136.301 158.532ZM147.188 154.794V165H146.152V164.034C145.834 164.491 145.489 164.818 145.116 165.014C144.752 165.219 144.318 165.322 143.814 165.322C142.824 165.322 142.045 164.967 141.476 164.258C140.906 163.539 140.622 162.559 140.622 161.318C140.622 160.151 140.906 159.218 141.476 158.518C142.054 157.809 142.82 157.454 143.772 157.454C144.78 157.454 145.531 157.832 146.026 158.588V154.794H147.188ZM143.968 158.546C143.333 158.546 142.82 158.807 142.428 159.33C142.036 159.853 141.84 160.539 141.84 161.388C141.84 162.247 142.036 162.937 142.428 163.46C142.82 163.973 143.338 164.23 143.982 164.23C144.598 164.23 145.092 163.973 145.466 163.46C145.839 162.947 146.026 162.265 146.026 161.416C146.026 160.539 145.839 159.843 145.466 159.33C145.092 158.807 144.593 158.546 143.968 158.546ZM154.58 165H153.53V163.978C153.185 164.463 152.825 164.809 152.452 165.014C152.079 165.219 151.621 165.322 151.08 165.322C150.371 165.322 149.801 165.14 149.372 164.776C148.952 164.412 148.742 163.927 148.742 163.32V157.664H149.904V162.858C149.904 163.297 150.039 163.647 150.31 163.908C150.581 164.169 150.949 164.3 151.416 164.3C152.023 164.3 152.508 164.076 152.872 163.628C153.236 163.171 153.418 162.569 153.418 161.822V157.664H154.58V165ZM162.069 160.128H160.893C160.818 159.615 160.631 159.223 160.333 158.952C160.034 158.672 159.642 158.532 159.157 158.532C158.522 158.532 158.023 158.793 157.659 159.316C157.304 159.829 157.127 160.543 157.127 161.458C157.127 162.326 157.309 163.007 157.673 163.502C158.037 163.997 158.541 164.244 159.185 164.244C160.183 164.244 160.781 163.656 160.977 162.48H162.153C162.078 163.376 161.779 164.076 161.257 164.58C160.734 165.075 160.034 165.322 159.157 165.322C158.158 165.322 157.365 164.977 156.777 164.286C156.198 163.586 155.909 162.643 155.909 161.458C155.909 160.245 156.203 159.274 156.791 158.546C157.388 157.818 158.181 157.454 159.171 157.454C160.02 157.454 160.697 157.683 161.201 158.14C161.714 158.597 162.003 159.26 162.069 160.128ZM166.031 157.664V158.616H164.827V163.642C164.827 163.903 164.869 164.081 164.953 164.174C165.046 164.258 165.219 164.3 165.471 164.3C165.704 164.3 165.891 164.281 166.031 164.244V165.224C165.667 165.289 165.349 165.322 165.079 165.322C164.621 165.322 164.271 165.219 164.029 165.014C163.786 164.818 163.665 164.533 163.665 164.16V158.616H162.671V157.664H163.665V155.648H164.827V157.664H166.031ZM168.471 157.664V165H167.309V157.664H168.471ZM168.471 154.794V156.264H167.295V154.794H168.471ZM173.465 165H172.191L169.615 157.664H170.931L172.891 163.614L174.963 157.664H176.279L173.465 165ZM183.383 161.724H177.979C177.989 162.396 178.119 162.919 178.371 163.292C178.773 163.927 179.361 164.244 180.135 164.244C181.087 164.244 181.727 163.754 182.053 162.774H183.229C183.08 163.577 182.73 164.202 182.179 164.65C181.629 165.098 180.933 165.322 180.093 165.322C179.067 165.322 178.255 164.977 177.657 164.286C177.06 163.586 176.761 162.634 176.761 161.43C176.761 160.226 177.065 159.265 177.671 158.546C178.287 157.818 179.104 157.454 180.121 157.454C180.812 157.454 181.419 157.627 181.941 157.972C182.473 158.317 182.856 158.789 183.089 159.386C183.285 159.899 183.383 160.679 183.383 161.724ZM178.007 160.772H182.123C182.133 160.753 182.137 160.725 182.137 160.688C182.137 160.081 181.941 159.573 181.549 159.162C181.157 158.742 180.677 158.532 180.107 158.532C179.519 158.532 179.034 158.737 178.651 159.148C178.269 159.549 178.054 160.091 178.007 160.772ZM191.106 157.314C191.106 157.743 191.018 158.131 190.84 158.476C190.672 158.821 190.467 159.111 190.224 159.344C189.982 159.568 189.734 159.787 189.482 160.002C189.24 160.207 189.03 160.445 188.852 160.716C188.684 160.977 188.6 161.257 188.6 161.556V162.214H187.34V161.444C187.34 161.099 187.424 160.772 187.592 160.464C187.77 160.156 187.98 159.89 188.222 159.666C188.474 159.442 188.722 159.218 188.964 158.994C189.207 158.77 189.412 158.518 189.58 158.238C189.758 157.949 189.846 157.641 189.846 157.314C189.846 156.838 189.683 156.455 189.356 156.166C189.03 155.867 188.596 155.718 188.054 155.718C187.373 155.718 186.902 155.909 186.64 156.292C186.379 156.675 186.248 157.211 186.248 157.902H185.058C185.058 156.829 185.315 156.017 185.828 155.466C186.351 154.906 187.116 154.626 188.124 154.626C189.03 154.626 189.753 154.869 190.294 155.354C190.836 155.839 191.106 156.493 191.106 157.314ZM188.6 163.544V165H187.34V163.544H188.6Z" fill="white"/>
<defs>
<linearGradient id="paint0_linear" x1="667.046" y1="0.000281034" x2="-795.762" y2="236.937" gradientUnits="userSpaceOnUse">
<stop stop-color="#FF007A"/>
<stop offset="1" stop-color="#FF0000"/>
</linearGradient>
</defs>
</svg>
