<svg width="596" height="128" viewBox="0 0 596 128" fill="none" xmlns="http://www.w3.org/2000/svg">
<path d="M11.72 117.58V127H7.22V105.13H22.58V108.88H11.72V113.83H21.29V117.58H11.72Z" fill="white"/>
<path d="M35.9687 122.59H27.7787L26.3087 127H21.7187L29.4887 105.13H34.4687L42.0287 127H37.4087L35.9687 122.59ZM34.7387 118.84L31.8887 110.29L29.0387 118.84H34.7387Z" fill="white"/>
<path d="M56.3579 112.54C55.7979 109.92 54.2379 108.61 51.6779 108.61C49.8979 108.61 48.5079 109.29 47.5079 110.65C46.5079 112.01 46.0079 113.9 46.0079 116.32C46.0079 118.7 46.4879 120.56 47.4479 121.9C48.4279 123.24 49.7879 123.91 51.5279 123.91C52.9279 123.91 54.0479 123.53 54.8879 122.77C55.7279 122.01 56.2179 120.93 56.3579 119.53H60.7379C60.5979 122.03 59.6879 124.02 58.0079 125.5C56.3279 126.96 54.1279 127.69 51.4079 127.69C48.3679 127.69 45.9579 126.67 44.1779 124.63C42.3979 122.57 41.5079 119.78 41.5079 116.26C41.5079 112.72 42.4079 109.92 44.2079 107.86C46.0079 105.8 48.4479 104.77 51.5279 104.77C54.1079 104.77 56.2179 105.46 57.8579 106.84C59.5179 108.22 60.4479 110.12 60.6479 112.54H56.3579Z" fill="white"/>
<path d="M66.1606 117.58V123.25H78.0106V127H61.6606V105.13H77.4706V108.88H66.1606V113.83H76.6306V117.58H66.1606Z" fill="white"/>
<path d="M98.0804 120.7C98.0804 121.42 97.9604 122.12 97.7204 122.8C97.4804 123.48 97.0904 124.15 96.5504 124.81C96.0304 125.47 95.2404 126 94.1804 126.4C93.1204 126.8 91.8604 127 90.4004 127H80.5604V105.13H90.3104C91.6704 105.13 92.8404 105.33 93.8204 105.73C94.8204 106.13 95.5604 106.65 96.0404 107.29C96.5404 107.91 96.9004 108.52 97.1204 109.12C97.3404 109.72 97.4504 110.31 97.4504 110.89C97.4504 111.83 97.2204 112.64 96.7604 113.32C96.3004 114 95.5304 114.69 94.4504 115.39C96.8704 116.81 98.0804 118.58 98.0804 120.7ZM85.0604 108.88V113.83H89.9504C92.0704 113.83 93.1304 113.01 93.1304 111.37C93.1304 109.71 92.0704 108.88 89.9504 108.88H85.0604ZM85.0604 117.58V123.25H90.4304C92.6504 123.25 93.7604 122.31 93.7604 120.43C93.7604 118.53 92.6504 117.58 90.4304 117.58H85.0604Z" fill="white"/>
<path d="M101.723 124.48C99.8026 122.34 98.8426 119.59 98.8426 116.23C98.8426 112.87 99.8026 110.12 101.723 107.98C103.663 105.84 106.203 104.77 109.343 104.77C112.503 104.77 115.053 105.84 116.993 107.98C118.933 110.1 119.903 112.9 119.903 116.38C119.903 119.62 118.943 122.32 117.023 124.48C115.123 126.62 112.573 127.69 109.373 127.69C106.193 127.69 103.643 126.62 101.723 124.48ZM109.373 108.61C107.553 108.61 106.093 109.31 104.993 110.71C103.893 112.09 103.343 113.93 103.343 116.23C103.343 118.53 103.893 120.38 104.993 121.78C106.093 123.16 107.553 123.85 109.373 123.85C111.173 123.85 112.623 123.16 113.723 121.78C114.843 120.4 115.403 118.59 115.403 116.35C115.403 113.99 114.853 112.11 113.753 110.71C112.673 109.31 111.213 108.61 109.373 108.61Z" fill="white"/>
<path d="M123.872 124.48C121.952 122.34 120.992 119.59 120.992 116.23C120.992 112.87 121.952 110.12 123.872 107.98C125.812 105.84 128.352 104.77 131.492 104.77C134.652 104.77 137.202 105.84 139.142 107.98C141.082 110.1 142.052 112.9 142.052 116.38C142.052 119.62 141.092 122.32 139.172 124.48C137.272 126.62 134.722 127.69 131.522 127.69C128.342 127.69 125.792 126.62 123.872 124.48ZM131.522 108.61C129.702 108.61 128.242 109.31 127.142 110.71C126.042 112.09 125.492 113.93 125.492 116.23C125.492 118.53 126.042 120.38 127.142 121.78C128.242 123.16 129.702 123.85 131.522 123.85C133.322 123.85 134.772 123.16 135.872 121.78C136.992 120.4 137.552 118.59 137.552 116.35C137.552 113.99 137.002 112.11 135.902 110.71C134.822 109.31 133.362 108.61 131.522 108.61Z" fill="white"/>
<path d="M147.461 119.68V127H142.961V105.13H147.461V114.73L156.011 105.13H161.321L152.591 114.55L162.251 127H156.881L149.711 117.34L147.461 119.68Z" fill="white"/>
<path d="M184.511 112.54C183.951 109.92 182.391 108.61 179.831 108.61C178.051 108.61 176.661 109.29 175.661 110.65C174.661 112.01 174.161 113.9 174.161 116.32C174.161 118.7 174.641 120.56 175.601 121.9C176.581 123.24 177.941 123.91 179.681 123.91C181.081 123.91 182.201 123.53 183.041 122.77C183.881 122.01 184.371 120.93 184.511 119.53H188.891C188.751 122.03 187.841 124.02 186.161 125.5C184.481 126.96 182.281 127.69 179.561 127.69C176.521 127.69 174.111 126.67 172.331 124.63C170.551 122.57 169.661 119.78 169.661 116.26C169.661 112.72 170.561 109.92 172.361 107.86C174.161 105.8 176.601 104.77 179.681 104.77C182.261 104.77 184.371 105.46 186.011 106.84C187.671 108.22 188.601 110.12 188.801 112.54H184.511Z" fill="white"/>
<path d="M192.285 124.48C190.365 122.34 189.405 119.59 189.405 116.23C189.405 112.87 190.365 110.12 192.285 107.98C194.225 105.84 196.765 104.77 199.905 104.77C203.065 104.77 205.615 105.84 207.555 107.98C209.495 110.1 210.465 112.9 210.465 116.38C210.465 119.62 209.505 122.32 207.585 124.48C205.685 126.62 203.135 127.69 199.935 127.69C196.755 127.69 194.205 126.62 192.285 124.48ZM199.935 108.61C198.115 108.61 196.655 109.31 195.555 110.71C194.455 112.09 193.905 113.93 193.905 116.23C193.905 118.53 194.455 120.38 195.555 121.78C196.655 123.16 198.115 123.85 199.935 123.85C201.735 123.85 203.185 123.16 204.285 121.78C205.405 120.4 205.965 118.59 205.965 116.35C205.965 113.99 205.415 112.11 204.315 110.71C203.235 109.31 201.775 108.61 199.935 108.61Z" fill="white"/>
<path d="M224.776 127L215.986 111.88V127H211.486V105.13H216.106L224.776 120.01V105.13H229.276V127H224.776Z" fill="white"/>
<path d="M245.481 112.54C244.921 109.92 243.361 108.61 240.801 108.61C239.021 108.61 237.631 109.29 236.631 110.65C235.631 112.01 235.131 113.9 235.131 116.32C235.131 118.7 235.611 120.56 236.571 121.9C237.551 123.24 238.911 123.91 240.651 123.91C242.051 123.91 243.171 123.53 244.011 122.77C244.851 122.01 245.341 120.93 245.481 119.53H249.861C249.721 122.03 248.811 124.02 247.131 125.5C245.451 126.96 243.251 127.69 240.531 127.69C237.491 127.69 235.081 126.67 233.301 124.63C231.521 122.57 230.631 119.78 230.631 116.26C230.631 112.72 231.531 109.92 233.331 107.86C235.131 105.8 237.571 104.77 240.651 104.77C243.231 104.77 245.341 105.46 246.981 106.84C248.641 108.22 249.571 110.12 249.771 112.54H245.481Z" fill="white"/>
<path d="M255.284 117.58V123.25H267.134V127H250.784V105.13H266.594V108.88H255.284V113.83H265.754V117.58H255.284Z" fill="white"/>
<path d="M274.003 119.2V127H269.503V105.13H279.163C281.443 105.13 283.183 105.71 284.383 106.87C285.603 108.03 286.213 109.71 286.213 111.91C286.213 114.13 285.613 115.9 284.413 117.22C283.213 118.54 281.613 119.2 279.613 119.2H274.003ZM274.003 115.45H278.203C280.543 115.45 281.713 114.36 281.713 112.18C281.713 111.06 281.423 110.23 280.843 109.69C280.283 109.15 279.403 108.88 278.203 108.88H274.003V115.45Z" fill="white"/>
<path d="M296.675 108.88V127H292.175V108.88H285.545V105.13H303.065V108.88H296.675Z" fill="white"/>
<path d="M324.204 123.25C324.204 122.65 324.214 122.18 324.234 121.84C324.254 121.5 324.264 121.2 324.264 120.94C324.264 120.02 324.044 119.36 323.604 118.96C323.164 118.54 322.454 118.33 321.474 118.33H316.314V127H311.814V105.13H323.544C324.664 105.13 325.624 105.32 326.424 105.7C327.244 106.08 327.854 106.58 328.254 107.2C328.674 107.82 328.974 108.45 329.154 109.09C329.334 109.71 329.424 110.36 329.424 111.04C329.424 113.68 328.194 115.48 325.734 116.44C326.274 116.66 326.674 116.84 326.934 116.98C327.194 117.1 327.454 117.31 327.714 117.61C327.994 117.91 328.174 118.18 328.254 118.42C328.354 118.66 328.444 119.1 328.524 119.74C328.624 120.38 328.684 121.01 328.704 121.63C328.724 122.25 328.744 123.17 328.764 124.39C328.764 125.23 329.084 125.83 329.724 126.19V127H324.894C324.614 126.48 324.424 125.98 324.324 125.5C324.244 125.02 324.204 124.27 324.204 123.25ZM324.924 111.67C324.924 110.55 324.664 109.81 324.144 109.45C323.624 109.07 322.824 108.88 321.744 108.88H316.314V114.58H321.744C322.804 114.58 323.594 114.39 324.114 114.01C324.654 113.63 324.924 112.85 324.924 111.67Z" fill="white"/>
<path d="M335.534 117.58V123.25H347.384V127H331.034V105.13H346.844V108.88H335.534V113.83H346.004V117.58H335.534Z" fill="white"/>
<path d="M349.783 127V105.13H358.333C360.013 105.13 361.393 105.33 362.473 105.73C363.573 106.13 364.493 106.77 365.233 107.65C367.013 109.77 367.903 112.57 367.903 116.05C367.903 119.57 367.013 122.37 365.233 124.45C363.813 126.15 361.513 127 358.333 127H349.783ZM354.283 123.25H358.333C361.713 123.25 363.403 120.86 363.403 116.08C363.403 111.28 361.713 108.88 358.333 108.88H354.283V123.25Z" fill="white"/>
<path d="M373.446 117.58V123.25H385.296V127H368.946V105.13H384.756V108.88H373.446V113.83H383.916V117.58H373.446Z" fill="white"/>
<path d="M402.102 111.79H397.902C397.742 109.51 396.212 108.37 393.312 108.37C392.152 108.37 391.232 108.62 390.552 109.12C389.872 109.6 389.532 110.25 389.532 111.07C389.532 111.87 389.822 112.47 390.402 112.87C390.982 113.25 392.072 113.6 393.672 113.92L397.092 114.58C399.112 114.98 400.582 115.66 401.502 116.62C402.422 117.56 402.882 118.89 402.882 120.61C402.882 122.83 402.092 124.57 400.512 125.83C398.932 127.07 396.732 127.69 393.912 127.69C391.112 127.69 388.932 127.07 387.372 125.83C385.832 124.59 384.992 122.8 384.852 120.46H389.232C389.312 121.64 389.772 122.54 390.612 123.16C391.452 123.78 392.632 124.09 394.152 124.09C395.512 124.09 396.582 123.83 397.362 123.31C398.162 122.79 398.562 122.07 398.562 121.15C398.562 120.27 398.252 119.59 397.632 119.11C397.012 118.63 395.952 118.25 394.452 117.97L391.392 117.37C389.172 116.95 387.592 116.29 386.652 115.39C385.712 114.49 385.242 113.19 385.242 111.49C385.242 109.35 385.962 107.7 387.402 106.54C388.862 105.36 390.902 104.77 393.522 104.77C394.282 104.77 395.012 104.82 395.712 104.92C396.432 105.02 397.192 105.23 397.992 105.55C398.792 105.85 399.482 106.25 400.062 106.75C400.642 107.23 401.122 107.91 401.502 108.79C401.902 109.65 402.102 110.65 402.102 111.79Z" fill="white"/>
<path d="M408.506 105.13V127H404.006V105.13H408.506Z" fill="white"/>
<path d="M425.018 112.06C424.218 109.72 422.478 108.55 419.798 108.55C417.898 108.55 416.398 109.22 415.298 110.56C414.218 111.9 413.678 113.75 413.678 116.11C413.678 118.35 414.258 120.19 415.418 121.63C416.598 123.07 418.098 123.79 419.918 123.79C420.198 123.79 420.518 123.76 420.878 123.7C421.258 123.62 421.708 123.48 422.228 123.28C422.748 123.06 423.228 122.78 423.668 122.44C424.108 122.1 424.498 121.63 424.838 121.03C425.178 120.41 425.388 119.71 425.468 118.93H420.488V115.18H429.248V127H426.548L426.008 124.12C425.168 125.34 424.228 126.23 423.188 126.79C422.148 127.35 420.888 127.63 419.408 127.63C416.448 127.63 413.998 126.55 412.058 124.39C410.138 122.23 409.178 119.49 409.178 116.17C409.178 112.77 410.158 110.01 412.118 107.89C414.078 105.77 416.628 104.71 419.768 104.71C422.408 104.71 424.578 105.37 426.278 106.69C427.978 108.01 428.968 109.8 429.248 112.06H425.018Z" fill="white"/>
<path d="M444.196 127L435.406 111.88V127H430.906V105.13H435.526L444.196 120.01V105.13H448.696V127H444.196Z" fill="white"/>
<path d="M53.9 27.8C52.0333 19.0667 46.8333 14.7 38.3 14.7C32.3667 14.7 27.7333 16.9667 24.4 21.5C21.0667 26.0333 19.4 32.3333 19.4 40.4C19.4 48.3333 21 54.5333 24.2 59C27.4667 63.4667 32 65.7 37.8 65.7C42.4667 65.7 46.2 64.4333 49 61.9C51.8 59.3667 53.4333 55.7667 53.9 51.1H68.5C68.0333 59.4333 65 66.0667 59.4 71C53.8 75.8667 46.4667 78.3 37.4 78.3C27.2667 78.3 19.2333 74.9 13.3 68.1C7.36667 61.2333 4.4 51.9333 4.4 40.2C4.4 28.4 7.4 19.0667 13.4 12.2C19.4 5.33333 27.5333 1.89999 37.8 1.89999C46.4 1.89999 53.4333 4.19999 58.9 8.79999C64.4333 13.4 67.5333 19.7333 68.2 27.8H53.9ZM112.768 61.3H85.468L80.568 76H65.268L91.168 3.1H107.768L132.968 76H117.568L112.768 61.3ZM108.668 48.8L99.168 20.3L89.668 48.8H108.668ZM188.509 25.3H174.509C173.975 17.7 168.875 13.9 159.209 13.9C155.342 13.9 152.275 14.7333 150.009 16.4C147.742 18 146.609 20.1667 146.609 22.9C146.609 25.5667 147.575 27.5667 149.509 28.9C151.442 30.1667 155.075 31.3333 160.409 32.4L171.809 34.6C178.542 35.9333 183.442 38.2 186.509 41.4C189.575 44.5333 191.109 48.9667 191.109 54.7C191.109 62.1 188.475 67.9 183.209 72.1C177.942 76.2333 170.609 78.3 161.209 78.3C151.875 78.3 144.609 76.2333 139.409 72.1C134.275 67.9667 131.475 62 131.009 54.2H145.609C145.875 58.1333 147.409 61.1333 150.209 63.2C153.009 65.2667 156.942 66.3 162.009 66.3C166.542 66.3 170.109 65.4333 172.709 63.7C175.375 61.9667 176.709 59.5667 176.709 56.5C176.709 53.5667 175.675 51.3 173.609 49.7C171.542 48.1 168.009 46.8333 163.009 45.9L152.809 43.9C145.409 42.5 140.142 40.3 137.009 37.3C133.875 34.3 132.309 29.9667 132.309 24.3C132.309 17.1667 134.709 11.6667 139.509 7.8C144.375 3.86666 151.175 1.89999 159.909 1.89999C162.442 1.89999 164.875 2.06666 167.209 2.39999C169.609 2.73333 172.142 3.43333 174.809 4.5C177.475 5.5 179.775 6.83333 181.709 8.5C183.642 10.1 185.242 12.3667 186.509 15.3C187.842 18.1667 188.509 21.5 188.509 25.3ZM209.892 44.6V63.5H249.392V76H194.892V3.1H247.592V15.6H209.892V32.1H244.792V44.6H209.892ZM334.223 25.3H320.223C319.69 17.7 314.59 13.9 304.923 13.9C301.057 13.9 297.99 14.7333 295.723 16.4C293.457 18 292.323 20.1667 292.323 22.9C292.323 25.5667 293.29 27.5667 295.223 28.9C297.157 30.1667 300.79 31.3333 306.123 32.4L317.523 34.6C324.257 35.9333 329.157 38.2 332.223 41.4C335.29 44.5333 336.823 48.9667 336.823 54.7C336.823 62.1 334.19 67.9 328.923 72.1C323.657 76.2333 316.323 78.3 306.923 78.3C297.59 78.3 290.323 76.2333 285.123 72.1C279.99 67.9667 277.19 62 276.723 54.2H291.323C291.59 58.1333 293.123 61.1333 295.923 63.2C298.723 65.2667 302.657 66.3 307.723 66.3C312.257 66.3 315.823 65.4333 318.423 63.7C321.09 61.9667 322.423 59.5667 322.423 56.5C322.423 53.5667 321.39 51.3 319.323 49.7C317.257 48.1 313.723 46.8333 308.723 45.9L298.523 43.9C291.123 42.5 285.857 40.3 282.723 37.3C279.59 34.3 278.023 29.9667 278.023 24.3C278.023 17.1667 280.423 11.6667 285.223 7.8C290.09 3.86666 296.89 1.89999 305.623 1.89999C308.157 1.89999 310.59 2.06666 312.923 2.39999C315.323 2.73333 317.857 3.43333 320.523 4.5C323.19 5.5 325.49 6.83333 327.423 8.5C329.357 10.1 330.957 12.3667 332.223 15.3C333.557 18.1667 334.223 21.5 334.223 25.3ZM373.723 15.6V76H358.723V15.6H336.623V3.1H395.023V15.6H373.723ZM436.055 77.6C433.589 78.0667 431.022 78.3 428.355 78.3C425.689 78.3 423.089 78.0667 420.555 77.6C418.089 77.1333 415.522 76.3 412.855 75.1C410.255 73.9 407.989 72.3667 406.055 70.5C404.122 68.6333 402.522 66.1667 401.255 63.1C400.055 59.9667 399.455 56.4333 399.455 52.5V3.1H414.455V52.5C414.455 61.1667 419.089 65.5 428.355 65.5C437.622 65.5 442.255 61.1667 442.255 52.5V3.1H457.255V52.5C457.255 56.4333 456.622 59.9667 455.355 63.1C454.155 66.1667 452.589 68.6333 450.655 70.5C448.722 72.3667 446.422 73.9 443.755 75.1C441.155 76.3 438.589 77.1333 436.055 77.6ZM463.223 76V3.1H491.723C497.323 3.1 501.923 3.76666 505.523 5.09999C509.19 6.43333 512.257 8.56666 514.723 11.5C520.657 18.5667 523.623 27.9 523.623 39.5C523.623 51.2333 520.657 60.5667 514.723 67.5C509.99 73.1667 502.323 76 491.723 76H463.223ZM478.223 63.5H491.723C502.99 63.5 508.623 55.5333 508.623 39.6C508.623 23.6 502.99 15.6 491.723 15.6H478.223V63.5ZM558.091 49V76H543.091V49L518.891 3.1H535.591L550.491 35.3L564.391 3.1H581.191L558.091 49Z" fill="url(#paint0_linear)"/>
<defs>
<linearGradient id="paint0_linear" x1="667.046" y1="0.000349163" x2="-809.052" y2="192.438" gradientUnits="userSpaceOnUse">
<stop stop-color="#FF007A"/>
<stop offset="1" stop-color="#FF0000"/>
</linearGradient>
</defs>
</svg>
