<svg width="721" height="137" viewBox="0 0 721 137" fill="none" xmlns="http://www.w3.org/2000/svg">
<path d="M24.95 13.9C24.0167 9.53333 21.4167 7.35 17.15 7.35C14.1833 7.35 11.8667 8.48333 10.2 10.75C8.53333 13.0167 7.7 16.1667 7.7 20.2C7.7 24.1667 8.5 27.2667 10.1 29.5C11.7333 31.7333 14 32.85 16.9 32.85C19.2333 32.85 21.1 32.2167 22.5 30.95C23.9 29.6833 24.7167 27.8833 24.95 25.55H32.25C32.0167 29.7167 30.5 33.0333 27.7 35.5C24.9 37.9333 21.2333 39.15 16.7 39.15C11.6333 39.15 7.61667 37.45 4.65 34.05C1.68333 30.6167 0.2 25.9667 0.2 20.1C0.2 14.2 1.7 9.53333 4.7 6.1C7.7 2.66666 11.7667 0.949997 16.9 0.949997C21.2 0.949997 24.7167 2.1 27.45 4.4C30.2167 6.7 31.7667 9.86666 32.1 13.9H24.95ZM56.734 31.75C56.734 30.75 56.7507 29.9667 56.784 29.4C56.8173 28.8333 56.834 28.3333 56.834 27.9C56.834 26.3667 56.4673 25.2667 55.734 24.6C55.0007 23.9 53.8173 23.55 52.184 23.55H43.584V38H36.084V1.55H55.634C57.5007 1.55 59.1007 1.86666 60.434 2.5C61.8007 3.13333 62.8173 3.96666 63.484 5C64.184 6.03333 64.684 7.08333 64.984 8.15C65.284 9.18333 65.434 10.2667 65.434 11.4C65.434 15.8 63.384 18.8 59.284 20.4C60.184 20.7667 60.8507 21.0667 61.284 21.3C61.7173 21.5 62.1507 21.85 62.584 22.35C63.0507 22.85 63.3507 23.3 63.484 23.7C63.6507 24.1 63.8007 24.8333 63.934 25.9C64.1007 26.9667 64.2007 28.0167 64.234 29.05C64.2673 30.0833 64.3007 31.6167 64.334 33.65C64.334 35.05 64.8673 36.05 65.934 36.65V38H57.884C57.4173 37.1333 57.1007 36.3 56.934 35.5C56.8007 34.7 56.734 33.45 56.734 31.75ZM57.934 12.45C57.934 10.5833 57.5007 9.35 56.634 8.75C55.7673 8.11666 54.434 7.8 52.634 7.8H43.584V17.3H52.634C54.4007 17.3 55.7173 16.9833 56.584 16.35C57.484 15.7167 57.934 14.4167 57.934 12.45ZM75.616 22.3V31.75H95.366V38H68.116V1.55H94.466V7.8H75.616V16.05H93.066V22.3H75.616ZM119.052 30.65H105.402L102.952 38H95.302L108.252 1.55H116.552L129.152 38H121.452L119.052 30.65ZM117.002 24.4L112.252 10.15L107.502 24.4H117.002ZM145.334 7.8V38H137.834V7.8H126.784V1.55H155.984V7.8H145.334ZM164.324 1.55V38H156.824V1.55H164.324ZM189.138 38L174.488 12.8V38H166.988V1.55H174.688L189.138 26.35V1.55H196.638V38H189.138ZM225.195 13.1C223.862 9.2 220.962 7.25 216.495 7.25C213.329 7.25 210.829 8.36667 208.995 10.6C207.195 12.8333 206.295 15.9167 206.295 19.85C206.295 23.5833 207.262 26.65 209.195 29.05C211.162 31.45 213.662 32.65 216.695 32.65C217.162 32.65 217.695 32.6 218.295 32.5C218.929 32.3667 219.679 32.1333 220.545 31.8C221.412 31.4333 222.212 30.9667 222.945 30.4C223.679 29.8333 224.329 29.05 224.895 28.05C225.462 27.0167 225.812 25.85 225.945 24.55H217.645V18.3H232.245V38H227.745L226.845 33.2C225.445 35.2333 223.879 36.7167 222.145 37.65C220.412 38.5833 218.312 39.05 215.845 39.05C210.912 39.05 206.829 37.25 203.595 33.65C200.395 30.05 198.795 25.4833 198.795 19.95C198.795 14.2833 200.429 9.68333 203.695 6.15C206.962 2.61667 211.212 0.849998 216.445 0.849998C220.845 0.849998 224.462 1.95 227.295 4.15C230.129 6.35 231.779 9.33333 232.245 13.1H225.195ZM265.377 38H259.027L246.727 1.55H254.277L262.377 29L270.327 1.55H277.877L265.377 38ZM285.525 1.55V38H278.025V1.55H285.525ZM315.383 12.65H308.383C308.117 8.85 305.567 6.95 300.733 6.95C298.8 6.95 297.267 7.36666 296.133 8.2C295 9 294.433 10.0833 294.433 11.45C294.433 12.7833 294.917 13.7833 295.883 14.45C296.85 15.0833 298.667 15.6667 301.333 16.2L307.033 17.3C310.4 17.9667 312.85 19.1 314.383 20.7C315.917 22.2667 316.683 24.4833 316.683 27.35C316.683 31.05 315.367 33.95 312.733 36.05C310.1 38.1167 306.433 39.15 301.733 39.15C297.067 39.15 293.433 38.1167 290.833 36.05C288.267 33.9833 286.867 31 286.633 27.1H293.933C294.067 29.0667 294.833 30.5667 296.233 31.6C297.633 32.6333 299.6 33.15 302.133 33.15C304.4 33.15 306.183 32.7167 307.483 31.85C308.817 30.9833 309.483 29.7833 309.483 28.25C309.483 26.7833 308.967 25.65 307.933 24.85C306.9 24.05 305.133 23.4167 302.633 22.95L297.533 21.95C293.833 21.25 291.2 20.15 289.633 18.65C288.067 17.15 287.283 14.9833 287.283 12.15C287.283 8.58333 288.483 5.83333 290.883 3.9C293.317 1.93333 296.717 0.949997 301.083 0.949997C302.35 0.949997 303.567 1.03333 304.733 1.2C305.933 1.36667 307.2 1.71667 308.533 2.25C309.867 2.75 311.017 3.41666 311.983 4.25C312.95 5.05 313.75 6.18333 314.383 7.65C315.05 9.08333 315.383 10.75 315.383 12.65ZM338.483 38.8C337.249 39.0333 335.966 39.15 334.633 39.15C333.299 39.15 331.999 39.0333 330.733 38.8C329.499 38.5667 328.216 38.15 326.883 37.55C325.583 36.95 324.449 36.1833 323.483 35.25C322.516 34.3167 321.716 33.0833 321.083 31.55C320.483 29.9833 320.183 28.2167 320.183 26.25V1.55H327.683V26.25C327.683 30.5833 329.999 32.75 334.633 32.75C339.266 32.75 341.583 30.5833 341.583 26.25V1.55H349.083V26.25C349.083 28.2167 348.766 29.9833 348.133 31.55C347.533 33.0833 346.749 34.3167 345.783 35.25C344.816 36.1833 343.666 36.95 342.333 37.55C341.033 38.15 339.749 38.5667 338.483 38.8ZM375.517 30.65H361.867L359.417 38H351.767L364.717 1.55H373.017L385.617 38H377.917L375.517 30.65ZM373.467 24.4L368.717 10.15L363.967 24.4H373.467ZM393.561 1.55V31.75H411.011V38H386.061V1.55H393.561ZM426.393 38V1.55H440.643C443.443 1.55 445.743 1.88333 447.543 2.55C449.376 3.21667 450.91 4.28333 452.143 5.75C455.11 9.28333 456.593 13.95 456.593 19.75C456.593 25.6167 455.11 30.2833 452.143 33.75C449.776 36.5833 445.943 38 440.643 38H426.393ZM433.893 31.75H440.643C446.276 31.75 449.093 27.7667 449.093 19.8C449.093 11.8 446.276 7.8 440.643 7.8H433.893V31.75ZM465.831 22.3V31.75H485.581V38H458.331V1.55H484.681V7.8H465.831V16.05H483.281V22.3H465.831ZM513.59 12.65H506.59C506.324 8.85 503.774 6.95 498.94 6.95C497.007 6.95 495.474 7.36666 494.34 8.2C493.207 9 492.64 10.0833 492.64 11.45C492.64 12.7833 493.124 13.7833 494.09 14.45C495.057 15.0833 496.874 15.6667 499.54 16.2L505.24 17.3C508.607 17.9667 511.057 19.1 512.59 20.7C514.124 22.2667 514.89 24.4833 514.89 27.35C514.89 31.05 513.574 33.95 510.94 36.05C508.307 38.1167 504.64 39.15 499.94 39.15C495.274 39.15 491.64 38.1167 489.04 36.05C486.474 33.9833 485.074 31 484.84 27.1H492.14C492.274 29.0667 493.04 30.5667 494.44 31.6C495.84 32.6333 497.807 33.15 500.34 33.15C502.607 33.15 504.39 32.7167 505.69 31.85C507.024 30.9833 507.69 29.7833 507.69 28.25C507.69 26.7833 507.174 25.65 506.14 24.85C505.107 24.05 503.34 23.4167 500.84 22.95L495.74 21.95C492.04 21.25 489.407 20.15 487.84 18.65C486.274 17.15 485.49 14.9833 485.49 12.15C485.49 8.58333 486.69 5.83333 489.09 3.9C491.524 1.93333 494.924 0.949997 499.29 0.949997C500.557 0.949997 501.774 1.03333 502.94 1.2C504.14 1.36667 505.407 1.71667 506.74 2.25C508.074 2.75 509.224 3.41666 510.19 4.25C511.157 5.05 511.957 6.18333 512.59 7.65C513.257 9.08333 513.59 10.75 513.59 12.65ZM524.263 1.55V38H516.763V1.55H524.263ZM551.783 13.1C550.45 9.2 547.55 7.25 543.083 7.25C539.917 7.25 537.417 8.36667 535.583 10.6C533.783 12.8333 532.883 15.9167 532.883 19.85C532.883 23.5833 533.85 26.65 535.783 29.05C537.75 31.45 540.25 32.65 543.283 32.65C543.75 32.65 544.283 32.6 544.883 32.5C545.517 32.3667 546.267 32.1333 547.133 31.8C548 31.4333 548.8 30.9667 549.533 30.4C550.267 29.8333 550.917 29.05 551.483 28.05C552.05 27.0167 552.4 25.85 552.533 24.55H544.233V18.3H558.833V38H554.333L553.433 33.2C552.033 35.2333 550.467 36.7167 548.733 37.65C547 38.5833 544.9 39.05 542.433 39.05C537.5 39.05 533.417 37.25 530.183 33.65C526.983 30.05 525.383 25.4833 525.383 19.95C525.383 14.2833 527.017 9.68333 530.283 6.15C533.55 2.61667 537.8 0.849998 543.033 0.849998C547.433 0.849998 551.05 1.95 553.883 4.15C556.717 6.35 558.367 9.33333 558.833 13.1H551.783ZM583.747 38L569.097 12.8V38H561.597V1.55H569.297L583.747 26.35V1.55H591.247V38H583.747ZM621.118 12.65H614.118C613.851 8.85 611.301 6.95 606.468 6.95C604.534 6.95 603.001 7.36666 601.868 8.2C600.734 9 600.168 10.0833 600.168 11.45C600.168 12.7833 600.651 13.7833 601.618 14.45C602.584 15.0833 604.401 15.6667 607.068 16.2L612.768 17.3C616.134 17.9667 618.584 19.1 620.118 20.7C621.651 22.2667 622.418 24.4833 622.418 27.35C622.418 31.05 621.101 33.95 618.468 36.05C615.834 38.1167 612.168 39.15 607.468 39.15C602.801 39.15 599.168 38.1167 596.568 36.05C594.001 33.9833 592.601 31 592.368 27.1H599.668C599.801 29.0667 600.568 30.5667 601.968 31.6C603.368 32.6333 605.334 33.15 607.868 33.15C610.134 33.15 611.918 32.7167 613.218 31.85C614.551 30.9833 615.218 29.7833 615.218 28.25C615.218 26.7833 614.701 25.65 613.668 24.85C612.634 24.05 610.868 23.4167 608.368 22.95L603.268 21.95C599.568 21.25 596.934 20.15 595.368 18.65C593.801 17.15 593.018 14.9833 593.018 12.15C593.018 8.58333 594.218 5.83333 596.618 3.9C599.051 1.93333 602.451 0.949997 606.818 0.949997C608.084 0.949997 609.301 1.03333 610.468 1.2C611.668 1.36667 612.934 1.71667 614.268 2.25C615.601 2.75 616.751 3.41666 617.718 4.25C618.684 5.05 619.484 6.18333 620.118 7.65C620.784 9.08333 621.118 10.75 621.118 12.65ZM653.283 7.8V38H645.783V7.8H634.733V1.55H663.933V7.8H653.283ZM667.398 33.8C664.198 30.2333 662.598 25.65 662.598 20.05C662.598 14.45 664.198 9.86667 667.398 6.3C670.631 2.73333 674.864 0.949997 680.098 0.949997C685.364 0.949997 689.614 2.73333 692.848 6.3C696.081 9.83333 697.698 14.5 697.698 20.3C697.698 25.7 696.098 30.2 692.898 33.8C689.731 37.3667 685.481 39.15 680.148 39.15C674.848 39.15 670.598 37.3667 667.398 33.8ZM680.148 7.35C677.114 7.35 674.681 8.51666 672.848 10.85C671.014 13.15 670.098 16.2167 670.098 20.05C670.098 23.8833 671.014 26.9667 672.848 29.3C674.681 31.6 677.114 32.75 680.148 32.75C683.148 32.75 685.564 31.6 687.398 29.3C689.264 27 690.198 23.9833 690.198 20.25C690.198 16.3167 689.281 13.1833 687.448 10.85C685.648 8.51666 683.214 7.35 680.148 7.35ZM23.35 66.45H8.9V83H1.4V46.55H8.9V60.2H23.3V46.55H30.85V83H23.35V66.45ZM41.2879 67.3V76.75H61.0379V83H33.7879V46.55H60.1379V52.8H41.2879V61.05H58.7379V67.3H41.2879ZM70.4414 46.55V76.75H87.8914V83H62.9414V46.55H70.4414ZM98.8078 70V83H91.3078V46.55H107.408C111.208 46.55 114.108 47.5167 116.108 49.45C118.141 51.3833 119.158 54.1833 119.158 57.85C119.158 61.55 118.158 64.5 116.158 66.7C114.158 68.9 111.491 70 108.158 70H98.8078ZM98.8078 63.75H105.808C109.708 63.75 111.658 61.9333 111.658 58.3C111.658 56.4333 111.174 55.05 110.208 54.15C109.274 53.25 107.808 52.8 105.808 52.8H98.8078V63.75ZM142.073 70V83H134.573V46.55H150.673C154.473 46.55 157.373 47.5167 159.373 49.45C161.407 51.3833 162.423 54.1833 162.423 57.85C162.423 61.55 161.423 64.5 159.423 66.7C157.423 68.9 154.757 70 151.423 70H142.073ZM142.073 63.75H149.073C152.973 63.75 154.923 61.9333 154.923 58.3C154.923 56.4333 154.44 55.05 153.473 54.15C152.54 53.25 151.073 52.8 149.073 52.8H142.073V63.75ZM171.327 67.3V76.75H191.077V83H163.827V46.55H190.177V52.8H171.327V61.05H188.777V67.3H171.327ZM196.025 78.8C192.825 75.2333 191.225 70.65 191.225 65.05C191.225 59.45 192.825 54.8667 196.025 51.3C199.258 47.7333 203.491 45.95 208.725 45.95C213.991 45.95 218.241 47.7333 221.475 51.3C224.708 54.8333 226.325 59.5 226.325 65.3C226.325 70.7 224.725 75.2 221.525 78.8C218.358 82.3667 214.108 84.15 208.775 84.15C203.475 84.15 199.225 82.3667 196.025 78.8ZM208.775 52.35C205.741 52.35 203.308 53.5167 201.475 55.85C199.641 58.15 198.725 61.2167 198.725 65.05C198.725 68.8833 199.641 71.9667 201.475 74.3C203.308 76.6 205.741 77.75 208.775 77.75C211.775 77.75 214.191 76.6 216.025 74.3C217.891 72 218.825 68.9833 218.825 65.25C218.825 61.3167 217.908 58.1833 216.075 55.85C214.275 53.5167 211.841 52.35 208.775 52.35ZM237.441 70V83H229.941V46.55H246.041C249.841 46.55 252.741 47.5167 254.741 49.45C256.774 51.3833 257.791 54.1833 257.791 57.85C257.791 61.55 256.791 64.5 254.791 66.7C252.791 68.9 250.124 70 246.791 70H237.441ZM237.441 63.75H244.441C248.341 63.75 250.291 61.9333 250.291 58.3C250.291 56.4333 249.807 55.05 248.841 54.15C247.907 53.25 246.441 52.8 244.441 52.8H237.441V63.75ZM266.744 46.55V76.75H284.194V83H259.244V46.55H266.744ZM292.77 67.3V76.75H312.52V83H285.27V46.55H311.62V52.8H292.77V61.05H310.22V67.3H292.77ZM349.636 75.65H335.986L333.536 83H325.886L338.836 46.55H347.136L359.736 83H352.036L349.636 75.65ZM347.586 69.4L342.836 55.15L338.086 69.4H347.586ZM369.97 70V83H362.47V46.55H378.57C382.37 46.55 385.27 47.5167 387.27 49.45C389.303 51.3833 390.32 54.1833 390.32 57.85C390.32 61.55 389.32 64.5 387.32 66.7C385.32 68.9 382.653 70 379.32 70H369.97ZM369.97 63.75H376.97C380.87 63.75 382.82 61.9333 382.82 58.3C382.82 56.4333 382.337 55.05 381.37 54.15C380.437 53.25 378.97 52.8 376.97 52.8H369.97V63.75ZM401.32 70V83H393.82V46.55H409.92C413.72 46.55 416.62 47.5167 418.62 49.45C420.653 51.3833 421.67 54.1833 421.67 57.85C421.67 61.55 420.67 64.5 418.67 66.7C416.67 68.9 414.003 70 410.67 70H401.32ZM401.32 63.75H408.32C412.22 63.75 414.17 61.9333 414.17 58.3C414.17 56.4333 413.686 55.05 412.72 54.15C411.786 53.25 410.32 52.8 408.32 52.8H401.32V63.75ZM446.019 76.75C446.019 75.75 446.036 74.9667 446.069 74.4C446.102 73.8333 446.119 73.3333 446.119 72.9C446.119 71.3667 445.752 70.2667 445.019 69.6C444.286 68.9 443.102 68.55 441.469 68.55H432.869V83H425.369V46.55H444.919C446.786 46.55 448.386 46.8667 449.719 47.5C451.086 48.1333 452.102 48.9667 452.769 50C453.469 51.0333 453.969 52.0833 454.269 53.15C454.569 54.1833 454.719 55.2667 454.719 56.4C454.719 60.8 452.669 63.8 448.569 65.4C449.469 65.7667 450.136 66.0667 450.569 66.3C451.002 66.5 451.436 66.85 451.869 67.35C452.336 67.85 452.636 68.3 452.769 68.7C452.936 69.1 453.086 69.8333 453.219 70.9C453.386 71.9667 453.486 73.0167 453.519 74.05C453.552 75.0833 453.586 76.6167 453.619 78.65C453.619 80.05 454.152 81.05 455.219 81.65V83H447.169C446.702 82.1333 446.386 81.3 446.219 80.5C446.086 79.7 446.019 78.45 446.019 76.75ZM447.219 57.45C447.219 55.5833 446.786 54.35 445.919 53.75C445.052 53.1167 443.719 52.8 441.919 52.8H432.869V62.3H441.919C443.686 62.3 445.002 61.9833 445.869 61.35C446.769 60.7167 447.219 59.4167 447.219 57.45ZM464.901 67.3V76.75H484.651V83H457.401V46.55H483.751V52.8H464.901V61.05H482.351V67.3H464.901ZM509.749 58.9C508.815 54.5333 506.215 52.35 501.949 52.35C498.982 52.35 496.665 53.4833 494.999 55.75C493.332 58.0167 492.499 61.1667 492.499 65.2C492.499 69.1667 493.299 72.2667 494.899 74.5C496.532 76.7333 498.799 77.85 501.699 77.85C504.032 77.85 505.899 77.2167 507.299 75.95C508.699 74.6833 509.515 72.8833 509.749 70.55H517.049C516.815 74.7167 515.299 78.0333 512.499 80.5C509.699 82.9333 506.032 84.15 501.499 84.15C496.432 84.15 492.415 82.45 489.449 79.05C486.482 75.6167 484.999 70.9667 484.999 65.1C484.999 59.2 486.499 54.5333 489.499 51.1C492.499 47.6667 496.565 45.95 501.699 45.95C505.999 45.95 509.515 47.1 512.249 49.4C515.015 51.7 516.565 54.8667 516.899 58.9H509.749ZM526.019 46.55V83H518.519V46.55H526.019ZM551.359 75.65H537.709L535.259 83H527.609L540.559 46.55H548.859L561.459 83H553.759L551.359 75.65ZM549.309 69.4L544.559 55.15L539.809 69.4H549.309ZM577.641 52.8V83H570.141V52.8H559.091V46.55H588.291V52.8H577.641ZM596.649 67.3V76.75H616.399V83H589.149V46.55H615.499V52.8H596.649V61.05H614.099V67.3H596.649ZM653.515 75.65H639.865L637.415 83H629.765L642.715 46.55H651.015L663.615 83H655.915L653.515 75.65ZM651.465 69.4L646.715 55.15L641.965 69.4H651.465ZM686.097 83L671.447 57.8V83H663.947V46.55H671.647L686.097 71.35V46.55H693.597V83H686.097ZM9.45 112.3V121.75H29.2V128H1.95V91.55H28.3V97.8H9.45V106.05H26.9V112.3H9.45ZM48.7859 109.4L60.4859 128H51.5859L44.5859 115.35L37.6359 128H28.9359L40.4359 109.65L29.3359 91.55H38.2359L44.6359 103.55L51.3359 91.55H60.0359L48.7859 109.4ZM70.4855 115V128H62.9855V91.55H79.0855C82.8855 91.55 85.7855 92.5167 87.7855 94.45C89.8189 96.3833 90.8355 99.1833 90.8355 102.85C90.8355 106.55 89.8355 109.5 87.8355 111.7C85.8355 113.9 83.1689 115 79.8355 115H70.4855ZM70.4855 108.75H77.4855C81.3855 108.75 83.3355 106.933 83.3355 103.3C83.3355 101.433 82.8522 100.05 81.8855 99.15C80.9522 98.25 79.4855 97.8 77.4855 97.8H70.4855V108.75ZM99.7391 112.3V121.75H119.489V128H92.2391V91.55H118.589V97.8H99.7391V106.05H117.189V112.3H99.7391ZM144.289 121.75C144.289 120.75 144.305 119.967 144.339 119.4C144.372 118.833 144.389 118.333 144.389 117.9C144.389 116.367 144.022 115.267 143.289 114.6C142.555 113.9 141.372 113.55 139.739 113.55H131.139V128H123.639V91.55H143.189C145.055 91.55 146.655 91.8667 147.989 92.5C149.355 93.1333 150.372 93.9667 151.039 95C151.739 96.0333 152.239 97.0833 152.539 98.15C152.839 99.1833 152.989 100.267 152.989 101.4C152.989 105.8 150.939 108.8 146.839 110.4C147.739 110.767 148.405 111.067 148.839 111.3C149.272 111.5 149.705 111.85 150.139 112.35C150.605 112.85 150.905 113.3 151.039 113.7C151.205 114.1 151.355 114.833 151.489 115.9C151.655 116.967 151.755 118.017 151.789 119.05C151.822 120.083 151.855 121.617 151.889 123.65C151.889 125.05 152.422 126.05 153.489 126.65V128H145.439C144.972 127.133 144.655 126.3 144.489 125.5C144.355 124.7 144.289 123.45 144.289 121.75ZM145.489 102.45C145.489 100.583 145.055 99.35 144.189 98.75C143.322 98.1167 141.989 97.8 140.189 97.8H131.139V107.3H140.189C141.955 107.3 143.272 106.983 144.139 106.35C145.039 105.717 145.489 104.417 145.489 102.45ZM163.884 91.55V128H156.384V91.55H163.884ZM174.354 112.3V121.75H194.104V128H166.854V91.55H193.204V97.8H174.354V106.05H191.804V112.3H174.354ZM217.802 128L203.152 102.8V128H195.652V91.55H203.352L217.802 116.35V91.55H225.302V128H217.802ZM252.309 103.9C251.376 99.5333 248.776 97.35 244.509 97.35C241.543 97.35 239.226 98.4833 237.559 100.75C235.893 103.017 235.059 106.167 235.059 110.2C235.059 114.167 235.859 117.267 237.459 119.5C239.093 121.733 241.359 122.85 244.259 122.85C246.593 122.85 248.459 122.217 249.859 120.95C251.259 119.683 252.076 117.883 252.309 115.55H259.609C259.376 119.717 257.859 123.033 255.059 125.5C252.259 127.933 248.593 129.15 244.059 129.15C238.993 129.15 234.976 127.45 232.009 124.05C229.043 120.617 227.559 115.967 227.559 110.1C227.559 104.2 229.059 99.5333 232.059 96.1C235.059 92.6667 239.126 90.95 244.259 90.95C248.559 90.95 252.076 92.1 254.809 94.4C257.576 96.7 259.126 99.8667 259.459 103.9H252.309ZM268.647 112.3V121.75H288.397V128H261.147V91.55H287.497V97.8H268.647V106.05H286.097V112.3H268.647ZM291.747 120.7H299.247V127.55C299.247 128.717 299.164 129.717 298.997 130.55C298.864 131.383 298.547 132.267 298.047 133.2C297.58 134.133 296.814 134.9 295.747 135.5C294.714 136.1 293.38 136.5 291.747 136.7V133.9C294.614 133.333 296.047 131.417 296.047 128.15V128H291.747V120.7ZM337.929 128L323.279 102.8V128H315.779V91.55H323.479L337.929 116.35V91.55H345.429V128H337.929ZM352.286 123.8C349.086 120.233 347.486 115.65 347.486 110.05C347.486 104.45 349.086 99.8667 352.286 96.3C355.52 92.7333 359.753 90.95 364.986 90.95C370.253 90.95 374.503 92.7333 377.736 96.3C380.97 99.8333 382.586 104.5 382.586 110.3C382.586 115.7 380.986 120.2 377.786 123.8C374.62 127.367 370.37 129.15 365.036 129.15C359.736 129.15 355.486 127.367 352.286 123.8ZM365.036 97.35C362.003 97.35 359.57 98.5167 357.736 100.85C355.903 103.15 354.986 106.217 354.986 110.05C354.986 113.883 355.903 116.967 357.736 119.3C359.57 121.6 362.003 122.75 365.036 122.75C368.036 122.75 370.453 121.6 372.286 119.3C374.153 117 375.086 113.983 375.086 110.25C375.086 106.317 374.17 103.183 372.336 100.85C370.536 98.5167 368.103 97.35 365.036 97.35ZM399.65 97.8V128H392.15V97.8H381.1V91.55H410.3V97.8H399.65ZM440.133 97.8V128H432.633V97.8H421.583V91.55H450.783V97.8H440.133ZM454.247 123.8C451.047 120.233 449.447 115.65 449.447 110.05C449.447 104.45 451.047 99.8667 454.247 96.3C457.481 92.7333 461.714 90.95 466.947 90.95C472.214 90.95 476.464 92.7333 479.697 96.3C482.931 99.8333 484.547 104.5 484.547 110.3C484.547 115.7 482.947 120.2 479.747 123.8C476.581 127.367 472.331 129.15 466.997 129.15C461.697 129.15 457.447 127.367 454.247 123.8ZM466.997 97.35C463.964 97.35 461.531 98.5167 459.697 100.85C457.864 103.15 456.947 106.217 456.947 110.05C456.947 113.883 457.864 116.967 459.697 119.3C461.531 121.6 463.964 122.75 466.997 122.75C469.997 122.75 472.414 121.6 474.247 119.3C476.114 117 477.047 113.983 477.047 110.25C477.047 106.317 476.131 103.183 474.297 100.85C472.497 98.5167 470.064 97.35 466.997 97.35ZM494.35 91.55V121.75H511.8V128H486.85V91.55H494.35ZM520.376 112.3V121.75H540.126V128H512.876V91.55H539.226V97.8H520.376V106.05H537.826V112.3H520.376ZM564.925 121.75C564.925 120.75 564.942 119.967 564.975 119.4C565.009 118.833 565.025 118.333 565.025 117.9C565.025 116.367 564.659 115.267 563.925 114.6C563.192 113.9 562.009 113.55 560.375 113.55H551.775V128H544.275V91.55H563.825C565.692 91.55 567.292 91.8667 568.625 92.5C569.992 93.1333 571.009 93.9667 571.675 95C572.375 96.0333 572.875 97.0833 573.175 98.15C573.475 99.1833 573.625 100.267 573.625 101.4C573.625 105.8 571.575 108.8 567.475 110.4C568.375 110.767 569.042 111.067 569.475 111.3C569.909 111.5 570.342 111.85 570.775 112.35C571.242 112.85 571.542 113.3 571.675 113.7C571.842 114.1 571.992 114.833 572.125 115.9C572.292 116.967 572.392 118.017 572.425 119.05C572.459 120.083 572.492 121.617 572.525 123.65C572.525 125.05 573.059 126.05 574.125 126.65V128H566.075C565.609 127.133 565.292 126.3 565.125 125.5C564.992 124.7 564.925 123.45 564.925 121.75ZM566.125 102.45C566.125 100.583 565.692 99.35 564.825 98.75C563.959 98.1167 562.625 97.8 560.825 97.8H551.775V107.3H560.825C562.592 107.3 563.909 106.983 564.775 106.35C565.675 105.717 566.125 104.417 566.125 102.45ZM598.921 120.65H585.271L582.821 128H575.171L588.121 91.55H596.421L609.021 128H601.321L598.921 120.65ZM596.871 114.4L592.121 100.15L587.371 114.4H596.871ZM625.203 97.8V128H617.703V97.8H606.653V91.55H635.853V97.8H625.203ZM644.212 112.3V121.75H663.962V128H636.712V91.55H663.062V97.8H644.212V106.05H661.662V112.3H644.212ZM686.677 91.55V128H679.177V91.55H686.677ZM707.193 97.8V128H699.693V97.8H688.643V91.55H717.843V97.8H707.193ZM720.21 120.7V128H712.71V120.7H720.21Z" fill="url(#paint0_linear)"/>
<defs>
<linearGradient id="paint0_linear" x1="843" y1="-1.99942" x2="-1040" y2="185.5" gradientUnits="userSpaceOnUse">
<stop stop-color="#FF007A"/>
<stop offset="1" stop-color="#FF0000"/>
</linearGradient>
</defs>
</svg>
