<svg width="725" height="139" viewBox="0 0 725 139" fill="none" xmlns="http://www.w3.org/2000/svg">
<path d="M24.95 13.9C24.0167 9.53333 21.4167 7.35 17.15 7.35C14.1833 7.35 11.8667 8.48333 10.2 10.75C8.53333 13.0167 7.7 16.1667 7.7 20.2C7.7 24.1667 8.5 27.2667 10.1 29.5C11.7333 31.7333 14 32.85 16.9 32.85C19.2333 32.85 21.1 32.2167 22.5 30.95C23.9 29.6833 24.7167 27.8833 24.95 25.55H32.25C32.0167 29.7167 30.5 33.0333 27.7 35.5C24.9 37.9333 21.2333 39.15 16.7 39.15C11.6333 39.15 7.61667 37.45 4.65 34.05C1.68333 30.6167 0.2 25.9667 0.2 20.1C0.2 14.2 1.7 9.53333 4.7 6.1C7.7 2.66666 11.7667 0.949997 16.9 0.949997C21.2 0.949997 24.7167 2.1 27.45 4.4C30.2167 6.7 31.7667 9.86666 32.1 13.9H24.95ZM55.484 31.75C55.484 30.75 55.5007 29.9667 55.534 29.4C55.5673 28.8333 55.584 28.3333 55.584 27.9C55.584 26.3667 55.2173 25.2667 54.484 24.6C53.7507 23.9 52.5673 23.55 50.934 23.55H42.334V38H34.834V1.55H54.384C56.2507 1.55 57.8507 1.86666 59.184 2.5C60.5507 3.13333 61.5673 3.96666 62.234 5C62.934 6.03333 63.434 7.08333 63.734 8.15C64.034 9.18333 64.184 10.2667 64.184 11.4C64.184 15.8 62.134 18.8 58.034 20.4C58.934 20.7667 59.6007 21.0667 60.034 21.3C60.4673 21.5 60.9007 21.85 61.334 22.35C61.8007 22.85 62.1007 23.3 62.234 23.7C62.4007 24.1 62.5507 24.8333 62.684 25.9C62.8507 26.9667 62.9507 28.0167 62.984 29.05C63.0173 30.0833 63.0507 31.6167 63.084 33.65C63.084 35.05 63.6173 36.05 64.684 36.65V38H56.634C56.1673 37.1333 55.8507 36.3 55.684 35.5C55.5507 34.7 55.484 33.45 55.484 31.75ZM56.684 12.45C56.684 10.5833 56.2507 9.35 55.384 8.75C54.5173 8.11666 53.184 7.8 51.384 7.8H42.334V17.3H51.384C53.1507 17.3 54.4673 16.9833 55.334 16.35C56.234 15.7167 56.684 14.4167 56.684 12.45ZM74.868 22.3V31.75H94.618V38H67.368V1.55H93.718V7.8H74.868V16.05H92.318V22.3H74.868ZM120.068 30.65H106.418L103.968 38H96.3176L109.268 1.55H117.568L130.168 38H122.468L120.068 30.65ZM118.018 24.4L113.268 10.15L108.518 24.4H118.018ZM145.602 7.8V38H138.102V7.8H127.052V1.55H156.252V7.8H145.602ZM167.318 1.55V38H159.818V1.55H167.318ZM194.384 38L179.734 12.8V38H172.234V1.55H179.934L194.384 26.35V1.55H201.884V38H194.384ZM230.441 13.1C229.108 9.2 226.208 7.25 221.741 7.25C218.575 7.25 216.075 8.36667 214.241 10.6C212.441 12.8333 211.541 15.9167 211.541 19.85C211.541 23.5833 212.508 26.65 214.441 29.05C216.408 31.45 218.908 32.65 221.941 32.65C222.408 32.65 222.941 32.6 223.541 32.5C224.175 32.3667 224.925 32.1333 225.791 31.8C226.658 31.4333 227.458 30.9667 228.191 30.4C228.925 29.8333 229.575 29.05 230.141 28.05C230.708 27.0167 231.058 25.85 231.191 24.55H222.891V18.3H237.491V38H232.991L232.091 33.2C230.691 35.2333 229.125 36.7167 227.391 37.65C225.658 38.5833 223.558 39.05 221.091 39.05C216.158 39.05 212.075 37.25 208.841 33.65C205.641 30.05 204.041 25.4833 204.041 19.95C204.041 14.2833 205.675 9.68333 208.941 6.15C212.208 2.61667 216.458 0.849998 221.691 0.849998C226.091 0.849998 229.708 1.95 232.541 4.15C235.375 6.35 237.025 9.33333 237.491 13.1H230.441ZM271.123 38H264.773L252.473 1.55H260.023L268.123 29L276.073 1.55H283.623L271.123 38ZM293.373 1.55V38H285.873V1.55H293.373ZM325.489 12.65H318.489C318.222 8.85 315.672 6.95 310.839 6.95C308.906 6.95 307.372 7.36666 306.239 8.2C305.106 9 304.539 10.0833 304.539 11.45C304.539 12.7833 305.022 13.7833 305.989 14.45C306.956 15.0833 308.772 15.6667 311.439 16.2L317.139 17.3C320.506 17.9667 322.956 19.1 324.489 20.7C326.022 22.2667 326.789 24.4833 326.789 27.35C326.789 31.05 325.472 33.95 322.839 36.05C320.206 38.1167 316.539 39.15 311.839 39.15C307.172 39.15 303.539 38.1167 300.939 36.05C298.372 33.9833 296.972 31 296.739 27.1H304.039C304.172 29.0667 304.939 30.5667 306.339 31.6C307.739 32.6333 309.706 33.15 312.239 33.15C314.506 33.15 316.289 32.7167 317.589 31.85C318.922 30.9833 319.589 29.7833 319.589 28.25C319.589 26.7833 319.072 25.65 318.039 24.85C317.006 24.05 315.239 23.4167 312.739 22.95L307.639 21.95C303.939 21.25 301.306 20.15 299.739 18.65C298.172 17.15 297.389 14.9833 297.389 12.15C297.389 8.58333 298.589 5.83333 300.989 3.9C303.422 1.93333 306.822 0.949997 311.189 0.949997C312.456 0.949997 313.672 1.03333 314.839 1.2C316.039 1.36667 317.306 1.71667 318.639 2.25C319.972 2.75 321.122 3.41666 322.089 4.25C323.056 5.05 323.856 6.18333 324.489 7.65C325.156 9.08333 325.489 10.75 325.489 12.65ZM348.089 38.8C346.855 39.0333 345.572 39.15 344.239 39.15C342.905 39.15 341.605 39.0333 340.339 38.8C339.105 38.5667 337.822 38.15 336.489 37.55C335.189 36.95 334.055 36.1833 333.089 35.25C332.122 34.3167 331.322 33.0833 330.689 31.55C330.089 29.9833 329.789 28.2167 329.789 26.25V1.55H337.289V26.25C337.289 30.5833 339.605 32.75 344.239 32.75C348.872 32.75 351.189 30.5833 351.189 26.25V1.55H358.689V26.25C358.689 28.2167 358.372 29.9833 357.739 31.55C357.139 33.0833 356.355 34.3167 355.389 35.25C354.422 36.1833 353.272 36.95 351.939 37.55C350.639 38.15 349.355 38.5667 348.089 38.8ZM382.623 30.65H368.973L366.523 38H358.873L371.823 1.55H380.123L392.723 38H385.023L382.623 30.65ZM380.573 24.4L375.823 10.15L371.073 24.4H380.573ZM402.407 1.55V31.75H419.857V38H394.907V1.55H402.407ZM436.489 38V1.55H450.739C453.539 1.55 455.839 1.88333 457.639 2.55C459.472 3.21667 461.006 4.28333 462.239 5.75C465.206 9.28333 466.689 13.95 466.689 19.75C466.689 25.6167 465.206 30.2833 462.239 33.75C459.872 36.5833 456.039 38 450.739 38H436.489ZM443.989 31.75H450.739C456.372 31.75 459.189 27.7667 459.189 19.8C459.189 11.8 456.372 7.8 450.739 7.8H443.989V31.75ZM476.923 22.3V31.75H496.673V38H469.423V1.55H495.773V7.8H476.923V16.05H494.373V22.3H476.923ZM527.173 12.65H520.173C519.906 8.85 517.356 6.95 512.523 6.95C510.589 6.95 509.056 7.36666 507.923 8.2C506.789 9 506.223 10.0833 506.223 11.45C506.223 12.7833 506.706 13.7833 507.673 14.45C508.639 15.0833 510.456 15.6667 513.123 16.2L518.823 17.3C522.189 17.9667 524.639 19.1 526.173 20.7C527.706 22.2667 528.473 24.4833 528.473 27.35C528.473 31.05 527.156 33.95 524.523 36.05C521.889 38.1167 518.223 39.15 513.523 39.15C508.856 39.15 505.223 38.1167 502.623 36.05C500.056 33.9833 498.656 31 498.423 27.1H505.723C505.856 29.0667 506.623 30.5667 508.023 31.6C509.423 32.6333 511.389 33.15 513.923 33.15C516.189 33.15 517.973 32.7167 519.273 31.85C520.606 30.9833 521.273 29.7833 521.273 28.25C521.273 26.7833 520.756 25.65 519.723 24.85C518.689 24.05 516.923 23.4167 514.423 22.95L509.323 21.95C505.623 21.25 502.989 20.15 501.423 18.65C499.856 17.15 499.073 14.9833 499.073 12.15C499.073 8.58333 500.273 5.83333 502.673 3.9C505.106 1.93333 508.506 0.949997 512.873 0.949997C514.139 0.949997 515.356 1.03333 516.523 1.2C517.723 1.36667 518.989 1.71667 520.323 2.25C521.656 2.75 522.806 3.41666 523.773 4.25C524.739 5.05 525.539 6.18333 526.173 7.65C526.839 9.08333 527.173 10.75 527.173 12.65ZM539.572 1.55V38H532.072V1.55H539.572ZM569.588 13.1C568.255 9.2 565.355 7.25 560.888 7.25C557.722 7.25 555.222 8.36667 553.388 10.6C551.588 12.8333 550.688 15.9167 550.688 19.85C550.688 23.5833 551.655 26.65 553.588 29.05C555.555 31.45 558.055 32.65 561.088 32.65C561.555 32.65 562.088 32.6 562.688 32.5C563.322 32.3667 564.072 32.1333 564.938 31.8C565.805 31.4333 566.605 30.9667 567.338 30.4C568.072 29.8333 568.722 29.05 569.288 28.05C569.855 27.0167 570.205 25.85 570.338 24.55H562.038V18.3H576.638V38H572.138L571.238 33.2C569.838 35.2333 568.272 36.7167 566.538 37.65C564.805 38.5833 562.705 39.05 560.238 39.05C555.305 39.05 551.222 37.25 547.988 33.65C544.788 30.05 543.188 25.4833 543.188 19.95C543.188 14.2833 544.822 9.68333 548.088 6.15C551.355 2.61667 555.605 0.849998 560.838 0.849998C565.238 0.849998 568.855 1.95 571.688 4.15C574.522 6.35 576.172 9.33333 576.638 13.1H569.588ZM602.304 38L587.654 12.8V38H580.154V1.55H587.854L602.304 26.35V1.55H609.804V38H602.304ZM641.438 12.65H634.438C634.172 8.85 631.622 6.95 626.788 6.95C624.855 6.95 623.322 7.36666 622.188 8.2C621.055 9 620.488 10.0833 620.488 11.45C620.488 12.7833 620.972 13.7833 621.938 14.45C622.905 15.0833 624.722 15.6667 627.388 16.2L633.088 17.3C636.455 17.9667 638.905 19.1 640.438 20.7C641.972 22.2667 642.738 24.4833 642.738 27.35C642.738 31.05 641.422 33.95 638.788 36.05C636.155 38.1167 632.488 39.15 627.788 39.15C623.122 39.15 619.488 38.1167 616.888 36.05C614.322 33.9833 612.922 31 612.688 27.1H619.988C620.122 29.0667 620.888 30.5667 622.288 31.6C623.688 32.6333 625.655 33.15 628.188 33.15C630.455 33.15 632.238 32.7167 633.538 31.85C634.872 30.9833 635.538 29.7833 635.538 28.25C635.538 26.7833 635.022 25.65 633.988 24.85C632.955 24.05 631.188 23.4167 628.688 22.95L623.588 21.95C619.888 21.25 617.255 20.15 615.688 18.65C614.122 17.15 613.338 14.9833 613.338 12.15C613.338 8.58333 614.538 5.83333 616.938 3.9C619.372 1.93333 622.772 0.949997 627.138 0.949997C628.405 0.949997 629.622 1.03333 630.788 1.2C631.988 1.36667 633.255 1.71667 634.588 2.25C635.922 2.75 637.072 3.41666 638.038 4.25C639.005 5.05 639.805 6.18333 640.438 7.65C641.105 9.08333 641.438 10.75 641.438 12.65ZM674.604 7.8V38H667.104V7.8H656.054V1.55H685.254V7.8H674.604ZM688.718 33.8C685.518 30.2333 683.918 25.65 683.918 20.05C683.918 14.45 685.518 9.86667 688.718 6.3C691.952 2.73333 696.185 0.949997 701.418 0.949997C706.685 0.949997 710.935 2.73333 714.168 6.3C717.402 9.83333 719.018 14.5 719.018 20.3C719.018 25.7 717.418 30.2 714.218 33.8C711.052 37.3667 706.802 39.15 701.468 39.15C696.168 39.15 691.918 37.3667 688.718 33.8ZM701.468 7.35C698.435 7.35 696.002 8.51666 694.168 10.85C692.335 13.15 691.418 16.2167 691.418 20.05C691.418 23.8833 692.335 26.9667 694.168 29.3C696.002 31.6 698.435 32.75 701.468 32.75C704.468 32.75 706.885 31.6 708.718 29.3C710.585 27 711.518 23.9833 711.518 20.25C711.518 16.3167 710.602 13.1833 708.768 10.85C706.968 8.51666 704.535 7.35 701.468 7.35ZM23.35 67.45H8.9V84H1.4V47.55H8.9V61.2H23.3V47.55H30.85V84H23.35V67.45ZM41.2879 68.3V77.75H61.0379V84H33.7879V47.55H60.1379V53.8H41.2879V62.05H58.7379V68.3H41.2879ZM70.4414 47.55V77.75H87.8914V84H62.9414V47.55H70.4414ZM98.8078 71V84H91.3078V47.55H107.408C111.208 47.55 114.108 48.5167 116.108 50.45C118.141 52.3833 119.158 55.1833 119.158 58.85C119.158 62.55 118.158 65.5 116.158 67.7C114.158 69.9 111.491 71 108.158 71H98.8078ZM98.8078 64.75H105.808C109.708 64.75 111.658 62.9333 111.658 59.3C111.658 57.4333 111.174 56.05 110.208 55.15C109.274 54.25 107.808 53.8 105.808 53.8H98.8078V64.75ZM147.573 71V84H140.073V47.55H156.173C159.973 47.55 162.873 48.5167 164.873 50.45C166.907 52.3833 167.923 55.1833 167.923 58.85C167.923 62.55 166.923 65.5 164.923 67.7C162.923 69.9 160.257 71 156.923 71H147.573ZM147.573 64.75H154.573C158.473 64.75 160.423 62.9333 160.423 59.3C160.423 57.4333 159.94 56.05 158.973 55.15C158.04 54.25 156.573 53.8 154.573 53.8H147.573V64.75ZM177.823 68.3V77.75H197.573V84H170.323V47.55H196.673V53.8H177.823V62.05H195.273V68.3H177.823ZM203.773 79.8C200.573 76.2333 198.973 71.65 198.973 66.05C198.973 60.45 200.573 55.8667 203.773 52.3C207.006 48.7333 211.239 46.95 216.473 46.95C221.739 46.95 225.989 48.7333 229.223 52.3C232.456 55.8333 234.073 60.5 234.073 66.3C234.073 71.7 232.473 76.2 229.273 79.8C226.106 83.3667 221.856 85.15 216.523 85.15C211.223 85.15 206.973 83.3667 203.773 79.8ZM216.523 53.35C213.489 53.35 211.056 54.5167 209.223 56.85C207.389 59.15 206.473 62.2167 206.473 66.05C206.473 69.8833 207.389 72.9667 209.223 75.3C211.056 77.6 213.489 78.75 216.523 78.75C219.523 78.75 221.939 77.6 223.773 75.3C225.639 73 226.573 69.9833 226.573 66.25C226.573 62.3167 225.656 59.1833 223.823 56.85C222.023 54.5167 219.589 53.35 216.523 53.35ZM244.189 71V84H236.689V47.55H252.789C256.589 47.55 259.489 48.5167 261.489 50.45C263.522 52.3833 264.539 55.1833 264.539 58.85C264.539 62.55 263.539 65.5 261.539 67.7C259.539 69.9 256.872 71 253.539 71H244.189ZM244.189 64.75H251.189C255.089 64.75 257.039 62.9333 257.039 59.3C257.039 57.4333 256.555 56.05 255.589 55.15C254.655 54.25 253.189 53.8 251.189 53.8H244.189V64.75ZM274.738 47.55V77.75H292.188V84H267.238V47.55H274.738ZM303.305 68.3V77.75H323.055V84H295.805V47.55H322.155V53.8H303.305V62.05H320.755V68.3H303.305ZM362.67 76.65H349.02L346.57 84H338.92L351.87 47.55H360.17L372.77 84H365.07L362.67 76.65ZM360.62 70.4L355.87 56.15L351.12 70.4H360.62ZM382.504 71V84H375.004V47.55H391.104C394.904 47.55 397.804 48.5167 399.804 50.45C401.838 52.3833 402.854 55.1833 402.854 58.85C402.854 62.55 401.854 65.5 399.854 67.7C397.854 69.9 395.188 71 391.854 71H382.504ZM382.504 64.75H389.504C393.404 64.75 395.354 62.9333 395.354 59.3C395.354 57.4333 394.871 56.05 393.904 55.15C392.971 54.25 391.504 53.8 389.504 53.8H382.504V64.75ZM412.854 71V84H405.354V47.55H421.454C425.254 47.55 428.154 48.5167 430.154 50.45C432.187 52.3833 433.204 55.1833 433.204 58.85C433.204 62.55 432.204 65.5 430.204 67.7C428.204 69.9 425.537 71 422.204 71H412.854ZM412.854 64.75H419.854C423.754 64.75 425.704 62.9333 425.704 59.3C425.704 57.4333 425.221 56.05 424.254 55.15C423.321 54.25 421.854 53.8 419.854 53.8H412.854V64.75ZM456.554 77.75C456.554 76.75 456.57 75.9667 456.604 75.4C456.637 74.8333 456.654 74.3333 456.654 73.9C456.654 72.3667 456.287 71.2667 455.554 70.6C454.82 69.9 453.637 69.55 452.004 69.55H443.404V84H435.904V47.55H455.454C457.32 47.55 458.92 47.8667 460.254 48.5C461.62 49.1333 462.637 49.9667 463.304 51C464.004 52.0333 464.504 53.0833 464.804 54.15C465.104 55.1833 465.254 56.2667 465.254 57.4C465.254 61.8 463.204 64.8 459.104 66.4C460.004 66.7667 460.67 67.0667 461.104 67.3C461.537 67.5 461.97 67.85 462.404 68.35C462.87 68.85 463.17 69.3 463.304 69.7C463.47 70.1 463.62 70.8333 463.754 71.9C463.92 72.9667 464.02 74.0167 464.054 75.05C464.087 76.0833 464.12 77.6167 464.154 79.65C464.154 81.05 464.687 82.05 465.754 82.65V84H457.704C457.237 83.1333 456.92 82.3 456.754 81.5C456.62 80.7 456.554 79.45 456.554 77.75ZM457.754 58.45C457.754 56.5833 457.32 55.35 456.454 54.75C455.587 54.1167 454.254 53.8 452.454 53.8H443.404V63.3H452.454C454.22 63.3 455.537 62.9833 456.404 62.35C457.304 61.7167 457.754 60.4167 457.754 58.45ZM476.187 68.3V77.75H495.937V84H468.687V47.55H495.037V53.8H476.187V62.05H493.637V68.3H476.187ZM521.537 59.9C520.604 55.5333 518.004 53.35 513.737 53.35C510.77 53.35 508.454 54.4833 506.787 56.75C505.12 59.0167 504.287 62.1667 504.287 66.2C504.287 70.1667 505.087 73.2667 506.687 75.5C508.32 77.7333 510.587 78.85 513.487 78.85C515.82 78.85 517.687 78.2167 519.087 76.95C520.487 75.6833 521.304 73.8833 521.537 71.55H528.837C528.604 75.7167 527.087 79.0333 524.287 81.5C521.487 83.9333 517.82 85.15 513.287 85.15C508.22 85.15 504.204 83.45 501.237 80.05C498.27 76.6167 496.787 71.9667 496.787 66.1C496.787 60.2 498.287 55.5333 501.287 52.1C504.287 48.6667 508.354 46.95 513.487 46.95C517.787 46.95 521.304 48.1 524.037 50.4C526.804 52.7 528.354 55.8667 528.687 59.9H521.537ZM538.821 47.55V84H531.321V47.55H538.821ZM564.887 76.65H551.237L548.787 84H541.137L554.087 47.55H562.387L574.987 84H567.287L564.887 76.65ZM562.837 70.4L558.087 56.15L553.337 70.4H562.837ZM588.921 53.8V84H581.421V53.8H570.371V47.55H599.571V53.8H588.921ZM610.187 68.3V77.75H629.937V84H602.687V47.55H629.037V53.8H610.187V62.05H627.637V68.3H610.187ZM670.803 76.65H657.153L654.703 84H647.053L660.003 47.55H668.303L680.903 84H673.203L670.803 76.65ZM668.753 70.4L664.003 56.15L659.253 70.4H668.753ZM705.637 84L690.987 58.8V84H683.487V47.55H691.187L705.637 72.35V47.55H713.137V84H705.637ZM9.45 114.3V123.75H29.2V130H1.95V93.55H28.3V99.8H9.45V108.05H26.9V114.3H9.45ZM48.7859 111.4L60.4859 130H51.5859L44.5859 117.35L37.6359 130H28.9359L40.4359 111.65L29.3359 93.55H38.2359L44.6359 105.55L51.3359 93.55H60.0359L48.7859 111.4ZM70.4855 117V130H62.9855V93.55H79.0855C82.8855 93.55 85.7855 94.5167 87.7855 96.45C89.8189 98.3833 90.8355 101.183 90.8355 104.85C90.8355 108.55 89.8355 111.5 87.8355 113.7C85.8355 115.9 83.1689 117 79.8355 117H70.4855ZM70.4855 110.75H77.4855C81.3855 110.75 83.3355 108.933 83.3355 105.3C83.3355 103.433 82.8522 102.05 81.8855 101.15C80.9522 100.25 79.4855 99.8 77.4855 99.8H70.4855V110.75ZM100.235 114.3V123.75H119.985V130H92.7352V93.55H119.085V99.8H100.235V108.05H117.685V114.3H100.235ZM142.785 123.75C142.785 122.75 142.801 121.967 142.835 121.4C142.868 120.833 142.885 120.333 142.885 119.9C142.885 118.367 142.518 117.267 141.785 116.6C141.051 115.9 139.868 115.55 138.235 115.55H129.635V130H122.135V93.55H141.685C143.551 93.55 145.151 93.8667 146.485 94.5C147.851 95.1333 148.868 95.9667 149.535 97C150.235 98.0333 150.735 99.0833 151.035 100.15C151.335 101.183 151.485 102.267 151.485 103.4C151.485 107.8 149.435 110.8 145.335 112.4C146.235 112.767 146.901 113.067 147.335 113.3C147.768 113.5 148.201 113.85 148.635 114.35C149.101 114.85 149.401 115.3 149.535 115.7C149.701 116.1 149.851 116.833 149.985 117.9C150.151 118.967 150.251 120.017 150.285 121.05C150.318 122.083 150.351 123.617 150.385 125.65C150.385 127.05 150.918 128.05 151.985 128.65V130H143.935C143.468 129.133 143.151 128.3 142.985 127.5C142.851 126.7 142.785 125.45 142.785 123.75ZM143.985 104.45C143.985 102.583 143.551 101.35 142.685 100.75C141.818 100.117 140.485 99.8 138.685 99.8H129.635V109.3H138.685C140.451 109.3 141.768 108.983 142.635 108.35C143.535 107.717 143.985 106.417 143.985 104.45ZM162.869 93.55V130H155.369V93.55H162.869ZM175.085 114.3V123.75H194.835V130H167.585V93.55H193.935V99.8H175.085V108.05H192.535V114.3H175.085ZM219.534 130L204.884 104.8V130H197.384V93.55H205.084L219.534 118.35V93.55H227.034V130H219.534ZM254.518 105.9C253.585 101.533 250.985 99.35 246.718 99.35C243.752 99.35 241.435 100.483 239.768 102.75C238.102 105.017 237.268 108.167 237.268 112.2C237.268 116.167 238.068 119.267 239.668 121.5C241.302 123.733 243.568 124.85 246.468 124.85C248.802 124.85 250.668 124.217 252.068 122.95C253.468 121.683 254.285 119.883 254.518 117.55H261.818C261.585 121.717 260.068 125.033 257.268 127.5C254.468 129.933 250.802 131.15 246.268 131.15C241.202 131.15 237.185 129.45 234.218 126.05C231.252 122.617 229.768 117.967 229.768 112.1C229.768 106.2 231.268 101.533 234.268 98.1C237.268 94.6667 241.335 92.95 246.468 92.95C250.768 92.95 254.285 94.1 257.018 96.4C259.785 98.7 261.335 101.867 261.668 105.9H254.518ZM272.352 114.3V123.75H292.102V130H264.852V93.55H291.202V99.8H272.352V108.05H289.802V114.3H272.352ZM294.452 122.7H301.952V129.55C301.952 130.717 301.869 131.717 301.702 132.55C301.569 133.383 301.252 134.267 300.752 135.2C300.285 136.133 299.519 136.9 298.452 137.5C297.419 138.1 296.085 138.5 294.452 138.7V135.9C297.319 135.333 298.752 133.417 298.752 130.15V130H294.452V122.7ZM337.384 130L322.734 104.8V130H315.234V93.55H322.934L337.384 118.35V93.55H344.884V130H337.384ZM352.968 125.8C349.768 122.233 348.168 117.65 348.168 112.05C348.168 106.45 349.768 101.867 352.968 98.3C356.201 94.7333 360.435 92.95 365.668 92.95C370.935 92.95 375.185 94.7333 378.418 98.3C381.651 101.833 383.268 106.5 383.268 112.3C383.268 117.7 381.668 122.2 378.468 125.8C375.301 129.367 371.051 131.15 365.718 131.15C360.418 131.15 356.168 129.367 352.968 125.8ZM365.718 99.35C362.685 99.35 360.251 100.517 358.418 102.85C356.585 105.15 355.668 108.217 355.668 112.05C355.668 115.883 356.585 118.967 358.418 121.3C360.251 123.6 362.685 124.75 365.718 124.75C368.718 124.75 371.135 123.6 372.968 121.3C374.835 119 375.768 115.983 375.768 112.25C375.768 108.317 374.851 105.183 373.018 102.85C371.218 100.517 368.785 99.35 365.718 99.35ZM402.384 99.8V130H394.884V99.8H383.834V93.55H413.034V99.8H402.384ZM442.866 99.8V130H435.366V99.8H424.316V93.55H453.516V99.8H442.866ZM457.983 125.8C454.783 122.233 453.183 117.65 453.183 112.05C453.183 106.45 454.783 101.867 457.983 98.3C461.216 94.7333 465.449 92.95 470.683 92.95C475.949 92.95 480.199 94.7333 483.433 98.3C486.666 101.833 488.283 106.5 488.283 112.3C488.283 117.7 486.683 122.2 483.483 125.8C480.316 129.367 476.066 131.15 470.733 131.15C465.433 131.15 461.183 129.367 457.983 125.8ZM470.733 99.35C467.699 99.35 465.266 100.517 463.433 102.85C461.599 105.15 460.683 108.217 460.683 112.05C460.683 115.883 461.599 118.967 463.433 121.3C465.266 123.6 467.699 124.75 470.733 124.75C473.733 124.75 476.149 123.6 477.983 121.3C479.849 119 480.783 115.983 480.783 112.25C480.783 108.317 479.866 105.183 478.033 102.85C476.233 100.517 473.799 99.35 470.733 99.35ZM498.299 93.55V123.75H515.749V130H490.799V93.55H498.299ZM525.865 114.3V123.75H545.615V130H518.365V93.55H544.715V99.8H525.865V108.05H543.315V114.3H525.865ZM568.965 123.75C568.965 122.75 568.981 121.967 569.015 121.4C569.048 120.833 569.065 120.333 569.065 119.9C569.065 118.367 568.698 117.267 567.965 116.6C567.231 115.9 566.048 115.55 564.415 115.55H555.815V130H548.315V93.55H567.865C569.731 93.55 571.331 93.8667 572.665 94.5C574.031 95.1333 575.048 95.9667 575.715 97C576.415 98.0333 576.915 99.0833 577.215 100.15C577.515 101.183 577.665 102.267 577.665 103.4C577.665 107.8 575.615 110.8 571.515 112.4C572.415 112.767 573.081 113.067 573.515 113.3C573.948 113.5 574.381 113.85 574.815 114.35C575.281 114.85 575.581 115.3 575.715 115.7C575.881 116.1 576.031 116.833 576.165 117.9C576.331 118.967 576.431 120.017 576.465 121.05C576.498 122.083 576.531 123.617 576.565 125.65C576.565 127.05 577.098 128.05 578.165 128.65V130H570.115C569.648 129.133 569.331 128.3 569.165 127.5C569.031 126.7 568.965 125.45 568.965 123.75ZM570.165 104.45C570.165 102.583 569.731 101.35 568.865 100.75C567.998 100.117 566.665 99.8 564.865 99.8H555.815V109.3H564.865C566.631 109.3 567.948 108.983 568.815 108.35C569.715 107.717 570.165 106.417 570.165 104.45ZM603.449 122.65H589.799L587.349 130H579.699L592.649 93.55H600.949L613.549 130H605.849L603.449 122.65ZM601.399 116.4L596.649 102.15L591.899 116.4H601.399ZM627.733 99.8V130H620.233V99.8H609.183V93.55H638.383V99.8H627.733ZM648.549 114.3V123.75H668.299V130H641.049V93.55H667.399V99.8H648.549V108.05H665.999V114.3H648.549ZM691.015 93.55V130H683.515V93.55H691.015ZM711.531 99.8V130H704.031V99.8H692.981V93.55H722.181V99.8H711.531ZM724.547 122.7V130H717.047V122.7H724.547Z" fill="url(#paint0_linear)"/>
<defs>
<linearGradient id="paint0_linear" x1="822.854" y1="-2.99941" x2="-1016.6" y2="173.206" gradientUnits="userSpaceOnUse">
<stop stop-color="#FF007A"/>
<stop offset="1" stop-color="#FF0000"/>
</linearGradient>
</defs>
</svg>
