<svg width="77" height="25" viewBox="0 0 77 25" fill="none" xmlns="http://www.w3.org/2000/svg">
<path d="M12.275 5.5L11.675 6.65C10.525 5.675 9.05 5.075 7.425 5.075C3.55 5.075 0.675 8.025 0.675 11.875C0.675 15.775 3.55 18.65 7.425 18.65C8.725 18.65 9.925 18.275 10.95 17.65V18.05C10.95 19.65 9.7 20.65 8.125 20.65C7 20.65 5.85 20.15 5.525 19.25H1.05C1.675 22.45 4.35 24.375 8.175 24.375C12.625 24.375 15.4 21.75 15.4 17.525V5.525L12.275 5.5ZM8.2 14.825C6.5 14.825 5.3 13.6 5.3 11.875C5.3 10.175 6.525 8.925 8.2 8.925C9.875 8.925 11.075 10.175 11.075 11.875C11.075 13.6 9.875 14.825 8.2 14.825ZM23.9945 19.45C28.3945 19.45 31.5695 16.425 31.5695 12.25C31.5695 8.075 28.3945 5.075 23.9945 5.075C19.5945 5.075 16.4445 8.075 16.4445 12.25C16.4445 16.425 19.5945 19.45 23.9945 19.45ZM23.9945 15.275C22.3195 15.275 21.0945 14.05 21.0945 12.275C21.0945 10.475 22.3195 9.25 23.9945 9.25C25.6945 9.25 26.9195 10.5 26.9195 12.275C26.9195 14.05 25.6945 15.275 23.9945 15.275ZM43.6684 19.45C48.0684 19.45 51.2434 16.425 51.2434 12.25C51.2434 8.075 48.0684 5.075 43.6684 5.075C39.2684 5.075 36.1184 8.075 36.1184 12.25C36.1184 16.425 39.2684 19.45 43.6684 19.45ZM43.6684 15.275C41.9934 15.275 40.7684 14.05 40.7684 12.275C40.7684 10.475 41.9934 9.25 43.6684 9.25C45.3684 9.25 46.5934 10.5 46.5934 12.275C46.5934 14.05 45.3684 15.275 43.6684 15.275ZM61.0775 5.725H57.9025V4.825C57.9025 4.125 58.3025 3.725 59.0025 3.725H61.0525V0.15H57.8025C54.9525 0.15 53.4525 1.725 53.4525 4.45V5.725H51.1525L51.1775 9.375H53.4025V19H58.0525V9.375H61.0775V5.725ZM70.7436 5.725H67.5686V4.825C67.5686 4.125 67.9686 3.725 68.6686 3.725H70.7186V0.15H67.4686C64.6186 0.15 63.1186 1.725 63.1186 4.45V5.725H60.8186L60.8436 9.375H63.0686V19H67.7186V9.375H70.7436V5.725ZM71.6846 13.175H76.0346V0.999999H71.6846V13.175ZM71.6096 19H76.1096V14.7H71.6096V19Z" fill="black"/>
</svg>
