<svg width="99" height="25" viewBox="0 0 99 25" fill="none" xmlns="http://www.w3.org/2000/svg">
<path d="M13.3499 5.07539C12.4801 5.07539 11.7749 5.78054 11.7749 6.65039V6.65039C10.6249 5.67539 9.1499 5.07539 7.5249 5.07539C3.6499 5.07539 0.774902 8.02539 0.774902 11.8754C0.774902 15.7754 3.6499 18.6504 7.5249 18.6504C8.8249 18.6504 10.0249 18.2754 11.0499 17.6504V18.0504C11.0499 19.6504 9.7999 20.6504 8.2249 20.6504C7.7764 20.6504 7.35335 20.5709 6.98615 20.4183C6.04 20.0251 5.12729 19.2504 4.10268 19.2504V19.2504C2.57254 19.2504 1.40017 20.7191 2.35468 21.9151C3.60962 23.4874 5.67702 24.3754 8.2749 24.3754C12.7249 24.3754 15.4999 21.7504 15.4999 17.5254V6.93789C15.4999 5.90926 14.666 5.07539 13.6374 5.07539H13.3499ZM8.5001 14.8254C6.8001 14.8254 5.5 13.6004 5.3999 11.8754C5.5 10.1754 6.8251 8.92539 8.5001 8.92539C10.1751 8.92539 11.3751 10.1754 11.3751 11.8754C11.3751 13.6004 10.1751 14.8254 8.5001 14.8254ZM23.9945 19.4504C28.3945 19.4504 31.5695 16.4254 31.5695 12.2504C31.5695 8.07539 28.3945 5.07539 23.9945 5.07539C19.5945 5.07539 16.4445 8.07539 16.4445 12.2504C16.4445 16.4254 19.5945 19.4504 23.9945 19.4504ZM23.9945 15.2754C22.3195 15.2754 21.0945 14.0504 21.0945 12.2754C21.0945 10.4754 22.3195 9.25039 23.9945 9.25039C25.6945 9.25039 26.9195 10.5004 26.9195 12.2754C26.9195 14.0504 25.6945 15.2754 23.9945 15.2754ZM43.6684 19.4504C48.0684 19.4504 51.2434 16.4254 51.2434 12.2504C51.2434 8.07539 48.0684 5.07539 43.6684 5.07539C39.2684 5.07539 36.1184 8.07539 36.1184 12.2504C36.1184 16.4254 39.2684 19.4504 43.6684 19.4504ZM43.6684 15.2754C41.9934 15.2754 40.7684 14.0504 40.7684 12.2754C40.7684 10.4754 41.9934 9.25039 43.6684 9.25039C45.3684 9.25039 46.5934 10.5004 46.5934 12.2754C46.5934 14.0504 45.3684 15.2754 43.6684 15.2754ZM61.0775 5.72539H57.9025V4.82539C57.9025 4.12539 58.3025 3.72539 59.0025 3.72539H59.265C60.2522 3.72539 61.0525 2.9251 61.0525 1.93789V1.93789C61.0525 0.950682 60.2522 0.150391 59.265 0.150391H57.8025C54.9525 0.150391 53.4525 1.72539 53.4525 4.45039V5.72539H52.99C51.9772 5.72539 51.1581 6.55011 51.1651 7.56289V7.56289C51.172 8.56591 51.987 9.37539 52.99 9.37539H53.4025V16.6754C53.4025 17.9595 54.4434 19.0004 55.7275 19.0004V19.0004C57.0116 19.0004 58.0525 17.9595 58.0525 16.6754V9.37539H61.0775V5.72539ZM69.7436 7.55039C69.7436 6.54247 68.9265 5.72539 67.9186 5.72539H66.5686V4.82539C66.5686 4.12539 66.9686 3.72539 67.6686 3.72539H67.9311C68.9183 3.72539 69.7186 2.9251 69.7186 1.93789V1.93789C69.7186 0.950682 68.9183 0.150391 67.9311 0.150391H66.4686C63.6186 0.150391 62.1186 1.72539 62.1186 4.45039V5.72539H60.8186L60.8436 9.37539H62.0686V16.6754C62.0686 17.9595 63.1095 19.0004 64.3936 19.0004V19.0004C65.6777 19.0004 66.7186 17.9595 66.7186 16.6754V9.37539H67.9186C68.9265 9.37539 69.7436 8.55831 69.7436 7.55039V7.55039ZM71.0002 11.0004C71.0002 12.2016 71.974 13.1754 73.1752 13.1754V13.1754C74.3764 13.1754 75.3502 12.2016 75.3502 11.0004V2.32539C75.3502 1.12417 74.3764 0.150391 73.1752 0.150391V0.150391C71.974 0.150391 71.0002 1.12417 71.0002 2.32539V11.0004ZM70.9252 16.8504C70.9252 18.0378 71.8878 19.0004 73.0752 19.0004H73.2752C74.4626 19.0004 75.4252 18.0378 75.4252 16.8504V16.8504C75.4252 15.663 74.4626 14.7004 73.2752 14.7004H73.0752C71.8878 14.7004 70.9252 15.663 70.9252 16.8504V16.8504Z" fill="black"/>
<path d="M99 12.0652V2.66667C99 2.43668 99 2.21325 99 1.99998C99 0.895409 98.1046 0 97 0H82C80.8954 0 80 0.895347 80 1.99988C80 2.21318 80 2.43664 80 2.66667V17.9628C80 18.8405 81.05 19.2924 81.6874 18.689L85.868 14.7319H97C98.1046 14.7319 99 13.8365 99 12.7319C99 12.5186 99 12.2952 99 12.0652Z" fill="url(#paint0_linear)"/>
<defs>
<linearGradient id="paint0_linear" x1="89.5" y1="0" x2="89.5" y2="24" gradientUnits="userSpaceOnUse">
<stop stop-color="#3A86FF"/>
<stop offset="1" stop-color="#4865FE"/>
</linearGradient>
</defs>
</svg>
