<svg width="55" height="20" viewBox="0 0 55 20" fill="none" xmlns="http://www.w3.org/2000/svg">
<path d="M12.275 0.499999L11.675 1.65C10.525 0.674999 9.05 0.074999 7.425 0.074999C3.55 0.074999 0.675 3.025 0.675 6.875C0.675 10.775 3.55 13.65 7.425 13.65C8.725 13.65 9.925 13.275 10.95 12.65V13.05C10.95 14.65 9.7 15.65 8.125 15.65C7 15.65 5.85 15.15 5.525 14.25H1.05C1.675 17.45 4.35 19.375 8.175 19.375C12.625 19.375 15.4 16.75 15.4 12.525V0.524999L12.275 0.499999ZM8.2 9.825C6.5 9.825 5.3 8.6 5.3 6.875C5.3 5.175 6.525 3.925 8.2 3.925C9.875 3.925 11.075 5.175 11.075 6.875C11.075 8.6 9.875 9.825 8.2 9.825ZM23.9945 14.45C28.3945 14.45 31.5695 11.425 31.5695 7.25C31.5695 3.075 28.3945 0.074999 23.9945 0.074999C19.5945 0.074999 16.4445 3.075 16.4445 7.25C16.4445 11.425 19.5945 14.45 23.9945 14.45ZM23.9945 10.275C22.3195 10.275 21.0945 9.05 21.0945 7.275C21.0945 5.475 22.3195 4.25 23.9945 4.25C25.6945 4.25 26.9195 5.5 26.9195 7.275C26.9195 9.05 25.6945 10.275 23.9945 10.275ZM36.3794 14.252C38.8434 14.252 40.6214 12.558 40.6214 10.22C40.6214 7.882 38.8434 6.202 36.3794 6.202C33.9154 6.202 32.1514 7.882 32.1514 10.22C32.1514 12.558 33.9154 14.252 36.3794 14.252ZM36.3794 11.914C35.4414 11.914 34.7554 11.228 34.7554 10.234C34.7554 9.226 35.4414 8.54 36.3794 8.54C37.3314 8.54 38.0174 9.24 38.0174 10.234C38.0174 11.228 37.3314 11.914 36.3794 11.914ZM46.3916 6.566H44.6136V6.062C44.6136 5.67 44.8376 5.446 45.2296 5.446H46.3776V3.444H44.5576C42.9616 3.444 42.1216 4.326 42.1216 5.852V6.566H40.8336L40.8476 8.61H42.0936V14H44.6976V8.61H46.3916V6.566ZM51.8046 6.566H50.0266V6.062C50.0266 5.67 50.2506 5.446 50.6426 5.446H51.7906V3.444H49.9706C48.3746 3.444 47.5346 4.326 47.5346 5.852V6.566H46.2466L46.2606 8.61H47.5066V14H50.1106V8.61H51.8046V6.566ZM52.4716 10.738H54.9076V3.92H52.4716V10.738ZM52.4296 14H54.9496V11.592H52.4296V14Z" fill="#3A86FF"/>
</svg>
