<svg width="168" height="16" viewBox="0 0 168 16" fill="none" xmlns="http://www.w3.org/2000/svg">
<path d="M11.4 5.04C10.8667 3.48 9.70667 2.7 7.92 2.7C6.65333 2.7 5.65333 3.14667 4.92 4.04C4.2 4.93333 3.84 6.16667 3.84 7.74C3.84 9.23333 4.22667 10.46 5 11.42C5.78667 12.38 6.78667 12.86 8 12.86C8.18667 12.86 8.4 12.84 8.64 12.8C8.89333 12.7467 9.19333 12.6533 9.54 12.52C9.88667 12.3733 10.2067 12.1867 10.5 11.96C10.7933 11.7333 11.0533 11.42 11.28 11.02C11.5067 10.6067 11.6467 10.14 11.7 9.62H8.38V7.12H14.22V15H12.42L12.06 13.08C11.5 13.8933 10.8733 14.4867 10.18 14.86C9.48667 15.2333 8.64667 15.42 7.66 15.42C5.68667 15.42 4.05333 14.7 2.76 13.26C1.48 11.82 0.84 9.99333 0.84 7.78C0.84 5.51333 1.49333 3.67333 2.8 2.26C4.10667 0.846666 5.80667 0.139999 7.9 0.139999C9.66 0.139999 11.1067 0.579999 12.24 1.46C13.3733 2.34 14.0333 3.53333 14.22 5.04H11.4ZM25.4264 12.5C25.4264 12.1 25.4331 11.7867 25.4464 11.56C25.4597 11.3333 25.4664 11.1333 25.4664 10.96C25.4664 10.3467 25.3197 9.90667 25.0264 9.64C24.7331 9.36 24.2597 9.22 23.6064 9.22H20.1664V15H17.1664V0.419999H24.9864C25.7331 0.419999 26.3731 0.546666 26.9064 0.799999C27.4531 1.05333 27.8597 1.38667 28.1264 1.8C28.4064 2.21333 28.6064 2.63333 28.7264 3.06C28.8464 3.47333 28.9064 3.90667 28.9064 4.36C28.9064 6.12 28.0864 7.32 26.4464 7.96C26.8064 8.10667 27.0731 8.22667 27.2464 8.32C27.4197 8.4 27.5931 8.54 27.7664 8.74C27.9531 8.94 28.0731 9.12 28.1264 9.28C28.1931 9.44 28.2531 9.73333 28.3064 10.16C28.3731 10.5867 28.4131 11.0067 28.4264 11.42C28.4397 11.8333 28.4531 12.4467 28.4664 13.26C28.4664 13.82 28.6797 14.22 29.1064 14.46V15H25.8864C25.6997 14.6533 25.5731 14.32 25.5064 14C25.4531 13.68 25.4264 13.18 25.4264 12.5ZM25.9064 4.78C25.9064 4.03333 25.7331 3.54 25.3864 3.3C25.0397 3.04667 24.5064 2.92 23.7864 2.92H20.1664V6.72H23.7864C24.4931 6.72 25.0197 6.59333 25.3664 6.34C25.7264 6.08667 25.9064 5.56667 25.9064 4.78ZM39.8247 12.06H34.3647L33.3847 15H30.3247L35.5047 0.419999H38.8247L43.8647 15H40.7847L39.8247 12.06ZM39.0047 9.56L37.1047 3.86L35.2047 9.56H39.0047ZM48.7583 9.8V15H45.7583V0.419999H52.1983C53.7183 0.419999 54.8783 0.806666 55.6783 1.58C56.4916 2.35333 56.8983 3.47333 56.8983 4.94C56.8983 6.42 56.4983 7.6 55.6983 8.48C54.8983 9.36 53.8316 9.8 52.4983 9.8H48.7583ZM48.7583 7.3H51.5583C53.1183 7.3 53.8983 6.57333 53.8983 5.12C53.8983 4.37333 53.7049 3.82 53.3183 3.46C52.9449 3.1 52.3583 2.92 51.5583 2.92H48.7583V7.3ZM66.9173 8.38H61.1373V15H58.1373V0.419999H61.1373V5.88H66.8973V0.419999H69.9173V15H66.9173V8.38ZM75.2756 0.419999V15H72.2756V0.419999H75.2756ZM86.4636 5.36C86.0903 3.61333 85.0503 2.74 83.3436 2.74C82.1569 2.74 81.2303 3.19333 80.5636 4.1C79.8969 5.00667 79.5636 6.26667 79.5636 7.88C79.5636 9.46667 79.8836 10.7067 80.5236 11.6C81.1769 12.4933 82.0836 12.94 83.2436 12.94C84.1769 12.94 84.9236 12.6867 85.4836 12.18C86.0436 11.6733 86.3703 10.9533 86.4636 10.02H89.3836C89.2903 11.6867 88.6836 13.0133 87.5636 14C86.4436 14.9733 84.9769 15.46 83.1636 15.46C81.1369 15.46 79.5303 14.78 78.3436 13.42C77.1569 12.0467 76.5636 10.1867 76.5636 7.84C76.5636 5.48 77.1636 3.61333 78.3636 2.24C79.5636 0.866666 81.1903 0.179999 83.2436 0.179999C84.9636 0.179999 86.3703 0.639999 87.4636 1.56C88.5703 2.48 89.1903 3.74667 89.3236 5.36H86.4636ZM97.2236 15V0.419999H102.924C104.044 0.419999 104.964 0.553333 105.684 0.819999C106.417 1.08667 107.03 1.51333 107.524 2.1C108.71 3.51333 109.304 5.38 109.304 7.7C109.304 10.0467 108.71 11.9133 107.524 13.3C106.577 14.4333 105.044 15 102.924 15H97.2236ZM100.224 12.5H102.924C105.177 12.5 106.304 10.9067 106.304 7.72C106.304 4.52 105.177 2.92 102.924 2.92H100.224V12.5ZM113.799 8.72V12.5H121.699V15H110.799V0.419999H121.339V2.92H113.799V6.22H120.779V8.72H113.799ZM133.703 4.86H130.903C130.796 3.34 129.776 2.58 127.843 2.58C127.069 2.58 126.456 2.74667 126.003 3.08C125.549 3.4 125.323 3.83333 125.323 4.38C125.323 4.91333 125.516 5.31333 125.903 5.58C126.289 5.83333 127.016 6.06667 128.083 6.28L130.363 6.72C131.709 6.98667 132.689 7.44 133.303 8.08C133.916 8.70667 134.223 9.59333 134.223 10.74C134.223 12.22 133.696 13.38 132.643 14.22C131.589 15.0467 130.123 15.46 128.243 15.46C126.376 15.46 124.923 15.0467 123.883 14.22C122.856 13.3933 122.296 12.2 122.203 10.64H125.123C125.176 11.4267 125.483 12.0267 126.043 12.44C126.603 12.8533 127.389 13.06 128.403 13.06C129.309 13.06 130.023 12.8867 130.543 12.54C131.076 12.1933 131.343 11.7133 131.343 11.1C131.343 10.5133 131.136 10.06 130.723 9.74C130.309 9.42 129.603 9.16667 128.603 8.98L126.562 8.58C125.083 8.3 124.029 7.86 123.403 7.26C122.776 6.66 122.463 5.79333 122.463 4.66C122.463 3.23333 122.943 2.13333 123.903 1.36C124.876 0.573332 126.236 0.179999 127.983 0.179999C128.489 0.179999 128.976 0.213332 129.443 0.279999C129.923 0.346666 130.429 0.486666 130.963 0.699999C131.496 0.899999 131.956 1.16667 132.343 1.5C132.729 1.82 133.049 2.27333 133.303 2.86C133.569 3.43333 133.703 4.1 133.703 4.86ZM138.772 0.419999V15H135.772V0.419999H138.772ZM150.58 5.04C150.046 3.48 148.886 2.7 147.1 2.7C145.833 2.7 144.833 3.14667 144.1 4.04C143.38 4.93333 143.02 6.16667 143.02 7.74C143.02 9.23333 143.406 10.46 144.18 11.42C144.966 12.38 145.966 12.86 147.18 12.86C147.366 12.86 147.58 12.84 147.82 12.8C148.073 12.7467 148.373 12.6533 148.72 12.52C149.066 12.3733 149.386 12.1867 149.68 11.96C149.973 11.7333 150.233 11.42 150.46 11.02C150.686 10.6067 150.826 10.14 150.88 9.62H147.56V7.12H153.4V15H151.6L151.24 13.08C150.68 13.8933 150.053 14.4867 149.36 14.86C148.666 15.2333 147.826 15.42 146.84 15.42C144.866 15.42 143.233 14.7 141.94 13.26C140.66 11.82 140.02 9.99333 140.02 7.78C140.02 5.51333 140.673 3.67333 141.98 2.26C143.286 0.846666 144.986 0.139999 147.08 0.139999C148.84 0.139999 150.286 0.579999 151.42 1.46C152.553 2.34 153.213 3.53333 153.4 5.04H150.58ZM164.165 15L158.305 4.92V15H155.305V0.419999H158.385L164.165 10.34V0.419999H167.165V15H164.165Z" fill="white"/>
</svg>
