<svg width="529" height="128" viewBox="0 0 529 128" fill="none" xmlns="http://www.w3.org/2000/svg">
<path d="M50.7 42.9H21.8V76H6.8V3.1H21.8V30.4H50.6V3.1H65.7V76H50.7V42.9ZM107.568 49V76H92.568V49L68.368 3.1H85.068L99.968 35.3L113.868 3.1H130.668L107.568 49ZM148.967 50V76H133.967V3.1H166.167C173.767 3.1 179.567 5.03333 183.567 8.9C187.634 12.7667 189.667 18.3667 189.667 25.7C189.667 33.1 187.667 39 183.667 43.4C179.667 47.8 174.334 50 167.667 50H148.967ZM148.967 37.5H162.967C170.767 37.5 174.667 33.8667 174.667 26.6C174.667 22.8667 173.701 20.1 171.767 18.3C169.901 16.5 166.967 15.6 162.967 15.6H148.967V37.5ZM209.466 44.6V63.5H248.966V76H194.466V3.1H247.166V15.6H209.466V32.1H244.366V44.6H209.466ZM294.566 63.5C294.566 61.5 294.599 59.9333 294.666 58.8C294.732 57.6667 294.766 56.6667 294.766 55.8C294.766 52.7333 294.032 50.5333 292.566 49.2C291.099 47.8 288.732 47.1 285.466 47.1H268.266V76H253.266V3.1H292.366C296.099 3.1 299.299 3.73333 301.966 5C304.699 6.26666 306.732 7.93333 308.066 10C309.466 12.0667 310.466 14.1667 311.066 16.3C311.666 18.3667 311.966 20.5333 311.966 22.8C311.966 31.6 307.866 37.6 299.666 40.8C301.466 41.5333 302.799 42.1333 303.666 42.6C304.532 43 305.399 43.7 306.266 44.7C307.199 45.7 307.799 46.6 308.066 47.4C308.399 48.2 308.699 49.6667 308.966 51.8C309.299 53.9333 309.499 56.0333 309.566 58.1C309.632 60.1667 309.699 63.2333 309.766 67.3C309.766 70.1 310.832 72.1 312.966 73.3V76H296.866C295.932 74.2667 295.299 72.6 294.966 71C294.699 69.4 294.566 66.9 294.566 63.5ZM296.966 24.9C296.966 21.1667 296.099 18.7 294.366 17.5C292.632 16.2333 289.966 15.6 286.366 15.6H268.266V34.6H286.366C289.899 34.6 292.532 33.9667 294.266 32.7C296.066 31.4333 296.966 28.8333 296.966 24.9ZM375.534 55C375.534 57.4 375.134 59.7333 374.334 62C373.534 64.2667 372.234 66.5 370.434 68.7C368.7 70.9 366.067 72.6667 362.534 74C359 75.3333 354.8 76 349.934 76H317.134V3.1H349.634C354.167 3.1 358.067 3.76666 361.334 5.09999C364.667 6.43333 367.134 8.16667 368.734 10.3C370.4 12.3667 371.6 14.4 372.334 16.4C373.067 18.4 373.434 20.3667 373.434 22.3C373.434 25.4333 372.667 28.1333 371.134 30.4C369.6 32.6667 367.034 34.9667 363.434 37.3C371.5 42.0333 375.534 47.9333 375.534 55ZM332.134 15.6V32.1H348.434C355.5 32.1 359.034 29.3667 359.034 23.9C359.034 18.3667 355.5 15.6 348.434 15.6H332.134ZM332.134 44.6V63.5H350.034C357.434 63.5 361.134 60.3667 361.134 54.1C361.134 47.7667 357.434 44.6 350.034 44.6H332.134ZM387.674 67.6C381.274 60.4667 378.074 51.3 378.074 40.1C378.074 28.9 381.274 19.7333 387.674 12.6C394.141 5.46666 402.608 1.89999 413.074 1.89999C423.608 1.89999 432.108 5.46666 438.574 12.6C445.041 19.6667 448.274 29 448.274 40.6C448.274 51.4 445.074 60.4 438.674 67.6C432.341 74.7333 423.841 78.3 413.174 78.3C402.574 78.3 394.074 74.7333 387.674 67.6ZM413.174 14.7C407.108 14.7 402.241 17.0333 398.574 21.7C394.908 26.3 393.074 32.4333 393.074 40.1C393.074 47.7667 394.908 53.9333 398.574 58.6C402.241 63.2 407.108 65.5 413.174 65.5C419.174 65.5 424.008 63.2 427.674 58.6C431.408 54 433.274 47.9667 433.274 40.5C433.274 32.6333 431.441 26.3667 427.774 21.7C424.174 17.0333 419.308 14.7 413.174 14.7ZM482.402 15.6V76H467.402V15.6H445.302V3.1H503.702V15.6H482.402Z" fill="url(#paint0_linear)"/>
<path d="M10.78 118.2V126H6.28V104.13H15.94C18.22 104.13 19.96 104.71 21.16 105.87C22.38 107.03 22.99 108.71 22.99 110.91C22.99 113.13 22.39 114.9 21.19 116.22C19.99 117.54 18.39 118.2 16.39 118.2H10.78ZM10.78 114.45H14.98C17.32 114.45 18.49 113.36 18.49 111.18C18.49 110.06 18.2 109.23 17.62 108.69C17.06 108.15 16.18 107.88 14.98 107.88H10.78V114.45ZM37.5998 122.25C37.5998 121.65 37.6098 121.18 37.6298 120.84C37.6498 120.5 37.6598 120.2 37.6598 119.94C37.6598 119.02 37.4398 118.36 36.9998 117.96C36.5598 117.54 35.8498 117.33 34.8698 117.33H29.7098V126H25.2098V104.13H36.9398C38.0598 104.13 39.0198 104.32 39.8198 104.7C40.6398 105.08 41.2498 105.58 41.6498 106.2C42.0698 106.82 42.3698 107.45 42.5498 108.09C42.7298 108.71 42.8198 109.36 42.8198 110.04C42.8198 112.68 41.5898 114.48 39.1298 115.44C39.6698 115.66 40.0698 115.84 40.3298 115.98C40.5898 116.1 40.8498 116.31 41.1098 116.61C41.3898 116.91 41.5698 117.18 41.6498 117.42C41.7498 117.66 41.8398 118.1 41.9198 118.74C42.0198 119.38 42.0798 120.01 42.0998 120.63C42.1198 121.25 42.1398 122.17 42.1598 123.39C42.1598 124.23 42.4798 124.83 43.1198 125.19V126H38.2898C38.0098 125.48 37.8198 124.98 37.7198 124.5C37.6398 124.02 37.5998 123.27 37.5998 122.25ZM38.3198 110.67C38.3198 109.55 38.0598 108.81 37.5398 108.45C37.0198 108.07 36.2198 107.88 35.1398 107.88H29.7098V113.58H35.1398C36.1998 113.58 36.9898 113.39 37.5098 113.01C38.0498 112.63 38.3198 111.85 38.3198 110.67ZM47.0472 123.48C45.1272 121.34 44.1672 118.59 44.1672 115.23C44.1672 111.87 45.1272 109.12 47.0472 106.98C48.9872 104.84 51.5272 103.77 54.6672 103.77C57.8272 103.77 60.3772 104.84 62.3172 106.98C64.2572 109.1 65.2272 111.9 65.2272 115.38C65.2272 118.62 64.2672 121.32 62.3472 123.48C60.4472 125.62 57.8972 126.69 54.6972 126.69C51.5172 126.69 48.9672 125.62 47.0472 123.48ZM54.6972 107.61C52.8772 107.61 51.4172 108.31 50.3172 109.71C49.2172 111.09 48.6672 112.93 48.6672 115.23C48.6672 117.53 49.2172 119.38 50.3172 120.78C51.4172 122.16 52.8772 122.85 54.6972 122.85C56.4972 122.85 57.9472 122.16 59.0472 120.78C60.1672 119.4 60.7272 117.59 60.7272 115.35C60.7272 112.99 60.1772 111.11 59.0772 109.71C57.9972 108.31 56.5372 107.61 54.6972 107.61ZM67.4268 126V104.13H75.9768C77.6568 104.13 79.0368 104.33 80.1168 104.73C81.2168 105.13 82.1368 105.77 82.8768 106.65C84.6568 108.77 85.5468 111.57 85.5468 115.05C85.5468 118.57 84.6568 121.37 82.8768 123.45C81.4568 125.15 79.1568 126 75.9768 126H67.4268ZM71.9268 122.25H75.9768C79.3568 122.25 81.0468 119.86 81.0468 115.08C81.0468 110.28 79.3568 107.88 75.9768 107.88H71.9268V122.25ZM98.8272 126.48C98.0872 126.62 97.3172 126.69 96.5172 126.69C95.7172 126.69 94.9372 126.62 94.1772 126.48C93.4372 126.34 92.6672 126.09 91.8672 125.73C91.0872 125.37 90.4072 124.91 89.8272 124.35C89.2472 123.79 88.7672 123.05 88.3872 122.13C88.0272 121.19 87.8472 120.13 87.8472 118.95V104.13H92.3472V118.95C92.3472 121.55 93.7372 122.85 96.5172 122.85C99.2972 122.85 100.687 121.55 100.687 118.95V104.13H105.187V118.95C105.187 120.13 104.997 121.19 104.617 122.13C104.257 123.05 103.787 123.79 103.207 124.35C102.627 124.91 101.937 125.37 101.137 125.73C100.357 126.09 99.5872 126.34 98.8272 126.48ZM122.188 111.54C121.628 108.92 120.068 107.61 117.508 107.61C115.728 107.61 114.338 108.29 113.338 109.65C112.338 111.01 111.838 112.9 111.838 115.32C111.838 117.7 112.318 119.56 113.278 120.9C114.258 122.24 115.618 122.91 117.358 122.91C118.758 122.91 119.878 122.53 120.718 121.77C121.558 121.01 122.048 119.93 122.188 118.53H126.568C126.428 121.03 125.518 123.02 123.838 124.5C122.158 125.96 119.958 126.69 117.238 126.69C114.198 126.69 111.788 125.67 110.008 123.63C108.228 121.57 107.338 118.78 107.338 115.26C107.338 111.72 108.238 108.92 110.038 106.86C111.838 104.8 114.278 103.77 117.358 103.77C119.938 103.77 122.048 104.46 123.688 105.84C125.348 107.22 126.278 109.12 126.478 111.54H122.188ZM136.817 107.88V126H132.317V107.88H125.687V104.13H143.207V107.88H136.817ZM151.866 126V104.13H160.416C162.096 104.13 163.476 104.33 164.556 104.73C165.656 105.13 166.576 105.77 167.316 106.65C169.096 108.77 169.986 111.57 169.986 115.05C169.986 118.57 169.096 121.37 167.316 123.45C165.896 125.15 163.596 126 160.416 126H151.866ZM156.366 122.25H160.416C163.796 122.25 165.486 119.86 165.486 115.08C165.486 110.28 163.796 107.88 160.416 107.88H156.366V122.25ZM175.529 116.58V122.25H187.379V126H171.029V104.13H186.839V107.88H175.529V112.83H185.999V116.58H175.529ZM204.185 110.79H199.985C199.825 108.51 198.295 107.37 195.395 107.37C194.235 107.37 193.315 107.62 192.635 108.12C191.955 108.6 191.615 109.25 191.615 110.07C191.615 110.87 191.905 111.47 192.485 111.87C193.065 112.25 194.155 112.6 195.755 112.92L199.175 113.58C201.195 113.98 202.665 114.66 203.585 115.62C204.505 116.56 204.965 117.89 204.965 119.61C204.965 121.83 204.175 123.57 202.595 124.83C201.015 126.07 198.815 126.69 195.995 126.69C193.195 126.69 191.015 126.07 189.455 124.83C187.915 123.59 187.075 121.8 186.935 119.46H191.315C191.395 120.64 191.855 121.54 192.695 122.16C193.535 122.78 194.715 123.09 196.235 123.09C197.595 123.09 198.665 122.83 199.445 122.31C200.245 121.79 200.645 121.07 200.645 120.15C200.645 119.27 200.335 118.59 199.715 118.11C199.095 117.63 198.035 117.25 196.535 116.97L193.475 116.37C191.255 115.95 189.675 115.29 188.735 114.39C187.795 113.49 187.325 112.19 187.325 110.49C187.325 108.35 188.045 106.7 189.485 105.54C190.945 104.36 192.985 103.77 195.605 103.77C196.365 103.77 197.095 103.82 197.795 103.92C198.515 104.02 199.275 104.23 200.075 104.55C200.875 104.85 201.565 105.25 202.145 105.75C202.725 106.23 203.205 106.91 203.585 107.79C203.985 108.65 204.185 109.65 204.185 110.79ZM210.588 104.13V126H206.088V104.13H210.588ZM227.1 111.06C226.3 108.72 224.56 107.55 221.88 107.55C219.98 107.55 218.48 108.22 217.38 109.56C216.3 110.9 215.76 112.75 215.76 115.11C215.76 117.35 216.34 119.19 217.5 120.63C218.68 122.07 220.18 122.79 222 122.79C222.28 122.79 222.6 122.76 222.96 122.7C223.34 122.62 223.79 122.48 224.31 122.28C224.83 122.06 225.31 121.78 225.75 121.44C226.19 121.1 226.58 120.63 226.92 120.03C227.26 119.41 227.47 118.71 227.55 117.93H222.57V114.18H231.33V126H228.63L228.09 123.12C227.25 124.34 226.31 125.23 225.27 125.79C224.23 126.35 222.97 126.63 221.49 126.63C218.53 126.63 216.08 125.55 214.14 123.39C212.22 121.23 211.26 118.49 211.26 115.17C211.26 111.77 212.24 109.01 214.2 106.89C216.16 104.77 218.71 103.71 221.85 103.71C224.49 103.71 226.66 104.37 228.36 105.69C230.06 107.01 231.05 108.8 231.33 111.06H227.1ZM246.279 126L237.489 110.88V126H232.989V104.13H237.609L246.279 119.01V104.13H250.779V126H246.279Z" fill="white"/>
<defs>
<linearGradient id="paint0_linear" x1="592.06" y1="0.000349163" x2="-722.764" y2="152.143" gradientUnits="userSpaceOnUse">
<stop stop-color="#FF007A"/>
<stop offset="1" stop-color="#FF0000"/>
</linearGradient>
</defs>
</svg>
