<svg width="122" height="51" viewBox="0 0 122 51" fill="none" xmlns="http://www.w3.org/2000/svg">
<path d="M7.00961 23.69C6.18961 23.69 5.39961 23.59 4.63961 23.39C3.89961 23.19 3.17961 22.86 2.47961 22.4C1.77961 21.92 1.21961 21.23 0.799609 20.33C0.379609 19.41 0.169609 18.32 0.169609 17.06V14.9H4.66961V17C4.66961 18 4.85961 18.73 5.23961 19.19C5.61961 19.63 6.23961 19.85 7.09961 19.85C7.87961 19.85 8.47961 19.63 8.89961 19.19C9.31961 18.75 9.52961 18.12 9.52961 17.3V1.13H14.0296V17.3C14.0296 19.34 13.4196 20.92 12.1996 22.04C10.9796 23.14 9.24961 23.69 7.00961 23.69ZM28.8995 18.59H20.7095L19.2395 23H14.6495L22.4195 1.13H27.3995L34.9595 23H30.3395L28.8995 18.59ZM27.6695 14.84L24.8195 6.29L21.9695 14.84H27.6695ZM49.1399 8.54C48.5799 5.92 47.0199 4.61 44.4599 4.61C42.6799 4.61 41.2899 5.29 40.2899 6.65C39.2899 8.01 38.7899 9.9 38.7899 12.32C38.7899 14.7 39.2699 16.56 40.2299 17.9C41.2099 19.24 42.5699 19.91 44.3099 19.91C45.7099 19.91 46.8299 19.53 47.6699 18.77C48.5099 18.01 48.9999 16.93 49.1399 15.53H53.5199C53.3799 18.03 52.4699 20.02 50.7899 21.5C49.1099 22.96 46.9099 23.69 44.1899 23.69C41.1499 23.69 38.7399 22.67 36.9599 20.63C35.1799 18.57 34.2899 15.78 34.2899 12.26C34.2899 8.72 35.1899 5.92 36.9899 3.86C38.7899 1.8 41.2299 0.769998 44.3099 0.769998C46.8899 0.769998 48.9999 1.46 50.6399 2.84C52.2999 4.22 53.2299 6.12 53.4299 8.54H49.1399ZM57.9503 20.48C56.0303 18.34 55.0703 15.59 55.0703 12.23C55.0703 8.87 56.0303 6.12 57.9503 3.98C59.8903 1.84 62.4303 0.769998 65.5703 0.769998C68.7303 0.769998 71.2803 1.84 73.2203 3.98C75.1603 6.1 76.1303 8.9 76.1303 12.38C76.1303 15.62 75.1703 18.32 73.2503 20.48C71.3503 22.62 68.8003 23.69 65.6003 23.69C62.4203 23.69 59.8703 22.62 57.9503 20.48ZM65.6003 4.61C63.7803 4.61 62.3203 5.31 61.2203 6.71C60.1203 8.09 59.5703 9.93 59.5703 12.23C59.5703 14.53 60.1203 16.38 61.2203 17.78C62.3203 19.16 63.7803 19.85 65.6003 19.85C67.4003 19.85 68.8503 19.16 69.9503 17.78C71.0703 16.4 71.6303 14.59 71.6303 12.35C71.6303 9.99 71.0803 8.11 69.9803 6.71C68.9003 5.31 67.4403 4.61 65.6003 4.61ZM95.2499 16.7C95.2499 17.42 95.1299 18.12 94.8899 18.8C94.6499 19.48 94.2599 20.15 93.7199 20.81C93.1999 21.47 92.4099 22 91.3499 22.4C90.2899 22.8 89.0299 23 87.5699 23H77.7299V1.13H87.4799C88.8399 1.13 90.0099 1.33 90.9899 1.73C91.9899 2.13 92.7299 2.65 93.2099 3.29C93.7099 3.91 94.0699 4.52 94.2899 5.12C94.5099 5.72 94.6199 6.31 94.6199 6.89C94.6199 7.83 94.3899 8.64 93.9299 9.32C93.4699 10 92.6999 10.69 91.6199 11.39C94.0399 12.81 95.2499 14.58 95.2499 16.7ZM82.2299 4.88V9.83H87.1199C89.2399 9.83 90.2999 9.01 90.2999 7.37C90.2999 5.71 89.2399 4.88 87.1199 4.88H82.2299ZM82.2299 13.58V19.25H87.5999C89.8199 19.25 90.9299 18.31 90.9299 16.43C90.9299 14.53 89.8199 13.58 87.5999 13.58H82.2299ZM4.72 42.68V50H0.22V28.13H4.72V37.73L13.27 28.13H18.58L9.85 37.55L19.51 50H14.14L6.97 40.34L4.72 42.68ZM30.6604 50.48C29.9204 50.62 29.1504 50.69 28.3504 50.69C27.5504 50.69 26.7704 50.62 26.0104 50.48C25.2704 50.34 24.5004 50.09 23.7004 49.73C22.9204 49.37 22.2404 48.91 21.6604 48.35C21.0804 47.79 20.6004 47.05 20.2204 46.13C19.8604 45.19 19.6804 44.13 19.6804 42.95V28.13H24.1804V42.95C24.1804 45.55 25.5704 46.85 28.3504 46.85C31.1304 46.85 32.5204 45.55 32.5204 42.95V28.13H37.0204V42.95C37.0204 44.13 36.8304 45.19 36.4504 46.13C36.0904 47.05 35.6204 47.79 35.0404 48.35C34.4604 48.91 33.7704 49.37 32.9704 49.73C32.1904 50.09 31.4204 50.34 30.6604 50.48ZM53.2708 35.54C52.7108 32.92 51.1508 31.61 48.5908 31.61C46.8108 31.61 45.4208 32.29 44.4208 33.65C43.4208 35.01 42.9208 36.9 42.9208 39.32C42.9208 41.7 43.4008 43.56 44.3608 44.9C45.3408 46.24 46.7008 46.91 48.4408 46.91C49.8408 46.91 50.9608 46.53 51.8008 45.77C52.6408 45.01 53.1308 43.93 53.2708 42.53H57.6508C57.5108 45.03 56.6008 47.02 54.9208 48.5C53.2408 49.96 51.0408 50.69 48.3208 50.69C45.2808 50.69 42.8708 49.67 41.0908 47.63C39.3108 45.57 38.4208 42.78 38.4208 39.26C38.4208 35.72 39.3208 32.92 41.1208 30.86C42.9208 28.8 45.3608 27.77 48.4408 27.77C51.0208 27.77 53.1308 28.46 54.7708 29.84C56.4308 31.22 57.3608 33.12 57.5608 35.54H53.2708ZM63.8212 40.58V46.25H75.6712V50H59.3212V28.13H75.1312V31.88H63.8212V36.83H74.2912V40.58H63.8212ZM89.5009 46.25C89.5009 45.65 89.5109 45.18 89.5309 44.84C89.5509 44.5 89.5609 44.2 89.5609 43.94C89.5609 43.02 89.3409 42.36 88.9009 41.96C88.4609 41.54 87.7509 41.33 86.7709 41.33H81.6109V50H77.1109V28.13H88.8409C89.9609 28.13 90.9209 28.32 91.7209 28.7C92.5409 29.08 93.1509 29.58 93.5509 30.2C93.9709 30.82 94.2709 31.45 94.4509 32.09C94.6309 32.71 94.7209 33.36 94.7209 34.04C94.7209 36.68 93.4909 38.48 91.0309 39.44C91.5709 39.66 91.9709 39.84 92.2309 39.98C92.4909 40.1 92.7509 40.31 93.0109 40.61C93.2909 40.91 93.4709 41.18 93.5509 41.42C93.6509 41.66 93.7409 42.1 93.8209 42.74C93.9209 43.38 93.9809 44.01 94.0009 44.63C94.0209 45.25 94.0409 46.17 94.0609 47.39C94.0609 48.23 94.3809 48.83 95.0209 49.19V50H90.1909C89.9109 49.48 89.7209 48.98 89.6209 48.5C89.5409 48.02 89.5009 47.27 89.5009 46.25ZM90.2209 34.67C90.2209 33.55 89.9609 32.81 89.4409 32.45C88.9209 32.07 88.1209 31.88 87.0409 31.88H81.6109V37.58H87.0409C88.1009 37.58 88.8909 37.39 89.4109 37.01C89.9509 36.63 90.2209 35.85 90.2209 34.67ZM110.041 45.59H101.851L100.381 50H95.7913L103.561 28.13H108.541L116.101 50H111.481L110.041 45.59ZM108.811 41.84L105.961 33.29L103.111 41.84H108.811ZM121.582 45.62V50H117.082V45.62H121.582Z" fill="white"/>
</svg>
