<svg width="98" height="42" viewBox="0 0 98 42" fill="none" xmlns="http://www.w3.org/2000/svg">
<path d="M6.50801 19.575C5.82467 19.575 5.16634 19.4917 4.53301 19.325C3.91634 19.1583 3.31634 18.8833 2.73301 18.5C2.14967 18.1 1.68301 17.525 1.33301 16.775C0.983008 16.0083 0.808008 15.1 0.808008 14.05V12.25H4.55801V14C4.55801 14.8333 4.71634 15.4417 5.03301 15.825C5.34967 16.1917 5.86634 16.375 6.58301 16.375C7.23301 16.375 7.73301 16.1917 8.08301 15.825C8.43301 15.4583 8.60801 14.9333 8.60801 14.25V0.774999H12.358V14.25C12.358 15.95 11.8497 17.2667 10.833 18.2C9.81634 19.1167 8.37467 19.575 6.50801 19.575ZM24.7496 15.325H17.9246L16.6996 19H12.8746L19.3496 0.774999H23.4996L29.7996 19H25.9496L24.7496 15.325ZM23.7246 12.2L21.3496 5.075L18.9746 12.2H23.7246ZM41.6166 6.95C41.1499 4.76667 39.8499 3.675 37.7166 3.675C36.2333 3.675 35.0749 4.24167 34.2416 5.375C33.4083 6.50833 32.9916 8.08333 32.9916 10.1C32.9916 12.0833 33.3916 13.6333 34.1916 14.75C35.0083 15.8667 36.1416 16.425 37.5916 16.425C38.7583 16.425 39.6916 16.1083 40.3916 15.475C41.0916 14.8417 41.4999 13.9417 41.6166 12.775H45.2666C45.1499 14.8583 44.3916 16.5167 42.9916 17.75C41.5916 18.9667 39.7583 19.575 37.4916 19.575C34.9583 19.575 32.9499 18.725 31.4666 17.025C29.9833 15.3083 29.2416 12.9833 29.2416 10.05C29.2416 7.1 29.9916 4.76667 31.4916 3.05C32.9916 1.33333 35.0249 0.474999 37.5916 0.474999C39.7416 0.474999 41.4999 1.05 42.8666 2.2C44.2499 3.35 45.0249 4.93333 45.1916 6.95H41.6166ZM48.9586 16.9C47.3586 15.1167 46.5586 12.825 46.5586 10.025C46.5586 7.225 47.3586 4.93333 48.9586 3.15C50.5753 1.36667 52.6919 0.474999 55.3086 0.474999C57.9419 0.474999 60.0669 1.36667 61.6836 3.15C63.3003 4.91667 64.1086 7.25 64.1086 10.15C64.1086 12.85 63.3086 15.1 61.7086 16.9C60.1253 18.6833 58.0003 19.575 55.3336 19.575C52.6836 19.575 50.5586 18.6833 48.9586 16.9ZM55.3336 3.675C53.8169 3.675 52.6003 4.25833 51.6836 5.425C50.7669 6.575 50.3086 8.10833 50.3086 10.025C50.3086 11.9417 50.7669 13.4833 51.6836 14.65C52.6003 15.8 53.8169 16.375 55.3336 16.375C56.8336 16.375 58.0419 15.8 58.9586 14.65C59.8919 13.5 60.3586 11.9917 60.3586 10.125C60.3586 8.15833 59.9003 6.59167 58.9836 5.425C58.0836 4.25833 56.8669 3.675 55.3336 3.675ZM80.0416 13.75C80.0416 14.35 79.9416 14.9333 79.7416 15.5C79.5416 16.0667 79.2166 16.625 78.7666 17.175C78.3333 17.725 77.6749 18.1667 76.7916 18.5C75.9083 18.8333 74.8583 19 73.6416 19H65.4416V0.774999H73.5666C74.6999 0.774999 75.6749 0.941666 76.4916 1.275C77.3249 1.60833 77.9416 2.04167 78.3416 2.575C78.7583 3.09167 79.0583 3.6 79.2416 4.1C79.4249 4.6 79.5166 5.09167 79.5166 5.575C79.5166 6.35833 79.3249 7.03333 78.9416 7.6C78.5583 8.16667 77.9166 8.74167 77.0166 9.325C79.0333 10.5083 80.0416 11.9833 80.0416 13.75ZM69.1916 3.9V8.025H73.2666C75.0333 8.025 75.9166 7.34167 75.9166 5.975C75.9166 4.59167 75.0333 3.9 73.2666 3.9H69.1916ZM69.1916 11.15V15.875H73.6666C75.5166 15.875 76.4416 15.0917 76.4416 13.525C76.4416 11.9417 75.5166 11.15 73.6666 11.15H69.1916ZM4.6 34.9V41H0.85V22.775H4.6V30.775L11.725 22.775H16.15L8.875 30.625L16.925 41H12.45L6.475 32.95L4.6 34.9ZM26.217 41.4C25.6003 41.5167 24.9587 41.575 24.292 41.575C23.6253 41.575 22.9753 41.5167 22.342 41.4C21.7253 41.2833 21.0837 41.075 20.417 40.775C19.767 40.475 19.2003 40.0917 18.717 39.625C18.2337 39.1583 17.8337 38.5417 17.517 37.775C17.217 36.9917 17.067 36.1083 17.067 35.125V22.775H20.817V35.125C20.817 37.2917 21.9753 38.375 24.292 38.375C26.6087 38.375 27.767 37.2917 27.767 35.125V22.775H31.517V35.125C31.517 36.1083 31.3587 36.9917 31.042 37.775C30.742 38.5417 30.3503 39.1583 29.867 39.625C29.3837 40.0917 28.8087 40.475 28.142 40.775C27.492 41.075 26.8503 41.2833 26.217 41.4ZM45.059 28.95C44.5923 26.7667 43.2923 25.675 41.159 25.675C39.6757 25.675 38.5173 26.2417 37.684 27.375C36.8507 28.5083 36.434 30.0833 36.434 32.1C36.434 34.0833 36.834 35.6333 37.634 36.75C38.4507 37.8667 39.584 38.425 41.034 38.425C42.2007 38.425 43.134 38.1083 43.834 37.475C44.534 36.8417 44.9423 35.9417 45.059 34.775H48.709C48.5923 36.8583 47.834 38.5167 46.434 39.75C45.034 40.9667 43.2007 41.575 40.934 41.575C38.4007 41.575 36.3923 40.725 34.909 39.025C33.4257 37.3083 32.684 34.9833 32.684 32.05C32.684 29.1 33.434 26.7667 34.934 25.05C36.434 23.3333 38.4673 22.475 41.034 22.475C43.184 22.475 44.9423 23.05 46.309 24.2C47.6923 25.35 48.4673 26.9333 48.634 28.95H45.059ZM53.851 33.15V37.875H63.726V41H50.101V22.775H63.276V25.9H53.851V30.025H62.576V33.15H53.851ZM75.2508 37.875C75.2508 37.375 75.2591 36.9833 75.2758 36.7C75.2924 36.4167 75.3008 36.1667 75.3008 35.95C75.3008 35.1833 75.1174 34.6333 74.7508 34.3C74.3841 33.95 73.7924 33.775 72.9758 33.775H68.6758V41H64.9258V22.775H74.7008C75.6341 22.775 76.4341 22.9333 77.1008 23.25C77.7841 23.5667 78.2924 23.9833 78.6258 24.5C78.9758 25.0167 79.2258 25.5417 79.3758 26.075C79.5258 26.5917 79.6008 27.1333 79.6008 27.7C79.6008 29.9 78.5758 31.4 76.5258 32.2C76.9758 32.3833 77.3091 32.5333 77.5258 32.65C77.7424 32.75 77.9591 32.925 78.1758 33.175C78.4091 33.425 78.5591 33.65 78.6258 33.85C78.7091 34.05 78.7841 34.4167 78.8508 34.95C78.9341 35.4833 78.9841 36.0083 79.0008 36.525C79.0174 37.0417 79.0341 37.8083 79.0508 38.825C79.0508 39.525 79.3174 40.025 79.8508 40.325V41H75.8258C75.5924 40.5667 75.4341 40.15 75.3508 39.75C75.2841 39.35 75.2508 38.725 75.2508 37.875ZM75.8508 28.225C75.8508 27.2917 75.6341 26.675 75.2008 26.375C74.7674 26.0583 74.1008 25.9 73.2008 25.9H68.6758V30.65H73.2008C74.0841 30.65 74.7424 30.4917 75.1758 30.175C75.6258 29.8583 75.8508 29.2083 75.8508 28.225ZM92.3678 37.325H85.5428L84.3178 41H80.4928L86.9678 22.775H91.1178L97.4178 41H93.5678L92.3678 37.325ZM91.3428 34.2L88.9678 27.075L86.5928 34.2H91.3428Z" fill="white"/>
</svg>
