<svg width="42" height="177" viewBox="0 0 42 177" fill="none" xmlns="http://www.w3.org/2000/svg">
<path d="M23.8 111.48H29V114.48H14.42V108.04C14.42 106.52 14.8067 105.36 15.58 104.56C16.3533 103.747 17.4733 103.34 18.94 103.34C20.42 103.34 21.6 103.74 22.48 104.54C23.36 105.34 23.8 106.407 23.8 107.74V111.48ZM21.3 111.48V108.68C21.3 107.12 20.5733 106.34 19.12 106.34C18.3733 106.34 17.82 106.533 17.46 106.92C17.1 107.293 16.92 107.88 16.92 108.68V111.48H21.3ZM27.32 100.331C25.8933 101.611 24.06 102.251 21.82 102.251C19.58 102.251 17.7467 101.611 16.32 100.331C14.8933 99.0374 14.18 97.3441 14.18 95.2508C14.18 93.1441 14.8933 91.4441 16.32 90.1508C17.7333 88.8574 19.6 88.2108 21.92 88.2108C24.08 88.2108 25.88 88.8508 27.32 90.1308C28.7467 91.3974 29.46 93.0974 29.46 95.2308C29.46 97.3508 28.7467 99.0508 27.32 100.331ZM16.74 95.2308C16.74 96.4441 17.2067 97.4174 18.14 98.1508C19.06 98.8841 20.2867 99.2508 21.82 99.2508C23.3533 99.2508 24.5867 98.8841 25.52 98.1508C26.44 97.4174 26.9 96.4441 26.9 95.2308C26.9 94.0308 26.44 93.0641 25.52 92.3308C24.6 91.5841 23.3933 91.2108 21.9 91.2108C20.3267 91.2108 19.0733 91.5774 18.14 92.3108C17.2067 93.0308 16.74 94.0041 16.74 95.2308ZM26.5 77.6244C26.1 77.6244 25.7867 77.6177 25.56 77.6044C25.3333 77.591 25.1333 77.5844 24.96 77.5844C24.3467 77.5844 23.9067 77.731 23.64 78.0244C23.36 78.3177 23.22 78.791 23.22 79.4444V82.8844H29V85.8844H14.42V78.0644C14.42 77.3177 14.5467 76.6777 14.8 76.1444C15.0533 75.5977 15.3867 75.191 15.8 74.9244C16.2133 74.6444 16.6333 74.4444 17.06 74.3244C17.4733 74.2044 17.9067 74.1444 18.36 74.1444C20.12 74.1444 21.32 74.9644 21.96 76.6044C22.1067 76.2444 22.2267 75.9777 22.32 75.8044C22.4 75.631 22.54 75.4577 22.74 75.2844C22.94 75.0977 23.12 74.9777 23.28 74.9244C23.44 74.8577 23.7333 74.7977 24.16 74.7444C24.5867 74.6777 25.0067 74.6377 25.42 74.6244C25.8333 74.611 26.4467 74.5977 27.26 74.5844C27.82 74.5844 28.22 74.371 28.46 73.9444H29V77.1644C28.6533 77.351 28.32 77.4777 28 77.5444C27.68 77.5977 27.18 77.6244 26.5 77.6244ZM18.78 77.1444C18.0333 77.1444 17.54 77.3177 17.3 77.6644C17.0467 78.011 16.92 78.5444 16.92 79.2644V82.8844H20.72L20.72 79.2644C20.72 78.5577 20.5933 78.031 20.34 77.6844C20.0867 77.3244 19.5667 77.1444 18.78 77.1444ZM16.92 65.7414H29V68.7414H16.92V73.1614H14.42V61.4814H16.92V65.7414ZM22.72 57.5356H29V60.5356H14.42V50.2956H16.92V57.5356H20.22V51.1556H22.72V57.5356ZM27.32 47.6745C25.8933 48.9545 24.06 49.5945 21.82 49.5945C19.58 49.5945 17.7467 48.9545 16.32 47.6745C14.8933 46.3812 14.18 44.6879 14.18 42.5945C14.18 40.4879 14.8933 38.7879 16.32 37.4945C17.7333 36.2012 19.6 35.5545 21.92 35.5545C24.08 35.5545 25.88 36.1945 27.32 37.4745C28.7467 38.7412 29.46 40.4412 29.46 42.5745C29.46 44.6945 28.7467 46.3945 27.32 47.6745ZM16.74 42.5745C16.74 43.7879 17.2067 44.7612 18.14 45.4945C19.06 46.2279 20.2867 46.5945 21.82 46.5945C23.3533 46.5945 24.5867 46.2279 25.52 45.4945C26.44 44.7612 26.9 43.7879 26.9 42.5745C26.9 41.3745 26.44 40.4079 25.52 39.6745C24.6 38.9279 23.3933 38.5545 21.9 38.5545C20.3267 38.5545 19.0733 38.9212 18.14 39.6545C17.2067 40.3745 16.74 41.3479 16.74 42.5745ZM14.42 30.8336H26.5V23.8536H29L29 33.8336H14.42V30.8336ZM14.42 19.5525H29V22.5525H14.42V19.5525ZM27.32 16.4245C25.8933 17.7045 24.06 18.3445 21.82 18.3445C19.58 18.3445 17.7467 17.7045 16.32 16.4245C14.8933 15.1312 14.18 13.4379 14.18 11.3445C14.18 9.23786 14.8933 7.53786 16.32 6.24453C17.7333 4.9512 19.6 4.30453 21.92 4.30453C24.08 4.30453 25.88 4.94453 27.32 6.22453C28.7467 7.4912 29.46 9.1912 29.46 11.3245C29.46 13.4445 28.7467 15.1445 27.32 16.4245ZM16.74 11.3245C16.74 12.5379 17.2067 13.5112 18.14 14.2445C19.06 14.9779 20.2867 15.3445 21.82 15.3445C23.3533 15.3445 24.5867 14.9779 25.52 14.2445C26.44 13.5112 26.9 12.5379 26.9 11.3245C26.9 10.1245 26.44 9.15786 25.52 8.42453C24.6 7.67786 23.3933 7.30453 21.9 7.30453C20.3267 7.30453 19.0733 7.6712 18.14 8.40453C17.2067 9.12453 16.74 10.0979 16.74 11.3245Z" fill="white"/>
<path d="M35 156L32.5325 153.532L22.75 163.297V142H19.25V163.297L9.485 153.515L7 156L21 170L35 156Z" fill="white"/>
</svg>
