<svg width="71" height="19" viewBox="0 0 71 19" fill="none" xmlns="http://www.w3.org/2000/svg">
<path d="M7.84 17.32C7.34667 17.4133 6.83333 17.46 6.3 17.46C5.76667 17.46 5.24667 17.4133 4.74 17.32C4.24667 17.2267 3.73333 17.06 3.2 16.82C2.68 16.58 2.22667 16.2733 1.84 15.9C1.45333 15.5267 1.13333 15.0333 0.88 14.42C0.64 13.7933 0.52 13.0867 0.52 12.3V2.42H3.52V12.3C3.52 14.0333 4.44667 14.9 6.3 14.9C8.15333 14.9 9.08 14.0333 9.08 12.3V2.42H12.08V12.3C12.08 13.0867 11.9533 13.7933 11.7 14.42C11.46 15.0333 11.1467 15.5267 10.76 15.9C10.3733 16.2733 9.91333 16.58 9.38 16.82C8.86 17.06 8.34667 17.2267 7.84 17.32ZM17.6936 2.42V17H14.6936V2.42H17.6936ZM27.16 19H30.54L37.14 0.159999H33.76L27.16 19ZM52.3408 17.32C51.8474 17.4133 51.3341 17.46 50.8008 17.46C50.2674 17.46 49.7474 17.4133 49.2408 17.32C48.7474 17.2267 48.2341 17.06 47.7008 16.82C47.1808 16.58 46.7274 16.2733 46.3408 15.9C45.9541 15.5267 45.6341 15.0333 45.3808 14.42C45.1408 13.7933 45.0208 13.0867 45.0208 12.3V2.42H48.0208V12.3C48.0208 14.0333 48.9474 14.9 50.8008 14.9C52.6541 14.9 53.5808 14.0333 53.5808 12.3V2.42H56.5808V12.3C56.5808 13.0867 56.4541 13.7933 56.2008 14.42C55.9608 15.0333 55.6474 15.5267 55.2608 15.9C54.8741 16.2733 54.4141 16.58 53.8808 16.82C53.3608 17.06 52.8474 17.2267 52.3408 17.32ZM66.3144 9.56L70.9944 17H67.4344L64.6344 11.94L61.8544 17H58.3744L62.9744 9.66L58.5344 2.42H62.0944L64.6544 7.22L67.3344 2.42H70.8144L66.3144 9.56Z" fill="white"/>
</svg>
