<svg width="529" height="130" viewBox="0 0 529 130" fill="none" xmlns="http://www.w3.org/2000/svg">
<path d="M73 76H59.5L47.3 19.1L35.4 76H21.9L1.3 3.1H17.2L28.5 57.7L39.8 3.1H54.6L66.4 57.8L77.3 3.1H93.2L73 76ZM134.577 61.3H107.277L102.377 76H87.0766L112.977 3.1H129.577L154.777 76H139.377L134.577 61.3ZM130.477 48.8L120.977 20.3L111.477 48.8H130.477ZM186.388 76H173.688L149.088 3.1H164.188L180.388 58L196.288 3.1H211.388L186.388 76ZM226.818 44.6V63.5H266.318V76H211.818V3.1H264.518V15.6H226.818V32.1H261.718V44.6H226.818ZM288.017 61.4V76H273.017V61.4H288.017ZM340.549 61.3H313.249L308.349 76H293.049L318.949 3.1H335.549L360.749 76H345.349L340.549 61.3ZM336.449 48.8L326.949 20.3L317.449 48.8H336.449ZM408.513 27.8C406.647 19.0667 401.447 14.7 392.913 14.7C386.98 14.7 382.347 16.9667 379.013 21.5C375.68 26.0333 374.013 32.3333 374.013 40.4C374.013 48.3333 375.613 54.5333 378.813 59C382.08 63.4667 386.613 65.7 392.413 65.7C397.08 65.7 400.813 64.4333 403.613 61.9C406.413 59.3667 408.047 55.7667 408.513 51.1H423.113C422.647 59.4333 419.613 66.0667 414.013 71C408.413 75.8667 401.08 78.3 392.013 78.3C381.88 78.3 373.847 74.9 367.913 68.1C361.98 61.2333 359.013 51.9333 359.013 40.2C359.013 28.4 362.013 19.0667 368.013 12.2C374.013 5.33333 382.147 1.89999 392.413 1.89999C401.013 1.89999 408.047 4.19999 413.513 8.79999C419.047 13.4 422.147 19.7333 422.813 27.8H408.513Z" fill="url(#paint0_linear)"/>
<path d="M18.26 127.48C17.52 127.62 16.75 127.69 15.95 127.69C15.15 127.69 14.37 127.62 13.61 127.48C12.87 127.34 12.1 127.09 11.3 126.73C10.52 126.37 9.84 125.91 9.26 125.35C8.68 124.79 8.2 124.05 7.82 123.13C7.46 122.19 7.28 121.13 7.28 119.95V105.13H11.78V119.95C11.78 122.55 13.17 123.85 15.95 123.85C18.73 123.85 20.12 122.55 20.12 119.95V105.13H24.62V119.95C24.62 121.13 24.43 122.19 24.05 123.13C23.69 124.05 23.22 124.79 22.64 125.35C22.06 125.91 21.37 126.37 20.57 126.73C19.79 127.09 19.02 127.34 18.26 127.48ZM31.8404 105.13V127H27.3404V105.13H31.8404ZM36.71 130H40.88L50.78 101.74H46.61L36.71 130ZM65.408 127.48C64.668 127.62 63.898 127.69 63.098 127.69C62.298 127.69 61.518 127.62 60.758 127.48C60.018 127.34 59.248 127.09 58.448 126.73C57.668 126.37 56.988 125.91 56.408 125.35C55.828 124.79 55.348 124.05 54.968 123.13C54.608 122.19 54.428 121.13 54.428 119.95V105.13H58.928V119.95C58.928 122.55 60.318 123.85 63.098 123.85C65.878 123.85 67.268 122.55 67.268 119.95V105.13H71.768V119.95C71.768 121.13 71.578 122.19 71.198 123.13C70.838 124.05 70.368 124.79 69.788 125.35C69.208 125.91 68.518 126.37 67.7181 126.73C66.938 127.09 66.168 127.34 65.408 127.48ZM85.1684 115.84L92.1884 127H86.8484L82.6484 119.41L78.4784 127H73.2584L80.1584 115.99L73.4984 105.13H78.8384L82.6784 112.33L86.6984 105.13H91.9184L85.1684 115.84ZM100.868 127V105.13H109.418C111.098 105.13 112.478 105.33 113.558 105.73C114.658 106.13 115.578 106.77 116.318 107.65C118.098 109.77 118.988 112.57 118.988 116.05C118.988 119.57 118.098 122.37 116.318 124.45C114.898 126.15 112.598 127 109.418 127H100.868ZM105.368 123.25H109.418C112.798 123.25 114.488 120.86 114.488 116.08C114.488 111.28 112.798 108.88 109.418 108.88H105.368V123.25ZM124.531 117.58V123.25H136.381V127H120.031V105.13H135.841V108.88H124.531V113.83H135.001V117.58H124.531ZM153.186 111.79H148.986C148.826 109.51 147.296 108.37 144.396 108.37C143.236 108.37 142.316 108.62 141.636 109.12C140.956 109.6 140.616 110.25 140.616 111.07C140.616 111.87 140.906 112.47 141.486 112.87C142.066 113.25 143.156 113.6 144.756 113.92L148.176 114.58C150.196 114.98 151.666 115.66 152.586 116.62C153.506 117.56 153.966 118.89 153.966 120.61C153.966 122.83 153.176 124.57 151.596 125.83C150.016 127.07 147.816 127.69 144.996 127.69C142.196 127.69 140.016 127.07 138.456 125.83C136.916 124.59 136.076 122.8 135.936 120.46H140.316C140.396 121.64 140.856 122.54 141.696 123.16C142.536 123.78 143.716 124.09 145.236 124.09C146.596 124.09 147.666 123.83 148.446 123.31C149.246 122.79 149.646 122.07 149.646 121.15C149.646 120.27 149.336 119.59 148.716 119.11C148.096 118.63 147.036 118.25 145.536 117.97L142.476 117.37C140.256 116.95 138.676 116.29 137.736 115.39C136.796 114.49 136.326 113.19 136.326 111.49C136.326 109.35 137.046 107.7 138.486 106.54C139.946 105.36 141.986 104.77 144.606 104.77C145.366 104.77 146.096 104.82 146.796 104.92C147.516 105.02 148.276 105.23 149.076 105.55C149.876 105.85 150.566 106.25 151.146 106.75C151.726 107.23 152.206 107.91 152.586 108.79C152.986 109.65 153.186 110.65 153.186 111.79ZM159.59 105.13V127H155.09V105.13H159.59ZM176.102 112.06C175.302 109.72 173.562 108.55 170.882 108.55C168.982 108.55 167.482 109.22 166.382 110.56C165.302 111.9 164.762 113.75 164.762 116.11C164.762 118.35 165.342 120.19 166.502 121.63C167.682 123.07 169.182 123.79 171.002 123.79C171.282 123.79 171.602 123.76 171.962 123.7C172.342 123.62 172.792 123.48 173.312 123.28C173.832 123.06 174.312 122.78 174.752 122.44C175.192 122.1 175.582 121.63 175.922 121.03C176.262 120.41 176.472 119.71 176.552 118.93H171.572V115.18H180.332V127H177.632L177.092 124.12C176.252 125.34 175.312 126.23 174.272 126.79C173.232 127.35 171.972 127.63 170.492 127.63C167.532 127.63 165.082 126.55 163.142 124.39C161.222 122.23 160.262 119.49 160.262 116.17C160.262 112.77 161.242 110.01 163.202 107.89C165.162 105.77 167.712 104.71 170.852 104.71C173.492 104.71 175.662 105.37 177.362 106.69C179.062 108.01 180.052 109.8 180.332 112.06H176.102ZM195.28 127L186.49 111.88V127H181.99V105.13H186.61L195.28 120.01V105.13H199.78V127H195.28Z" fill="white"/>
<defs>
<linearGradient id="paint0_linear" x1="592.06" y1="0.000349163" x2="-722.764" y2="152.143" gradientUnits="userSpaceOnUse">
<stop stop-color="#FF007A"/>
<stop offset="1" stop-color="#FF0000"/>
</linearGradient>
</defs>
</svg>
